<?xml version="1.0" encoding="utf-8"?>
<!-- Generator: Adobe Illustrator 23.0.1, SVG Export Plug-In . SVG Version: 6.00 Build 0)  -->
<svg version="1.1" id="Layer_1" xmlns="http://www.w3.org/2000/svg" xmlns:xlink="http://www.w3.org/1999/xlink" x="0px" y="0px"
	 viewBox="0 0 841.94 300" enable-background="new 0 0 841.94 300" xml:space="preserve">
<g>
	<circle fill="#ED184F" cx="150" cy="150" r="150"/>
	<g>
		<path fill="#FFFFFF" d="M156.1,49.17c19.11,0,35.42,5.9,48.91,17.71c13.49-11.81,29.52-17.71,48.07-17.71
			c23.61,0,42.16,8.43,55.66,25.3c10.68,12.93,15.74,27.55,15.18,43.85V227.1c0,8.43-3.66,14.9-10.96,19.4
			c-7.31,4.49-14.9,4.49-22.77,0c-7.31-4.49-10.96-10.96-10.96-19.4V118.32c-1.69-12.08-6.19-19.67-13.49-22.77
			c-2.81-1.12-7.03-1.69-12.65-1.69c-10.69,0-17.71,2.81-21.08,8.43c-2.81,5.06-4.5,10.4-5.06,16.02v46.8
			c0,8.43-3.66,14.9-10.96,19.4c-7.31,4.5-14.9,4.5-22.77,0c-7.31-3.93-10.96-10.4-10.96-19.4v-46.8
			c-1.69-12.08-6.19-19.67-13.49-22.77c-2.81-1.12-7.03-1.69-12.65-1.69c-10.12,0-16.87,2.81-20.24,8.43
			c-3.37,5.9-5.34,11.25-5.9,16.02V227.1c0.56,8.43-3.1,14.9-10.96,19.4c-7.31,4.49-14.9,4.49-22.77,0
			c-7.31-4.49-10.96-10.96-10.96-19.4V118.32c2.25-34.85,17.99-56.78,47.22-65.78C139.8,50.3,147.67,49.17,156.1,49.17z"/>
	</g>
	<g>
		<rect x="323.13" y="84" fill="#ED184F" width="45.2" height="144.07"/>
		<circle fill="#ED184F" cx="345.76" cy="83.59" r="22.63"/>
		<circle fill="#ED184F" cx="345.76" cy="27.59" r="22.63"/>
		<circle fill="#ED184F" cx="345.76" cy="227.59" r="22.63"/>
	</g>
	<g>
		<path fill="#121212" d="M525.77,147.88L525.77,147.88c-3.26,0-5.91-2.64-5.91-5.91V95.53c0-6.58-1.94-12.26-5.68-16.9
			s-8.82-7.03-14.96-7.03c-6.28,0-11.67,2.09-16.3,6.13c-4.49,4.04-6.73,9.12-6.73,15.26v18.91c0,3.3-2.68,5.98-5.98,5.98h0
			c-3.3,0-5.98-2.68-5.98-5.98V92.99c0-6.13-2.24-11.22-6.88-15.26c-4.49-4.04-9.87-6.13-16.15-6.13c-6.13,0-11.07,2.39-14.81,7.03
			s-5.53,10.17-5.53,16.9v46.44c0,3.26-2.64,5.91-5.91,5.91h0c-3.26,0-5.91-2.64-5.91-5.91V96.88c0-10.62,2.99-19.29,9.12-25.73
			c5.68-6.13,13.16-9.57,22.43-10.32c12.41-1.05,22.29,4.34,29.61,15.85c7.33-11.52,17.2-16.9,29.61-15.85
			c9.27,0.75,16.75,4.19,22.58,10.32c6.13,6.43,9.27,15.11,9.27,25.73v45.09C531.68,145.24,529.04,147.88,525.77,147.88z"/>
		<path fill="#121212" d="M549.56,147.88L549.56,147.88c-3.1,0-5.61-2.51-5.61-5.61V68.24c0-3.1,2.51-5.61,5.61-5.61l0,0
			c3.1,0,5.61,2.51,5.61,5.61v74.04C555.17,145.37,552.66,147.88,549.56,147.88z"/>
		<path fill="#121212" d="M637.21,147.88L637.21,147.88c-3.18,0-5.76-2.58-5.76-5.76V98.08c0-7.18-2.69-13.31-7.93-18.55
			c-5.23-5.24-11.22-7.78-18.25-7.78c-7.03,0-13.31,2.54-18.55,7.78c-5.24,5.23-7.78,11.37-7.78,18.55v44.05
			c0,3.18-2.58,5.76-5.76,5.76l0,0c-3.18,0-5.76-2.58-5.76-5.76V99.27c0-11.07,3.59-20.19,10.77-27.52
			c7.18-7.33,16.15-11.07,27.07-11.07c10.77,0,19.74,3.74,26.92,11.07c7.18,7.33,10.77,16.45,10.77,27.52v42.85
			C642.97,145.3,640.39,147.88,637.21,147.88z"/>
		<path fill="#121212" d="M744.22,105.7c0.3,12.26-4.04,22.88-13.16,31.86c-9.12,8.82-19.74,13.16-32.01,12.71
			c-11.82-0.3-21.99-4.79-30.21-13.46c-8.23-8.67-12.26-18.99-12.26-30.96c0-12.41,4.49-23.18,13.31-32.01
			c8.82-8.97,19.44-13.31,31.71-12.86c12.56,0.45,23.03,5.53,31.41,15.11V38.77c0-3.1,2.51-5.61,5.61-5.61l0,0
			c3.1,0,5.61,2.51,5.61,5.61V105.7z M699.21,139.06c9.42,0.45,17.35-2.69,23.93-9.72c6.73-7.03,9.87-15.11,9.57-24.53
			c-0.15-8.97-3.44-16.6-9.57-23.03c-6.13-6.43-13.46-9.57-22.29-9.57c-8.97-0.15-16.75,3.14-23.18,9.57
			c-6.43,6.43-9.57,14.06-9.72,23.18c-0.15,8.97,2.84,16.9,8.97,23.63C683.05,135.32,690.38,138.76,699.21,139.06z"/>
	</g>
	<g>
		<path fill="#121212" d="M412.88,250.02L412.88,250.02c-2.12,0-3.84-1.72-3.84-3.84v-69.1c0-2.12,1.72-3.84,3.84-3.84h0
			c2.12,0,3.84,1.72,3.84,3.84v69.1C416.72,248.3,415,250.02,412.88,250.02z"/>
		<path fill="#121212" d="M471.61,250.02L471.61,250.02c-2.12,0-3.84-1.72-3.84-3.84v-29.37c0-4.79-1.79-8.88-5.29-12.37
			s-7.48-5.19-12.17-5.19c-4.69,0-8.87,1.7-12.36,5.19s-5.19,7.58-5.19,12.37v29.37c0,2.12-1.72,3.84-3.84,3.84h0
			c-2.12,0-3.84-1.72-3.84-3.84v-28.57c0-7.38,2.39-13.46,7.18-18.35c4.79-4.89,10.77-7.38,18.05-7.38c7.18,0,13.16,2.49,17.95,7.38
			c4.79,4.89,7.18,10.97,7.18,18.35v28.57C475.45,248.3,473.73,250.02,471.61,250.02z"/>
		<path fill="#121212" d="M510.71,250.02L510.71,250.02c-2.39,0-4.54-1.44-5.45-3.66l-19.74-48.09c-1-2.43,0.79-5.09,3.42-5.09l0,0
			c1.5,0,2.84,0.9,3.41,2.28l18.4,44.58l18.26-44.47c0.59-1.45,2-2.39,3.57-2.39l0,0c2.75,0,4.62,2.8,3.56,5.34l-19.99,47.87
			C515.23,248.59,513.09,250.02,510.71,250.02z"/>
		<path fill="#121212" d="M596.37,231.37c2.88,0,4.71,3.13,3.25,5.62c-2.06,3.54-4.8,6.53-8.21,8.93
			c-5.08,3.59-10.67,5.38-16.85,5.48c-7.78,0.1-14.66-2.69-20.64-8.48c-5.98-5.88-9.07-12.76-9.17-20.84
			c-0.2-8.48,2.79-15.85,8.97-21.94c6.28-6.18,13.56-9.07,22.04-8.58c7.58,0.5,14.16,3.59,19.74,9.37
			c5.38,5.68,8.08,12.07,8.08,19.15v4.09h-51.05c0.6,5.68,2.99,10.47,7.28,14.16c4.29,3.69,9.27,5.58,15.06,5.48
			c8.24-0.09,14.3-3.63,18.25-10.55C593.78,232.11,595.02,231.37,596.37,231.37L596.37,231.37z M596.1,217.21
			c-1.1-5.29-3.59-9.57-7.48-12.86c-3.89-3.29-8.58-4.99-14.06-5.09s-10.27,1.6-14.36,4.89c-4.09,3.29-6.58,7.68-7.68,13.06H596.1z"
			/>
		<path fill="#121212" d="M656.68,250.02L656.68,250.02c-2.12,0-3.84-1.72-3.84-3.84v-29.37c0-4.79-1.79-8.88-5.29-12.37
			s-7.48-5.19-12.17-5.19c-4.69,0-8.87,1.7-12.36,5.19s-5.19,7.58-5.19,12.37v29.37c0,2.12-1.72,3.84-3.84,3.84l0,0
			c-2.12,0-3.84-1.72-3.84-3.84v-28.57c0-7.38,2.39-13.46,7.18-18.35c4.79-4.89,10.77-7.38,18.05-7.38c7.18,0,13.16,2.49,17.95,7.38
			c4.79,4.89,7.18,10.97,7.18,18.35v28.57C660.52,248.3,658.8,250.02,656.68,250.02z"/>
		<path fill="#121212" d="M689.24,247.92c0,1.86-1.59,3.32-3.44,3.17c-11.56-0.93-17.3-6.77-17.3-17.52v-56.49
			c0-2.12,1.72-3.84,3.84-3.84l0,0c2.12,0,3.84,1.72,3.84,3.84v16h9.52c1.96,0,3.54,1.58,3.54,3.54v0c0,1.96-1.58,3.54-3.54,3.54
			h-9.52v32.11c0,7.5,3.44,11.64,10.24,12.5C688.02,244.97,689.24,246.3,689.24,247.92L689.24,247.92z"/>
		<path fill="#121212" d="M745.37,242.84c-5.88,5.88-12.96,8.78-21.14,8.48c-7.88-0.2-14.66-3.19-20.14-8.97
			c-5.48-5.78-8.18-12.66-8.18-20.64c0-8.28,2.99-15.46,8.88-21.34c5.88-5.98,12.96-8.87,21.14-8.58c7.88,0.3,14.66,3.29,20.14,9.17
			c5.48,5.78,8.28,12.66,8.28,20.64C754.35,229.78,751.36,236.86,745.37,242.84z M724.33,243.84c6.28,0.3,11.57-1.79,15.96-6.48
			c4.49-4.69,6.58-10.07,6.48-16.35c-0.2-5.98-2.39-11.07-6.48-15.36c-4.09-4.29-8.97-6.38-14.76-6.38
			c-6.08-0.1-11.17,2.09-15.46,6.38c-4.29,4.29-6.38,9.37-6.48,15.46c-0.1,5.98,1.79,11.27,5.88,15.75
			C713.56,241.35,718.45,243.64,724.33,243.84z"/>
		<path fill="#121212" d="M765.87,250.02h-0.9c-1.96,0-3.54-1.58-3.54-3.54v-49.76c0-1.96,1.58-3.54,3.54-3.54l0,0
			c1.96,0,3.54,1.58,3.54,3.54v4.54c1.6-3.09,3.99-5.38,7.08-7.08c1.34-0.69,2.68-1.22,4.03-1.57c2.4-0.62,4.74,1.15,4.74,3.63l0,0
			c0,1.79-1.22,3.4-2.98,3.75c-2.19,0.44-4.06,1.31-5.6,2.56c-2.19,1.79-3.69,3.39-4.49,4.69c-1.3,2.19-1.89,5.09-1.89,8.78v30.46
			C769.41,248.44,767.82,250.02,765.87,250.02z"/>
		<path fill="#121212" d="M809.04,269.86L809.04,269.86c-2.7,0-4.55-2.72-3.56-5.24l6.5-16.4l-19.66-49.77
			c-1-2.53,0.87-5.27,3.59-5.27h0c1.57,0,2.99,0.96,3.58,2.42l17.18,42.65l18.19-42.83c0.58-1.36,1.91-2.24,3.39-2.24l0,0
			c2.63,0,4.41,2.68,3.4,5.11l-29.08,69.23C811.97,268.94,810.58,269.86,809.04,269.86z"/>
	</g>
	<circle fill="#121212" cx="549.53" cy="38.81" r="5.57"/>
</g>
</svg>
