<svg width="688" height="518" viewBox="0 0 688 518" fill="none" xmlns="http://www.w3.org/2000/svg">
<path d="M688 415.561L434.398 510.331L0 346.675L261.182 249.063L688 415.561Z" fill="#513E52"/>
<path d="M688 423.23L434.398 517.997L0 354.343L261.182 256.731L688 423.23Z" fill="#513E52"/>
<path d="M669.144 408.207L429.752 497.463L44.0366 351.04L289.462 259.514L669.144 408.207Z" fill="#453143"/>
<path d="M434.398 518V510.331L688 415.561V423.23L434.398 518Z" fill="#453143"/>
<path d="M0 346.675V354.343L434.398 518V510.331L0 346.675Z" fill="#614C63"/>
<path d="M69.9766 203.048L430.646 338.787V488.673L334.335 452.228V411.083L211.233 364.571L156.236 385.295L69.9766 352.652V203.048" fill="#F24F65"/>
<path d="M156.236 259.932V385.295L252.489 349.023V259.932H156.236Z" fill="#D72D3A"/>
<path d="M334.334 328.188L211.233 281.737V364.57L334.334 411.083V328.188Z" fill="#C8252E"/>
<path d="M635.624 261.732L430.646 338.787V488.673L635.624 411.431V261.732" fill="#D72D3A"/>
<path d="M228.945 371.242V308.357L277.441 326.59V389.565L228.945 371.242Z" fill="white"/>
<path d="M250.988 329.454L233.602 322.919V373.041L250.988 379.613V329.454Z" fill="#2E232B"/>
<path d="M272.784 327.567L233.602 312.843V319.634L272.784 334.392V327.567Z" fill="#2E232B"/>
<path d="M272.784 338.084L255.398 331.546V381.275L272.784 387.843V338.084" fill="#2E232B"/>
<path d="M334.054 348.187L291.827 332.312V395.197L334.054 411.153V348.187Z" fill="white"/>
<path d="M313.87 353.412L296.484 346.874V396.999L313.87 403.566V353.412Z" fill="#2E232B"/>
<path d="M334.054 350.913L296.484 336.797V343.589L334.054 357.739V350.913" fill="#2E232B"/>
<path d="M334.054 361.433L318.28 355.503V405.23L334.054 411.189V361.433Z" fill="#2E232B"/>
<path d="M635.624 261.732L430.646 338.787L69.9766 203.048L274.608 125.715L635.624 261.732Z" fill="#F24F65"/>
<path d="M444.811 200.837V323.24L622.042 256.614V134.211L444.811 200.837Z" fill="#467CBE"/>
<path d="M114.831 76.6456L115.747 198.922L444.811 323.24V200.837L114.831 76.6456Z" fill="#6A95CC"/>
<path d="M622.042 134.211L444.811 200.837L114.831 76.6456L292.077 9.89294L622.042 134.211Z" fill="#7DA0D8"/>
<path d="M123.368 70.7406L126.985 79.1709L301.574 13.5124V3.77991L123.368 70.7406Z" fill="#F24F65"/>
<path d="M123.368 70.7406L301.574 3.77995L291.546 0L123.368 63.3661V70.7406" fill="#F797A8"/>
<path d="M347.802 146.145L339.577 143.082V289.935L347.802 291.413V146.145Z" fill="#D72D3A"/>
<path d="M206.885 101.521L114.831 66.4701V76.6886L206.885 111.334V101.521" fill="#F24F65"/>
<path d="M206.885 94.2048L123.264 63.33L114.831 66.4701L206.885 101.521V94.2048" fill="#F797A8"/>
<path d="M464.964 84.8589L338.471 133.275L222.069 89.932L350.253 41.6427L337.979 37.0172L197.523 89.932L339.577 143.082L478.431 89.932L464.964 84.8589" fill="#F797A8"/>
<path d="M350.132 41.6879L222.069 89.932L230.613 93.1129L350.132 48.0835V41.6879Z" fill="#E93B4C"/>
<path d="M478.535 89.932L339.577 143.082L346.013 165.287L478.535 114.549V89.932Z" fill="#D72D3A"/>
<path d="M456.538 88.0827L350.254 48.0383L230.613 93.1128L338.471 133.275L456.538 88.0827Z" fill="#F24F65"/>
<path d="M197.523 249.861V89.932L339.577 143.082V303.499L197.523 249.861Z" fill="#F24F65"/>
<path d="M301.955 269.201V112.759C301.955 99.0088 289.015 82.8898 273.2 76.935C257.385 70.9825 244.444 77.36 244.444 91.1075V247.659L301.955 269.201" fill="#D72D3A"/>
<path d="M244.444 80.6675L254.247 75.9833L272.999 80.6675L263.006 88.9893L244.444 80.6675Z" fill="#D72D3A"/>
<path d="M292.652 271.962V117.224C292.652 103.476 279.715 87.357 263.9 81.4023C248.085 75.4498 235.145 81.8273 235.145 95.5748V250.236L292.652 271.962Z" fill="#E93B4C"/>
<path d="M277.468 295.082L241.764 281.642L243.768 98.6155C243.831 92.8981 253.332 89.351 260.925 92.2086C272.475 96.556 279.549 104.613 279.455 113.306L277.468 295.082Z" fill="#FAE658"/>
<path d="M243.245 281.093L276.012 293.428L277.985 113.299C278.075 104.968 271.255 97.2049 260.19 93.0406C257.08 91.8695 253.366 91.8673 250.252 93.0292C247.139 94.1913 245.263 96.2824 245.239 98.6223L243.245 281.093ZM278.921 296.737L240.287 282.196L240.294 281.638L242.295 98.6088C242.329 95.5771 244.757 92.871 248.789 91.3631C252.825 89.8575 257.638 89.862 261.664 91.3789C273.644 95.8891 281.026 104.292 280.926 113.313L278.921 296.737" fill="#C8252E"/>
<path d="M222.711 253.471V109.241L209.94 104.435V253.471H222.711Z" fill="#FAE658"/>
<path d="M211.41 252.51H221.237V109.797L211.41 106.096V252.51ZM224.181 254.43H208.466V102.773L224.181 108.687V254.43" fill="#C8252E"/>
<path d="M324.664 291.766V147.536L311.893 142.729V291.766H324.664Z" fill="#FAE658"/>
<path d="M313.363 290.805H323.194V148.089L313.363 144.391V290.805ZM326.134 292.727H310.423V141.068L326.134 146.982V292.727Z" fill="#C8252E"/>
<path d="M44.4283 177.468V237.174L410.005 374.402V314.427L44.4283 177.468Z" fill="#FAE658"/>
<path d="M419.169 310.792L410.005 314.427V374.402L419.169 370.826V310.792Z" fill="#EEC02D"/>
<path d="M44.4283 177.468L53.8667 174.036L419.169 310.792L410.005 314.427L44.4283 177.468" fill="#F9ED8C"/>
<path d="M415.792 318.929C413.767 318.929 411.738 318.587 409.914 317.909L42.1745 180.746C41.4671 180.484 41.2244 179.896 41.6266 179.437C42.0288 178.978 42.9304 178.815 43.6343 179.08L411.374 316.241C414.193 317.292 417.668 317.26 420.438 316.155L423.531 314.923C424.221 314.647 425.126 314.789 425.556 315.241C425.976 315.693 425.761 316.286 425.067 316.562L421.971 317.794C420.074 318.549 417.935 318.929 415.792 318.929Z" fill="#C8252E"/>
<path d="M415.792 372.917C413.767 372.917 411.738 372.576 409.914 371.898L42.1745 234.736C41.4671 234.472 41.2244 233.886 41.6266 233.428C42.0288 232.964 42.9304 232.804 43.6343 233.068L411.374 370.229C414.193 371.283 417.668 371.246 420.438 370.145L424.221 368.633C424.908 368.357 426.627 367.957 427.057 368.412C427.477 368.864 427.106 369.693 426.409 369.971L421.971 371.785C420.074 372.537 417.935 372.917 415.792 372.917" fill="#C8252E"/>
<path d="M425.771 369.811C424.956 369.811 424.301 369.381 424.301 368.85V315.413C424.301 311.251 420.861 307.381 415.324 305.31L60.5313 172.605C59.0125 172.037 57.1956 172.04 55.6838 172.612C54.165 173.186 53.26 174.21 53.26 175.352V177.635C53.26 178.166 52.6012 178.596 51.7864 178.596C50.975 178.596 50.3162 178.166 50.3162 177.635V175.352C50.3162 173.516 51.769 171.872 54.2066 170.952C56.6408 170.032 59.5534 170.025 61.998 170.94L416.79 303.646C423.236 306.058 427.245 310.568 427.245 315.413V368.85C427.245 369.381 426.582 369.811 425.771 369.811" fill="#C8252E"/>
<path d="M142.838 349.075L89.3457 329.018V272.351L142.838 292.408V349.075" fill="#2E232B"/>
<path d="M139.488 350.344L85.9961 330.289V273.621L139.488 293.678V350.344" fill="#453143"/>
<path d="M135.14 344.628L89.9177 327.607V277.629L135.14 294.653V344.628" fill="#C8252E"/>
<path d="M110.816 328.042L89.9177 301.295V292.103L110.816 328.042Z" fill="#E48793"/>
<path d="M98.4372 280.835L89.9177 277.629L98.4372 280.835" fill="#A396A1"/>
<path d="M110.816 328.042L89.9177 277.629L98.4372 280.835L110.816 328.042" fill="#E48793"/>
<path d="M110.816 328.042L108.618 284.669L117.505 288.015L110.816 328.042Z" fill="#E48793"/>
<path d="M135.14 294.653L126.354 291.345L135.14 294.653Z" fill="#A396A1"/>
<path d="M110.816 328.042L126.354 291.345L135.14 294.653L110.816 328.042Z" fill="#E48793"/>
<path d="M110.816 328.042L135.14 307.668V315.122L110.816 328.042Z" fill="#E48793"/>
<path d="M135.064 344.649L89.9941 327.684V315.504L135.064 332.47V344.649Z" fill="white"/>
<path d="M100.871 311.242L101.322 310.937C100.906 311.889 100.483 312.748 100.116 313.455C99.8278 312.795 99.8347 311.988 100.871 311.242ZM132.28 302.626C131.805 302.452 131.087 302.242 130.456 302.066L130.355 301.84C130.355 301.84 125.341 298.885 122.054 298.605C118.767 298.324 116.42 297.623 114.835 297.712C113.438 297.187 112.557 297.033 112.009 297.02C111.544 296.846 111.007 296.821 110.67 296.83L110.663 296.812L110.83 296.665C110.83 296.665 112.082 296.204 112.252 295.161C113.125 294.843 113.666 294.411 113.666 293.936C113.666 293.335 112.796 292.799 111.468 292.48L111.437 292.369C111.166 291.436 109.561 291.307 108.035 291.32C106.967 291.329 106.014 291.528 105.733 292.159L105.601 292.48C104.276 292.801 103.41 293.335 103.41 293.936C103.41 294.47 104.082 294.942 105.15 295.27C105.109 295.539 105.116 295.81 105.161 296.073C104.217 296.086 103.503 296.366 102.754 297.201C102.147 297.87 100.334 299.735 99.8797 299.977C99.7271 299.389 99.155 298.254 98.9019 297.739L98.2639 297.859L98.2188 297.201C98.2188 297.201 99.0302 297.219 99.793 296.796C100.722 296.276 100.864 295.39 99.37 294.852C97.872 294.314 97.6259 294.379 96.3672 295.546C95.6009 296.26 95.5697 297.341 95.6633 298.073L95.2299 298.121C95.254 299.127 95.4483 300.782 96.5475 301.939C97.3311 302.769 99.9456 304.383 101.014 303.675C101.87 303.108 102.505 302.538 102.997 302.012C103.004 302.984 102.987 304.419 102.851 305.751L102.657 306.273L102.761 306.508C102.685 307.048 102.581 307.55 102.449 307.966C102.217 308.694 101.953 309.413 101.676 310.098C100.802 310.512 99.9317 310.998 99.4393 311.977C98.9435 312.963 99.3041 313.887 99.6058 314.407C99.2729 315.013 99.0579 315.368 99.0579 315.368C99.0579 315.368 99.4983 315.669 101.409 316.329L101.773 316.449C101.437 317.518 101.256 318.348 101.409 318.596C101.953 319.501 107.238 324.705 107.238 324.705C107.238 324.705 107.515 324.75 107.973 324.784C107.834 324.994 107.668 325.248 107.473 325.519C106.991 326.197 106.835 326.398 106.392 327.027C106.131 327.395 106.617 327.551 107.397 327.336C108.084 327.144 109.53 326.529 110.289 326.104C110.83 325.801 111.731 325.098 112.179 324.712C112.623 324.325 112.539 323.959 112.539 323.959L112.352 323.64C112.602 323.276 112.678 322.962 112.678 322.962C112.678 322.962 110.504 320.267 109.953 319.575C108.878 318.23 107.702 317.563 107.702 317.563C107.702 317.563 108.892 316.596 109.488 316.085C109.79 315.827 110.587 314.622 111.301 313.489L111.343 313.517C112.106 314.052 114.797 315.807 117.477 317.936C121.014 320.749 127.446 325.288 127.446 325.288C127.446 325.288 127.775 325.287 128.219 325.182C128.295 325.437 128.396 325.774 128.49 326.154C128.68 326.891 128.722 327.113 128.899 327.798C128.999 328.195 129.537 328.148 129.994 327.682C130.397 327.273 131.062 326.235 131.322 325.605C131.51 325.155 131.652 324.244 131.683 323.762C131.718 323.278 131.333 323.007 131.333 323.007L130.809 322.77C131.003 322.394 131.087 322.153 131.087 322.153C131.087 322.153 127.411 318.712 124.925 316.388C128.216 315.119 127.331 313.019 127.331 313.019C127.331 313.019 125.577 312.122 123.455 310.63L124.169 310.618C125.743 310.6 127.446 310.722 127.446 310.722L127.692 310.064C127.692 310.064 125.251 309.883 124.006 309.928C123.725 309.937 123.181 309.937 122.501 309.928C121.503 309.173 120.473 308.312 119.544 307.358C119.2 307.003 118.93 306.616 118.711 306.221L118.729 306.209L118.517 305.646L118.451 305.693C118.028 304.723 117.89 303.801 117.8 303.417C117.723 303.075 117.647 302.702 117.564 302.316C119.141 302.365 120.411 302.194 121.752 302.164C124.28 303.046 125.431 302.919 128.646 303.914L128.94 303.876C129.204 304.221 129.526 304.656 130.026 305.026C131.059 305.795 132.585 305.094 132.748 304.377C132.904 303.72 133.313 303.005 132.28 302.625" fill="#2E232B"/>
<path d="M93.9608 325.718C93.6002 325.58 93.3193 325.333 93.1113 324.972C92.9102 324.61 92.8062 324.133 92.8062 323.536V321.031C92.8062 320.498 92.9136 320.131 93.1217 319.93C93.3297 319.729 93.6592 319.713 94.1099 319.883C94.6786 320.095 95.0357 320.441 95.1848 320.92C95.2785 321.21 95.3235 321.571 95.3235 322.008V322.419L94.5052 322.112V321.508C94.5052 321.244 94.481 321.049 94.4254 320.923L94.1099 320.645L93.784 320.712C93.725 320.816 93.6903 321.031 93.6903 321.357V323.857C93.6903 324.235 93.7215 324.508 93.777 324.678L94.1064 325.024L94.4566 324.917C94.526 324.784 94.5572 324.526 94.5572 324.149V323.373L94.1203 323.208V322.568L95.3235 323.021V326.17L94.9317 326.023L94.7965 325.406L94.4983 325.751L93.9608 325.718" fill="#272626"/>
<path d="M97.0225 323.405L97.3693 323.538L97.6189 323.556L97.7299 323.337C97.7507 323.222 97.7611 323.041 97.7611 322.79V322.754C97.7611 322.442 97.7334 322.229 97.6813 322.112L97.3207 321.832L97.0225 321.718V323.405ZM97.2999 324.207L97.0191 324.087V326.807L96.1453 326.482V320.714L97.5912 321.257L98.2639 321.693C98.413 321.872 98.5066 322.075 98.5551 322.311C98.6037 322.546 98.628 322.837 98.628 323.19C98.628 323.54 98.5863 323.791 98.5135 323.95L98.1044 324.162C98.2986 324.273 98.4372 324.458 98.517 324.723C98.5968 324.987 98.6349 325.487 98.6349 326.226C98.6349 326.968 98.6487 327.366 98.6661 327.431L97.7923 327.099C97.7715 327.049 97.7611 326.355 97.7611 325.021C97.7611 324.766 97.7299 324.583 97.6709 324.476L97.2999 324.207" fill="#272626"/>
<path d="M99.4429 327.723V321.956L101.364 322.679V323.436L100.313 323.041V324.718L101.315 325.094V325.835L100.313 325.46V327.293L101.405 327.705V328.46L99.4429 327.723Z" fill="#272626"/>
<path d="M103.642 327.569L103.26 324.528L103.247 324.523L102.893 327.286L103.642 327.569ZM101.842 328.625L102.661 323.167L103.815 323.602L104.689 329.696L103.871 329.389L103.736 328.308L102.81 327.96L102.685 328.941L101.842 328.625" fill="#272626"/>
<path d="M105.521 330.008V325.003L104.849 324.75V323.99L107.04 324.815V325.575L106.392 325.331V330.336L105.521 330.008Z" fill="#272626"/>
<path d="M109.589 330.858L109.876 330.967L110.227 330.942C110.296 330.863 110.338 330.687 110.338 330.406L110.334 327.558C110.334 327.257 110.296 327.033 110.22 326.877L109.849 326.547L109.589 326.45L109.589 330.858ZM108.715 331.209V325.446L110.001 325.93C110.424 326.088 110.733 326.33 110.924 326.654C111.114 326.972 111.208 327.377 111.208 327.865L111.211 330.465C111.211 331.046 111.114 331.437 110.923 331.636C110.733 331.835 110.417 331.851 109.973 331.684L108.715 331.209" fill="#272626"/>
<path d="M111.995 332.446V326.681L113.919 327.404V328.161L112.869 327.766V329.443L113.871 329.819V330.56L112.869 330.183V332.018L113.961 332.43V333.185L111.995 332.446" fill="#272626"/>
<path d="M114.953 333.56V328.555L114.28 328.299V327.54L116.471 328.367V329.127L115.823 328.88V333.886L114.953 333.56" fill="#272626"/>
<path d="M116.95 334.313V328.548L118.878 329.271V330.026L117.824 329.631V331.308L118.826 331.686V332.427L117.824 332.05V333.883L118.916 334.295V335.052L116.95 334.313" fill="#272626"/>
<path d="M121.742 335.78C121.544 335.972 121.232 335.99 120.809 335.828C120.386 335.669 120.067 335.407 119.859 335.043C119.648 334.681 119.54 334.229 119.54 333.693V331.182C119.54 330.323 119.766 329.873 120.216 329.828L120.813 329.934C121.624 330.239 122.026 330.902 122.026 331.923V332.715L121.18 332.398V331.661C121.18 331.365 121.156 331.143 121.104 330.996L120.813 330.694L120.508 330.782C120.452 330.897 120.424 331.094 120.424 331.374V334.067C120.424 334.376 120.452 334.607 120.508 334.763L120.802 335.073L121.097 334.98C121.153 334.867 121.18 334.654 121.18 334.34V333.515L122.04 333.84V334.654C122.04 335.21 121.94 335.586 121.742 335.78" fill="#272626"/>
<path d="M123.042 336.605V331.598L122.37 331.347V330.587L124.561 331.41V332.17L123.913 331.928V336.933L123.042 336.605" fill="#272626"/>
<path d="M125.074 337.369V331.602L125.948 331.935V337.7L125.074 337.369Z" fill="#272626"/>
<path d="M127.484 338.276L126.593 332.177L127.425 332.491L127.803 335.235L128.035 337.157L128.056 337.165L128.257 335.404L128.569 332.917L129.384 333.227L128.562 338.682L127.484 338.275" fill="#272626"/>
<path d="M129.998 339.221V333.458L131.919 334.182V334.937L130.872 334.541V336.219L131.87 336.596V337.335L130.872 336.958V338.794L131.961 339.205V339.962L129.998 339.221" fill="#272626"/>
<path d="M139.488 293.679L142.838 292.408V349.076L139.488 350.344V293.679Z" fill="#2E232B"/>
<path d="M89.3456 272.351L85.9961 273.621L139.488 293.678L142.838 292.408L89.3456 272.351Z" fill="#614C63"/>
<path d="M409.557 448.808L356.065 428.753V372.085L409.557 392.142V448.808Z" fill="#2E232B"/>
<path d="M406.208 450.081L352.715 430.021V373.354L406.208 393.411V450.081Z" fill="#453143"/>
<path d="M406.208 393.411L409.557 392.142V448.808L406.208 450.081V393.411Z" fill="#2E232B"/>
<path d="M356.065 372.085L352.715 373.353L406.208 393.411L409.557 392.142L356.065 372.085Z" fill="#614C63"/>
<path d="M401.804 444.497L356.696 427.516V377.667L401.804 394.647V444.497Z" fill="#EEC02D"/>
<path d="M401.804 444.397L356.696 427.419V420.257L401.804 437.237V444.397" fill="#FAE658"/>
<path d="M361.388 426.865L361.87 427.044C362.369 427.234 362.532 427.066 362.532 426.752C362.532 426.413 362.296 426.139 361.894 425.988L361.388 425.798V426.865ZM361.388 425.344L361.766 425.486C362.206 425.651 362.383 425.511 362.383 425.242C362.383 424.876 362.133 424.699 361.807 424.575L361.388 424.421V425.344ZM361.918 424.148C362.49 424.365 363.01 424.735 363.01 425.414C363.01 425.75 362.82 425.913 362.546 425.954C362.927 426.191 363.184 426.555 363.184 427.005C363.184 427.668 362.726 427.848 361.883 427.53L360.455 426.994V426.58L360.625 426.628L360.774 426.539V424.168L360.482 424.041V423.609L361.918 424.148" fill="#453143"/>
<path d="M363.517 428.145V427.733L363.686 427.778L363.835 427.692V425.319L363.544 425.194V424.76L365.871 425.637V426.483L365.351 426.325V426.121L365.205 425.906L364.453 425.622V426.497L365.628 426.937V427.46L364.453 427.017V427.971L365.271 428.28L365.417 428.17V427.916L365.933 428.147V429.056L363.516 428.145" fill="#453143"/>
<path d="M367.306 428.203L368.25 428.558L367.792 426.931L367.779 426.926L367.306 428.203ZM367.304 426.621L366.981 426.467V426.056L368.146 426.492L369.187 429.831L369.474 429.953V430.389L368.167 429.897V429.481L368.358 429.539L368.483 429.433L368.375 429.076L367.182 428.626L367.03 429.017L367.335 429.151V429.582L366.163 429.142V428.728L366.329 428.775L366.482 428.692L367.304 426.621" fill="#453143"/>
<path d="M370.42 429.641C370.42 430.141 370.677 430.387 371.086 430.541C371.495 430.692 371.745 430.586 371.745 430.166V428.298L371.453 428.172V427.738L372.657 428.192V428.606L372.49 428.558L372.341 428.653V430.478C372.341 431.147 371.838 431.343 371.065 431.054C370.23 430.74 369.803 430.24 369.803 429.442V427.568L369.508 427.439V427.005L370.739 427.471V427.882L370.573 427.835L370.42 427.948V429.641" fill="#453143"/>
<path d="M373.856 429.148L373.461 428.999L373.343 429.112V429.354L372.823 429.121V428.253L375.486 429.257V430.123L374.966 429.962V429.725L374.82 429.51L374.474 429.379V431.821L374.872 431.988V432.422L373.44 431.882V431.468L373.711 431.554L373.857 431.466V429.149" fill="#453143"/>
<path d="M376.037 429.915L375.75 429.788V429.356L376.981 429.82V430.231L376.814 430.184L376.665 430.292V432.646L376.956 432.77V433.204L375.722 432.741V432.327L375.892 432.374L376.037 432.264V429.915" fill="#453143"/>
<path d="M377.293 432.919L377.459 432.965L377.608 432.879V430.505L377.32 430.381V429.947L379.775 430.869V431.717L379.255 431.558V431.353L379.11 431.143L378.229 430.81V431.714L379.481 432.185V432.705L378.229 432.234V433.234L378.683 433.419V433.853L377.293 433.331V432.919" fill="#453143"/>
<path d="M380.906 433.588C380.906 434.088 381.166 434.334 381.575 434.488C381.981 434.64 382.23 434.533 382.23 434.113V432.246L381.939 432.119V431.685L383.146 432.139V432.553L382.976 432.505L382.827 432.6V434.425C382.827 435.094 382.328 435.293 381.551 435.001C380.719 434.687 380.292 434.187 380.292 433.389V431.515L379.997 431.386V430.955L381.225 431.418V431.83L381.058 431.782L380.906 431.895V433.588" fill="#453143"/>
<path d="M383.399 435.63V435.216L383.565 435.264L383.714 435.178V432.802L383.423 432.677V432.243L384.647 432.705V433.121L384.484 433.071L384.335 433.179V435.456L385.181 435.772L385.292 435.655V435.296L385.812 435.526V436.537L383.399 435.63" fill="#453143"/>
<path d="M397.182 404.337C396.71 404.16 396.291 404.194 396.02 404.389C395.736 403.993 395.32 403.65 394.852 403.462C394.325 402.546 393.402 401.719 392.348 401.323C390.826 400.749 389.571 401.278 389.408 402.501L393.257 403.95L395.292 404.717L395.712 404.875L396.36 405.121L398.652 405.983C398.538 405.322 397.924 404.617 397.182 404.337" fill="white"/>
<path d="M368.749 397.207C368.329 397.051 367.965 397.08 367.726 397.252C367.476 396.904 367.112 396.603 366.7 396.44C366.238 395.633 365.427 394.905 364.501 394.557C363.159 394.053 362.06 394.516 361.915 395.595L365.295 396.867L367.088 397.541L367.452 397.679L368.028 397.896L370.039 398.653C369.938 398.072 369.397 397.453 368.749 397.207" fill="white"/>
<path d="M384.29 395.011C383.652 394.772 383.09 394.817 382.723 395.079C382.338 394.546 381.776 394.084 381.148 393.833C380.441 392.592 379.189 391.478 377.768 390.942C375.712 390.169 374.019 390.881 373.797 392.531L378.995 394.489L381.745 395.524L382.307 395.735L383.187 396.067L386.273 397.231C386.121 396.338 385.292 395.387 384.29 395.011" fill="white"/>
<path d="M392.57 403.423C392.57 404.818 391.27 405.46 389.661 404.857C388.056 404.251 386.752 402.63 386.752 401.233C386.752 399.838 388.056 399.196 389.661 399.799C391.27 400.405 392.57 402.029 392.57 403.423Z" fill="#FAE658"/>
<path d="M393.031 406.026C392.591 405.861 392.199 405.872 391.915 406.017C391.547 405.359 390.889 404.769 390.136 404.487C389.671 404.308 389.242 404.281 388.895 404.374C388.364 403.514 387.487 402.753 386.488 402.377C385.504 402.007 384.63 402.104 384.096 402.551C383.756 402.208 383.336 401.925 382.879 401.753C381.835 401.36 380.968 401.699 380.809 402.511L383.569 403.548L384.945 404.066L388.07 405.242L389.411 405.746L391.492 406.53L392.203 406.797L394.574 407.69C394.422 407.014 393.787 406.311 393.031 406.026" fill="white"/>
<path d="M395.043 433.894L393.801 433.428V429.969L393.923 429.648C395.167 429.748 396.242 428.631 396.929 426.707C397.21 428.411 397.713 429.942 398.361 431.07L398.458 431.445C396.606 431.151 395.195 432.119 395.043 433.894V433.894ZM392.73 429.793C392.504 430.116 392.22 430.392 391.87 430.584L389.276 427.356C389.425 427.249 389.522 427.089 389.554 426.883L391.218 427.509C391.676 428.246 392.185 428.821 392.73 429.191V429.793ZM392.73 433.026L388.558 431.454C390.23 432.008 391.717 431.888 392.73 431.226V433.026ZM388.402 427.448L389.068 427.46L391.658 430.686C390.802 431.066 389.665 431.075 388.402 430.634V427.448ZM388.402 422.011C388.742 422.147 389.068 422.312 389.387 422.495C389.574 423.447 389.824 424.349 390.119 425.17L389.068 425.687L388.402 425.199V422.011ZM391.027 427.184L389.554 426.628C389.522 426.399 389.425 426.164 389.276 425.947L390.23 425.477C390.469 426.103 390.739 426.673 391.027 427.184ZM388.111 424.776L386.887 421.622C387.279 421.67 387.681 421.749 388.111 421.9V424.776ZM388.111 430.523C386.852 430.019 385.712 429.151 384.855 428.127L387.445 426.847L388.111 427.335V430.523ZM375.465 426.528C375.306 424.837 373.631 422.925 371.582 422.151C371.908 421.677 372.098 421.089 372.13 420.406L373.95 421.089C374.124 421.785 374.775 422.497 375.549 422.789L375.788 422.859L376.273 423.042L376.856 423.849C377.053 424.12 377.4 424.274 377.626 424.188C377.854 424.105 377.879 423.813 377.685 423.542L377.494 423.279C378.576 423.399 379.696 423.212 380.036 422.854L380.126 422.73C380.271 422.429 379.894 422.201 379.852 422.169L379.439 421.946L378.774 421.724L378.776 421.722L377.452 421.067L377.264 420.802L377.299 420.816L377.493 420.841C377.895 420.854 377.719 420.486 377.708 420.441L377.687 420.382L383.111 415.808L383.367 416.468C383.37 416.474 383.603 417.097 383.704 417.357L384.272 417.488L384.525 417.829L384.595 418.008L384.597 418.015L385.655 420.739C383.73 420.85 382.402 422.073 382.402 424.064C382.402 426.782 384.868 429.927 387.954 431.229L375.465 426.528ZM370.479 421.88L370.077 421.835C369.526 421.118 368.832 420.487 368.055 420.017L367.31 419.088L367.577 418.69L371.239 420.069C371.197 420.822 370.923 421.437 370.479 421.88V421.88ZM366.994 419.491L366.44 419.319V419.178L367.102 419.19L367.535 419.731L366.994 419.491ZM366.44 413.741C367.213 414.053 367.931 414.512 368.579 415.048L366.679 417.065L366.44 416.929V413.741ZM369.085 415.498C369.3 415.704 369.505 415.916 369.692 416.14L367.435 417.255L369.085 415.498ZM371.225 419.554L367.546 418.166L367.31 417.68L369.903 416.4C370.663 417.393 371.145 418.5 371.225 419.554H371.225ZM370.861 413.615L374.179 420.035C374.037 420.164 373.95 420.347 373.915 420.564L372.126 419.891C372.015 418.22 371.024 416.418 369.553 415.005L370.861 413.615ZM369.054 408.743L369.109 408.738L369.175 408.58L368.964 408.444L368.926 408.449L368.773 408.096L369.064 408.091C369.366 408.406 369.667 408.715 369.928 408.998C370.496 409.613 371.38 410.379 372.268 411.39C372.875 412.131 373.201 412.337 373.329 412.769C373.357 412.855 373.367 413.029 373.381 413.266L371.224 412.934L369.054 408.743ZM372.459 404.574L373.281 404.192L373.451 404.461C373.066 404.843 372.771 405.307 372.851 405.838C372.941 406.408 372.972 406.839 372.983 407.179L372.723 406.93C372.702 406.891 371.779 405.081 372.459 404.574H372.459ZM373.506 399.196C373.683 399.607 373.898 400.008 374.148 400.329C374.963 401.359 375.406 402.779 374.807 403.403C374.578 402.899 374.304 402.289 374.054 401.742L374.031 401.633C373.944 401.317 373.573 400.243 373.275 399.664L373.506 399.196ZM374.165 416.344L373.478 416.714L373.426 416.741L373.309 416.814L373.25 416.855L371.686 413.823L373.482 414.069C373.555 414.519 373.683 415.06 373.922 415.665C374.013 415.896 374.089 416.12 374.165 416.344L374.165 416.344ZM374.963 421.471L375.212 421.767L375.215 421.774H375.212L375.223 421.842L375.243 422.002L375.271 422.165L375.337 422.434C374.82 422.167 374.404 421.688 374.255 421.204L374.963 421.471ZM374.279 418.848L374.425 418.989L374.921 419.407L374.983 419.794L374.772 419.799L374.279 418.848ZM374.349 420.361L374.581 420.815L374.21 420.677L374.349 420.361ZM376.613 418.803C376.572 418.451 376.533 418.08 376.492 417.702L376.641 417.519L376.412 417.04L376.401 416.895C376.755 416.312 377.397 415.263 377.775 414.65L382.313 415.265L377.105 419.545L377.033 419.459H377.035C377.035 419.459 376.813 419.127 376.612 418.803L376.613 418.803ZM374.983 406.03C375.483 406.319 377.106 407.104 378.312 407.687L378.31 407.696L378.646 407.944L379.197 408.121L379.2 408.119L379.72 408.379C380.379 409.035 380.996 409.193 381.287 409.175L381.814 409.183L381.759 409.403L381.377 409.667L381.111 409.886L381.113 409.888C380.936 410.159 381.183 410.777 381.183 410.777L381.262 410.982H381.151L381.054 411.165L381.307 411.342H381.401L381.758 412.264L381.776 412.266L382.685 414.705L378.153 414.004C378.371 413.604 378.52 413.134 378.302 412.713C378.042 412.2 376.759 410.708 375.656 409.747L375.535 409.641L375.548 409.609L373.173 407.358C373.17 406.996 373.131 406.523 373.034 405.884C372.961 405.418 373.221 404.995 373.568 404.643C374.001 405.285 374.407 405.698 374.983 406.028L374.983 406.03ZM387.241 426.589L384.644 427.864C383.839 426.818 383.337 425.635 383.298 424.53L386.963 425.909C386.991 426.137 387.092 426.37 387.241 426.589V426.589ZM386.963 425.653L383.298 424.272C383.337 423.191 383.839 422.391 384.644 421.95L387.241 425.179C387.092 425.285 386.991 425.445 386.963 425.653V425.653ZM387.234 424.81L384.855 421.848C385.192 421.701 385.576 421.627 385.986 421.595L387.234 424.81ZM366.145 416.821L365.479 416.807L362.889 413.579C363.745 413.201 364.886 413.19 366.145 413.631V416.821ZM366.145 419.249C364.865 419 363.791 419.35 363.159 420.142L362.889 419.857L365.479 418.579L366.145 419.068V419.249ZM362.684 419.597C361.873 418.548 361.37 417.368 361.332 416.26L364.997 417.641C365.025 417.87 365.125 418.102 365.275 418.322L362.684 419.597ZM362.684 413.683L365.275 416.911C365.126 417.017 365.025 417.178 364.997 417.384L361.332 416.002C361.37 414.924 361.873 414.121 362.684 413.683V413.683ZM401.804 432.567V419C401.315 418.231 400.757 417.686 400.164 417.463C399.145 417.081 398.233 417.72 397.602 419.038C397.133 414.576 395.407 410.737 393.337 409.957L393.264 409.934C390.871 409.121 388.947 412.74 388.947 418.089C388.947 419.296 389.051 420.488 389.231 421.622C388.912 421.455 388.59 421.304 388.257 421.179C387.667 420.958 387.095 420.82 386.551 420.761L385.427 417.861C385.427 417.861 385.285 417.454 385.153 417.144C385.049 416.893 384.748 416.66 384.297 416.556L382.646 412.213L382.626 412.212L382.289 411.33L382.366 411.328L382.463 411.147L382.21 410.969L382.15 410.97L382.033 410.665L382.064 410.389C382.206 410.17 382.591 410.098 382.692 409.863L382.726 409.682L382.965 409.901L383.26 409.175C383.281 408.99 383.055 408.556 382.716 408.357C382.379 408.158 381.873 408.002 381.474 407.889C381.083 407.781 379.796 407.48 379.796 407.48L379.494 407.276L379.502 407.258L379.325 406.991L379.024 406.851L378.608 406.677L375.262 404.421C375.262 404.421 375.112 404.091 374.901 403.618C375.65 402.981 375.175 401.396 374.284 400.266C374.013 399.922 373.788 399.47 373.601 399.007L373.781 398.647V398.635L374.502 398.922C375.019 398.931 375.643 397.986 375.223 396.777C375.511 396.732 375.733 396.596 375.823 396.313C375.535 395.728 375.015 395.255 374.665 394.98L374.668 394.981L374.46 394.638L374.217 394.357C374.016 394.19 373.565 393.932 373.166 393.968L372.757 393.813L372.22 393.69L372.019 393.485L371.824 393.037C371.391 392.567 370.885 392.149 369.869 392.3C368.849 392.454 367.854 393.39 367.109 393.037C366.304 392.662 366.027 391.755 366.027 391.755C366.027 391.755 365.611 392.843 366.197 393.6C366.935 394.55 367.982 395.131 369.248 394.979C369.754 394.918 370.41 394.409 371.034 394.337L371.065 394.4C370.874 394.934 371.055 395.813 371.377 396.286C371.828 396.944 371.96 397.147 372.185 397.579C372.098 397.78 371.956 398.038 371.717 398.246C371.717 398.246 370.576 398.698 369.525 400.167C368.7 401.329 367.969 403.592 367.695 404.499L367.587 404.863L367.577 404.892L367.585 404.897C367.519 405.205 367.488 405.553 367.529 405.958L367.748 406.5C366.915 406.285 365.993 406.071 365.237 405.992C364.915 405.958 364.911 406.2 364.956 406.392L365.033 406.616C365.033 406.616 365.778 406.851 366.284 407.115C366.6 407.28 367.092 407.631 367.411 407.863L367.845 408.035L368.119 408.517L368.053 408.677L368.264 408.813L368.372 408.805L370.532 412.973L369.044 414.551C368.226 413.857 367.29 413.288 366.295 412.912C363.066 411.698 360.442 412.991 360.442 415.797C360.442 417.463 361.374 419.29 362.803 420.759C362.685 421.035 362.609 421.338 362.577 421.675L356.78 419.514V420.309L401.805 437.233V433.18L401.77 433.198L401.378 432.847L401.805 432.567" fill="#453143"/>
<path d="M167.401 113.927L149.35 107.267V194.267L167.401 200.95V113.927Z" fill="#467CBE"/>
<path d="M157.138 114.701L154.378 113.681V191.122L163.597 194.536V192.314L157.138 189.922V114.701Z" fill="#376EAB"/>
<path d="M157.138 114.701V189.922L163.598 192.314V117.083L157.138 114.701Z" fill="#FAE658"/>
<path d="M167.401 113.927L172.429 111.999V198.947L167.401 200.95V113.927Z" fill="#376EAB"/>
<path d="M172.429 111.999L167.401 113.927L149.35 107.267L154.457 105.366L172.429 111.999Z" fill="#7DA0D8"/>
<path d="M397.061 201.608L379.009 194.95V281.945L397.061 288.63V201.608" fill="#467CBE"/>
<path d="M386.8 202.381L384.04 201.364V278.803L393.257 282.219V279.996L386.8 277.605V202.381Z" fill="#376EAB"/>
<path d="M386.8 202.381V277.605L393.257 279.996V204.764L386.8 202.381Z" fill="#FAE658"/>
<path d="M397.061 201.608L402.092 199.679V286.627L397.061 288.63V201.608" fill="#376EAB"/>
<path d="M402.092 199.679L397.061 201.608L379.009 194.95L384.117 193.046L402.092 199.679Z" fill="#7DA0D8"/>
<path d="M493.386 201.608L511.438 194.95V281.945L493.386 288.63V201.608" fill="#7DA0D8"/>
<path d="M503.65 202.381L506.41 201.364V278.803L497.19 282.219V279.996L503.65 277.605V202.381Z" fill="#376EAB"/>
<path d="M503.65 202.381V277.605L497.19 279.996V204.764L503.65 202.381Z" fill="#FAE658"/>
<path d="M493.386 201.608L488.358 199.679V286.627L493.386 288.63V201.608" fill="#376EAB"/>
<path d="M488.358 199.679L493.386 201.608L511.438 194.95L506.327 193.046L488.358 199.679Z" fill="#A3C4EA"/>
<path d="M573.821 170.609L591.872 163.951V250.948L573.821 257.633V170.609" fill="#7DA0D8"/>
<path d="M584.084 171.382L586.844 170.364V247.804L577.624 251.22V248.997L584.084 246.605V171.382" fill="#376EAB"/>
<path d="M584.084 171.382V246.605L577.624 248.997V173.765L584.084 171.382Z" fill="#FAE658"/>
<path d="M573.821 170.609L568.793 168.68V255.628L573.821 257.633V170.609Z" fill="#376EAB"/>
<path d="M568.793 168.68L573.821 170.609L591.872 163.951L586.765 162.047L568.793 168.68" fill="#A3C4EA"/>
<path d="M492.443 129.289L530.783 143.93L556.556 134.493L517.911 119.729L492.443 129.289" fill="#6A95CC"/>
<path d="M530.783 136.596H529.042V141.14L530.783 141.825V136.596Z" fill="#614C63"/>
<path d="M530.783 136.596L550.79 130.291V134.835L530.783 141.825V136.596Z" fill="#453143"/>
<path d="M499.832 125.046H498.088V129.59L499.832 130.277V125.046Z" fill="#614C63"/>
<path d="M499.832 125.046L519.836 118.74V123.285L499.832 130.277V125.046Z" fill="#453143"/>
<path d="M496.521 104.823V125.319L532.506 138.922V118.383L496.521 104.823Z" fill="#C3B2C2"/>
<path d="M532.506 118.383V138.922L552.087 131.652V111.199L532.506 118.383Z" fill="#A493A3"/>
<path d="M496.521 104.823L532.506 118.383L552.087 111.199L515.8 97.5122L496.521 104.823" fill="white"/>
<path d="M511.198 122.242C511.358 126.364 515.359 130.718 520.131 131.97C524.902 133.221 528.636 130.894 528.473 126.773C528.31 122.654 524.309 118.297 519.541 117.047C514.77 115.795 511.036 118.121 511.198 122.242" fill="#453143"/>
<path d="M514.191 123.029C514.295 125.719 516.909 128.566 520.027 129.384C523.147 130.202 525.585 128.681 525.481 125.988C525.37 123.296 522.762 120.45 519.642 119.634C516.525 118.815 514.083 120.334 514.191 123.029" fill="#614C63"/>
<path d="M437.994 150.393L476.333 165.034L502.103 155.6L463.462 140.835L437.994 150.393" fill="#6A95CC"/>
<path d="M476.333 157.702H474.593V162.246L476.333 162.931V157.702Z" fill="#614C63"/>
<path d="M476.333 157.702L496.333 151.397V155.941L476.333 162.931V157.702Z" fill="#453143"/>
<path d="M445.379 146.152H443.639V150.696L445.379 151.381V146.152" fill="#614C63"/>
<path d="M445.379 146.152L465.387 139.844V144.391L445.379 151.381V146.152Z" fill="#453143"/>
<path d="M442.072 125.927V146.425L478.057 160.028V139.49L442.072 125.927" fill="#C3B2C2"/>
<path d="M478.057 139.49V160.028L497.634 152.758V132.305L478.057 139.49Z" fill="#A493A3"/>
<path d="M442.072 125.927L478.057 139.49L497.634 132.305L461.347 118.618L442.072 125.927Z" fill="white"/>
<path d="M456.746 143.349C456.909 147.47 460.91 151.824 465.681 153.074C470.452 154.327 474.187 151.998 474.02 147.879C473.857 143.758 469.86 139.404 465.088 138.151C460.321 136.901 456.586 139.227 456.746 143.349Z" fill="#453143"/>
<path d="M459.742 144.133C459.846 146.826 462.46 149.672 465.574 150.49C468.694 151.306 471.136 149.787 471.032 147.095C470.92 144.402 468.306 141.556 465.192 140.737C462.075 139.919 459.631 141.441 459.742 144.133Z" fill="#614C63"/>
<path d="M347.802 164.328L444.811 200.837L622.042 134.211V124.478L444.811 191.043L347.802 154.11V164.328Z" fill="#F24F65"/>
<path d="M347.802 154.11L356.238 150.967L444.811 183.671L612.018 120.698L622.042 124.478L444.811 191.043L347.802 154.11Z" fill="#F797A8"/>
<path d="M166.525 242.533C162.7 241.095 160.79 242.816 160.79 246.91C160.79 251.167 162.368 254.391 166.581 255.894C167.434 256.215 168.221 256.432 168.796 256.484C169.344 256.529 169.434 256.346 169.434 255.831V253.663L172.531 255.017V259.706C170.863 259.864 168.463 259.287 166.525 258.557C160.363 256.24 157 251.881 157 245.7C157 238.622 161.851 238.091 166.525 239.85C168.311 240.523 170.405 241.665 172.226 243.107V247.717L169.133 246.743V244.627C169.133 244.111 169.039 243.86 168.495 243.492C167.916 243.112 167.128 242.762 166.525 242.533" fill="#C8252E"/>
<path d="M182.879 249.036L181.153 248.304V246L188.493 248.763V250.96L187.491 250.664C186.974 250.524 186.61 250.549 186.61 251.2V263.699L188.341 264.432V266.735L181 263.973V261.778L181.999 262.072C182.578 262.234 182.879 262.187 182.879 261.509V249.036" fill="#C8252E"/>
<path d="M197 266.778L198.089 267.105C198.605 267.273 198.879 267.185 198.879 266.642V254.036L197.149 253.304V251L202.61 253.055L211.196 268.731L211.255 268.754V258.693L209.254 257.859V255.555L216.654 258.341V260.538L215.561 260.206C215.107 260.063 214.837 260.204 214.837 260.773V275.685L211.286 274.351L202.52 258.415L202.458 258.393V268.643L204.431 269.463V271.769L197 268.973V266.778" fill="#C8252E"/>
<path d="M225 278.975V276.778L225.999 277.074C226.515 277.214 226.879 277.187 226.879 276.644V264.038L225.149 263.304V261L239.043 266.229V270.732L235.95 269.756V268.671C235.95 268.155 235.888 267.809 235.069 267.5L230.579 265.811V270.448L237.587 273.084V275.849L230.579 273.212V278.281L235.461 280.119C236.252 280.417 236.314 280.114 236.314 279.572V278.218L239.407 279.572V284.396L225 278.975" fill="#C8252E"/>
<path d="M260.074 287.492L260.133 287.515L265.32 277.212L271.326 279.473V281.668L270.323 281.374C269.779 281.223 269.415 281.248 269.446 281.992L270.202 294.695L272.081 295.484V297.79L264.772 295.036V292.841L265.864 293.171C266.35 293.327 266.686 293.291 266.651 292.762L266.076 282.975L266.017 282.952L261.346 292.011L258.461 290.926L253.853 278.481L253.794 278.458L253.187 288.29L255.157 289.113V291.417L248 288.722V286.527L249.089 286.857C249.515 286.988 249.817 286.832 249.848 286.409L250.666 274.111L248.815 273.306V271L254.914 273.295L260.074 287.492" fill="#C8252E"/>
<path d="M284.824 295.496L290.465 297.619L287.737 288.865L287.646 288.831L284.824 295.496ZM284.796 287.079L282.882 286.197V284L289.831 286.616L296.017 304.591L296.048 304.603L297.778 305.333V307.639L289.949 304.693V302.496L291.103 302.848C291.741 303.034 292.043 302.986 291.832 302.308L291.194 300.389L284.096 297.716L283.187 299.76L285.008 300.527V302.83L278 300.194V297.998L279.002 298.292C279.519 298.433 279.699 298.31 279.911 297.874L284.796 287.079" fill="#C8252E"/>
</svg>
