<svg width="626" height="477" viewBox="0 0 626 477" fill="none" xmlns="http://www.w3.org/2000/svg">
<path d="M625.025 273.669L624.991 284.002L243.58 476.159L243.614 465.826L625.025 273.669Z" fill="#7A7B7C"/>
<path d="M243.614 465.826L243.58 476.159L0 353.248L0.0337147 342.915L243.614 465.826" fill="#5E6061"/>
<path d="M625.025 273.665L243.614 465.826L0.0336914 342.915L381.445 150.758L625.025 273.665Z" fill="#C9C8C6"/>
<path d="M427.41 315.035L428.044 314.717L428.021 321.12L427.389 321.438L427.408 315.035" fill="#381E16"/>
<path d="M427.415 313.768L428.047 313.451L428.045 313.858L427.413 314.176L427.415 313.768" fill="#572A1A"/>
<path d="M427.413 314.176L428.045 313.858L433.802 316.735L433.167 317.052L427.413 314.176Z" fill="#73361D"/>
<path d="M433.167 317.052L433.802 316.735L434.557 317.112L433.923 317.43L433.167 317.052Z" fill="#73361D"/>
<path d="M433.923 317.43L434.557 317.112L434.643 317.153L434.013 317.474L433.923 317.43" fill="#73361D"/>
<path d="M434.013 317.474L434.643 317.153L434.621 324.419L433.986 324.737L434.012 317.474" fill="#381E16"/>
<path d="M427.443 304.892L427.414 313.768L427.412 314.176L433.167 317.052L433.922 317.429L434.013 317.474L433.987 324.737L433.145 324.315L433.168 317.911L427.41 315.035L427.391 321.438L426.548 321.016L426.57 314.616L426.574 313.346L426.603 304.474L427.446 304.892" fill="#572A1A"/>
<path d="M427.443 304.892L428.077 304.575L428.048 313.451L427.416 313.768L427.445 304.892" fill="#381E16"/>
<path d="M426.601 304.474L427.235 304.156L428.077 304.575L427.443 304.892L426.601 304.474Z" fill="#73361D"/>
<path d="M399.848 323.534L399.385 323.302L399.381 322.103L399.845 322.335L399.848 323.534Z" fill="#381E16"/>
<path d="M399.845 322.335L399.381 322.103L426.53 308.535L426.992 308.766L399.845 322.335Z" fill="#73361D"/>
<path d="M426.992 308.766L426.998 309.965L399.849 323.534L399.846 322.335L426.993 308.766" fill="#381E16"/>
<path d="M399.848 321.498L399.385 321.266L399.381 320.067L399.845 320.299L399.848 321.498Z" fill="#381E16"/>
<path d="M399.845 320.299L399.381 320.067L426.53 306.499L426.992 306.73L399.845 320.299" fill="#73361D"/>
<path d="M426.992 306.73L426.998 307.929L399.849 321.498L399.846 320.299L426.993 306.73" fill="#381E16"/>
<path d="M399.848 325.372L399.385 325.14L399.381 323.941L399.845 324.173L399.848 325.372Z" fill="#381E16"/>
<path d="M399.845 324.173L399.381 323.941L426.53 310.373L426.992 310.604L399.845 324.173Z" fill="#73361D"/>
<path d="M426.992 310.604L426.998 311.803L399.849 325.372L399.846 324.173L426.993 310.604" fill="#381E16"/>
<path d="M399.848 327.21L399.385 326.974L399.381 325.779L399.845 326.011L399.848 327.21" fill="#381E16"/>
<path d="M399.845 326.011L399.381 325.779L426.53 312.207L426.992 312.442L399.845 326.011" fill="#73361D"/>
<path d="M426.992 312.442L426.998 313.641L399.849 327.21L399.846 326.011L426.993 312.442" fill="#381E16"/>
<path d="M400.752 328.013L400.755 328.633L401.952 329.235L401.95 328.614L400.752 328.013Z" fill="#572A1A"/>
<path d="M401.95 328.614L401.952 329.235L429.101 315.666L429.097 315.05L401.95 328.614" fill="#381E16"/>
<path d="M400.752 328.013L401.95 328.614L429.097 315.05L427.9 314.445L400.752 328.013" fill="#73361D"/>
<path d="M402.248 328.768L402.25 329.384L403.447 329.985L403.445 329.369L402.248 328.768Z" fill="#572A1A"/>
<path d="M403.445 329.369L403.447 329.986L430.596 316.417L430.594 315.801L403.445 329.369Z" fill="#381E16"/>
<path d="M402.248 328.768L403.445 329.369L430.594 315.801L429.396 315.199L402.248 328.768Z" fill="#73361D"/>
<path d="M403.744 329.519L403.745 330.139L404.944 330.74L404.941 330.12L403.744 329.519Z" fill="#572A1A"/>
<path d="M404.941 330.12L404.944 330.74L432.093 317.172L432.09 316.552L404.942 330.12" fill="#381E16"/>
<path d="M403.744 329.519L404.941 330.12L432.089 316.552L430.891 315.95L403.744 329.519Z" fill="#73361D"/>
<path d="M399.447 328.073L400.081 327.751L400.058 334.155L399.426 334.472L399.445 328.073" fill="#381E16"/>
<path d="M399.452 326.803L400.084 326.485L400.082 326.892L399.45 327.21L399.452 326.803" fill="#572A1A"/>
<path d="M399.45 327.21L400.082 326.892L405.839 329.769L405.207 330.086L399.45 327.21Z" fill="#73361D"/>
<path d="M405.207 330.086L405.839 329.769L406.593 330.146L405.959 330.464L405.207 330.086Z" fill="#73361D"/>
<path d="M405.959 330.464L406.593 330.146L406.682 330.191L406.048 330.508L405.959 330.464Z" fill="#73361D"/>
<path d="M406.048 330.508L406.682 330.191L406.659 337.453L406.025 337.771L406.048 330.508" fill="#381E16"/>
<path d="M399.48 317.93L399.451 326.803L399.449 327.21L405.206 330.086L405.958 330.464L406.047 330.508L406.025 337.771L405.182 337.352L405.205 330.949L399.448 328.073L399.428 334.472L398.585 334.054L398.608 327.651L398.611 326.384L398.64 317.508L399.483 317.93" fill="#572A1A"/>
<path d="M399.48 317.93L400.114 317.613L400.085 326.485L399.453 326.803L399.482 317.93" fill="#381E16"/>
<path d="M398.637 317.508L399.271 317.19L400.114 317.613L399.48 317.93L398.637 317.508" fill="#73361D"/>
<path d="M522.528 268.211L523.162 267.893L523.14 274.296L522.505 274.614L522.528 268.211" fill="#381E16"/>
<path d="M522.532 266.944L523.167 266.627V267.034L522.532 267.351V266.944" fill="#572A1A"/>
<path d="M522.532 267.351L523.167 267.034L528.924 269.91L528.289 270.228L522.532 267.351Z" fill="#73361D"/>
<path d="M528.289 270.228L528.924 269.91L529.675 270.288L529.04 270.605L528.289 270.228Z" fill="#73361D"/>
<path d="M529.04 270.605L529.674 270.288L529.765 270.332L529.131 270.65L529.04 270.605Z" fill="#73361D"/>
<path d="M529.131 270.65L529.765 270.333L529.739 277.595L529.109 277.912L529.132 270.65" fill="#381E16"/>
<path d="M522.563 258.072L522.534 266.944V267.351L528.29 270.228L529.041 270.605L529.132 270.65L529.109 277.912L528.263 277.49L528.286 271.091L522.529 268.211L522.507 274.614L521.665 274.195L521.688 267.792L521.691 266.526L521.72 257.65L522.562 258.072" fill="#572A1A"/>
<path d="M522.563 258.072L523.197 257.75L523.168 266.627L522.533 266.944L522.563 258.072Z" fill="#381E16"/>
<path d="M521.721 257.649L522.356 257.332L523.197 257.75L522.563 258.072L521.721 257.649Z" fill="#73361D"/>
<path d="M494.969 276.709L494.503 276.478L494.5 275.279L494.966 275.51L494.969 276.709Z" fill="#381E16"/>
<path d="M494.965 275.51L494.499 275.279L521.648 261.71L522.114 261.942L494.965 275.51Z" fill="#73361D"/>
<path d="M522.114 261.942V263.141L494.97 276.709L494.966 275.51L522.115 261.942" fill="#381E16"/>
<path d="M494.969 274.673L494.503 274.442L494.5 273.243L494.966 273.478L494.969 274.673" fill="#381E16"/>
<path d="M494.965 273.478L494.499 273.243L521.648 259.674L522.114 259.906L494.965 273.478" fill="#73361D"/>
<path d="M522.114 259.906V261.109L494.97 274.673L494.966 273.478L522.115 259.906" fill="#381E16"/>
<path d="M494.969 278.548L494.503 278.316L494.5 277.117L494.966 277.348L494.969 278.548Z" fill="#381E16"/>
<path d="M494.965 277.348L494.499 277.117L521.648 263.548L522.114 263.78L494.965 277.348Z" fill="#73361D"/>
<path d="M522.114 263.78V264.979L494.97 278.547L494.966 277.348L522.115 263.78" fill="#381E16"/>
<path d="M494.969 280.386L494.503 280.154L494.5 278.955L494.966 279.186L494.969 280.386Z" fill="#381E16"/>
<path d="M494.965 279.186L494.499 278.955L521.648 265.386L522.114 265.618L494.965 279.186Z" fill="#73361D"/>
<path d="M522.114 265.618V266.817L494.97 280.385L494.966 279.186L522.115 265.618" fill="#381E16"/>
<path d="M495.871 281.189L495.874 281.809L497.07 282.41V281.794L495.87 281.189" fill="#572A1A"/>
<path d="M497.071 281.794V282.41L524.22 268.842V268.226L497.071 281.794Z" fill="#381E16"/>
<path d="M495.871 281.189L497.071 281.794L524.22 268.225L523.02 267.62L495.871 281.189Z" fill="#73361D"/>
<path d="M497.369 281.943V282.56L498.568 283.161L498.565 282.545L497.37 281.943" fill="#572A1A"/>
<path d="M498.564 282.545L498.567 283.161L525.716 269.597L525.713 268.976L498.564 282.545Z" fill="#381E16"/>
<path d="M497.369 281.943L498.564 282.545L525.713 268.976L524.517 268.375L497.369 281.943" fill="#73361D"/>
<path d="M498.862 282.694L498.865 283.314L500.061 283.916V283.296L498.862 282.694Z" fill="#572A1A"/>
<path d="M500.062 283.296V283.916L527.21 270.347V269.727L500.062 283.296Z" fill="#381E16"/>
<path d="M498.862 282.694L500.062 283.296L527.21 269.727L526.011 269.126L498.862 282.694" fill="#73361D"/>
<path d="M494.568 281.248L495.198 280.927L495.176 287.33L494.545 287.648L494.568 281.248Z" fill="#381E16"/>
<path d="M494.572 279.982L495.202 279.661V280.068L494.568 280.385L494.571 279.982" fill="#572A1A"/>
<path d="M494.568 280.386L495.202 280.068L500.959 282.945L500.325 283.262L494.568 280.386Z" fill="#73361D"/>
<path d="M500.325 283.262L500.959 282.944L501.71 283.322L501.08 283.639L500.325 283.262Z" fill="#73361D"/>
<path d="M501.08 283.639L501.71 283.322L501.801 283.367L501.166 283.684L501.08 283.639" fill="#73361D"/>
<path d="M501.166 283.684L501.801 283.367L501.778 290.629L501.144 290.947L501.166 283.684Z" fill="#381E16"/>
<path d="M494.598 271.106L494.572 279.982L494.569 280.385L500.326 283.262L501.081 283.639L501.168 283.684L501.145 290.947L500.303 290.528L500.326 284.125L494.569 281.248L494.547 287.648L493.705 287.229L493.728 280.826V279.56L493.757 270.684L494.598 271.106" fill="#572A1A"/>
<path d="M494.598 271.106L495.233 270.788L495.204 279.661L494.573 279.982L494.599 271.106" fill="#381E16"/>
<path d="M493.757 270.684L494.391 270.366L495.233 270.788L494.598 271.106L493.757 270.684Z" fill="#73361D"/>
<path d="M483.918 163.941L483.853 189.434L458.305 176.669L458.374 151.172L483.917 163.941" fill="#577A2A"/>
<path d="M480.038 196.82L470.371 192.613V182.874H473.038V191.19L481.237 194.761L480.038 196.82" fill="#331D14"/>
<path d="M481.604 173.867L481.565 185.246L467.596 192.277L467.631 180.898L481.604 173.867" fill="#719F2C"/>
<path d="M467.631 180.898L467.596 192.277L453.536 185.25L453.575 173.871L467.631 180.898" fill="#577A2A"/>
<path d="M481.604 173.867L467.631 180.898L453.575 173.871L467.544 166.844L481.604 173.867Z" fill="#8DC025"/>
<path d="M203.92 445.795L243.614 465.826L625.025 273.082L592.296 256.723L203.92 445.795Z" fill="#F1F0ED"/>
<path d="M324.386 314.848L242.562 284.237L242.24 147.433L324.079 184.903L324.386 314.848Z" fill="#C9A076"/>
<path d="M324.079 184.903L242.24 147.433L406.237 65.4023L484.453 104.748L324.079 184.903" fill="#AC8965"/>
<path d="M484.453 104.748L484.776 241.552L324.386 314.848L324.079 184.903L484.453 104.748" fill="#F3DBBA"/>
<path d="M236.701 137.297L236.712 145.516L323.981 184.764L323.968 176.549L236.699 137.297" fill="#94B923"/>
<path d="M323.97 176.549L323.983 184.764L496.373 98.4454L496.36 90.2267L323.971 176.549" fill="#698228"/>
<path d="M236.701 137.297L323.97 176.549L496.355 90.2266L411.42 50.9747L236.701 137.297Z" fill="#A7D82D"/>
<path d="M488.656 90.2192L411.414 54.8339L244.399 137.305L323.976 172.687L488.656 90.2192" fill="#FAE8D2"/>
<path d="M488.656 90.2192L484.664 92.2141L411.456 58.8573V54.8563L488.656 90.2192" fill="#86A727"/>
<path d="M411.414 54.8339L411.455 54.8563V58.8573L248.192 139.214L244.399 137.305L411.414 54.8339Z" fill="#698228"/>
<path d="M323.45 173.053L249.674 139.274L249.384 82.5309L323.159 116.31L323.45 173.053" fill="#C9A076"/>
<path d="M323.159 116.31L249.384 82.5309L413.654 0L484.163 35.4713L323.159 116.31Z" fill="#FAE8D2"/>
<path d="M484.163 35.4713L484.452 92.2141L323.45 173.053L323.159 116.31L484.163 35.4713Z" fill="#F3DBBA"/>
<path d="M323.391 102.514L322.666 323.709L288.657 388.144L289.38 166.948L323.391 102.514" fill="#6B8528"/>
<path d="M289.38 166.948L288.657 388.144L160.253 405.415L160.977 184.219L289.38 166.948" fill="#647E28"/>
<path d="M160.977 184.219L160.253 405.415L65.8701 358.243L66.5947 137.047L160.977 184.219Z" fill="#495821"/>
<path d="M323.391 102.514L289.38 166.948L160.976 184.219L66.5947 137.047L100.616 72.605L229.01 55.3419L323.391 102.514Z" fill="#7E9E28"/>
<path d="M142.623 90.1333C113.747 104.568 113.747 128.051 142.623 142.487C171.501 156.918 218.486 156.918 247.365 142.487C276.24 128.051 276.24 104.568 247.363 90.137C218.486 75.7019 171.5 75.7019 142.623 90.1333V90.1333ZM251.004 144.306C220.12 159.742 169.868 159.742 138.983 144.306C108.099 128.866 108.099 103.75 138.983 88.3139C169.868 72.8814 220.118 72.8814 251.003 88.3176C281.887 103.754 281.887 128.869 251.004 144.306" fill="white"/>
<path d="M151.883 106.421L176.051 118.503L199.473 106.795L175.304 94.717L189.487 87.6265L252.38 119.063L238.198 126.15L211.883 112.996L188.462 124.704L214.776 137.858L200.499 144.993L137.606 113.56L151.883 106.421" fill="white"/>
<path d="M72.6365 150.944L96.3785 162.809L96.3768 192.572L72.6365 180.707V150.944Z" fill="#4F96A5"/>
<path d="M73.6364 181.208L72.6365 180.707V150.944L96.3785 162.809V163.788L73.6364 152.42V181.208Z" fill="#255368"/>
<path d="M101.533 164.763L125.274 176.628V206.391L101.533 194.526V164.763Z" fill="#4F96A5"/>
<path d="M125.274 176.628L101.533 164.763L125.274 176.628Z" fill="#222F1A"/>
<path d="M102.532 195.027L101.533 194.526V164.763L125.274 176.628V177.607L102.533 166.239L102.532 195.027" fill="#255368"/>
<path d="M130.471 178.757L154.21 190.622V220.385L130.469 208.52L130.471 178.757" fill="#4F96A5"/>
<path d="M131.469 209.021L130.469 208.52L131.469 209.021Z" fill="#222F1A"/>
<path d="M131.469 209.021L130.469 208.52L130.471 178.757L154.21 190.622V191.601L131.469 180.233V209.021" fill="#255368"/>
<path d="M72.6365 193.887L96.3785 205.752L96.3768 235.519L72.6365 223.654V193.887Z" fill="#4F96A5"/>
<path d="M73.6364 224.151L72.6365 223.654L73.6364 224.151ZM96.3785 206.731V205.752V206.731Z" fill="#222F1A"/>
<path d="M73.6364 224.151L72.6365 223.654V193.887L96.3785 205.752V206.731L73.6364 195.367V224.151Z" fill="#255368"/>
<path d="M101.533 207.706L125.274 219.571V249.337L101.533 237.473V207.706Z" fill="#4F96A5"/>
<path d="M125.274 219.571L101.533 207.706L125.274 219.571Z" fill="#222F1A"/>
<path d="M102.532 237.969L101.533 237.473V207.706L125.274 219.571V220.549L102.533 209.185L102.532 237.969Z" fill="#255368"/>
<path d="M130.471 221.7L154.21 233.565V263.332L130.469 251.467L130.471 221.7Z" fill="#4F96A5"/>
<path d="M131.469 251.964L130.469 251.467L130.471 221.7L154.21 233.565V234.544L131.469 223.179V251.964Z" fill="#255368"/>
<path d="M72.6365 236.834L96.3785 248.699L96.3768 278.465L72.6365 266.597V236.834Z" fill="#4F96A5"/>
<path d="M73.6364 267.097L72.6365 266.597V236.834L96.3785 248.699V249.677L73.6364 238.313V267.097Z" fill="#255368"/>
<path d="M101.533 250.652L125.274 262.517V292.284L101.533 280.415V250.652Z" fill="#4F96A5"/>
<path d="M102.532 280.916L101.533 280.415L102.532 280.916ZM125.274 262.517L101.533 250.652L125.274 262.517Z" fill="#222F1A"/>
<path d="M102.532 280.916L101.533 280.415V250.652L125.274 262.517V263.496L102.533 252.132L102.532 280.916Z" fill="#255368"/>
<path d="M130.471 264.647L154.21 276.511V306.278L130.469 294.41L130.471 264.647Z" fill="#4F96A5"/>
<path d="M131.469 294.91L130.469 294.41L130.471 264.647L154.21 276.511V277.49L131.469 266.126V294.91Z" fill="#255368"/>
<path d="M72.6365 279.78L96.3785 291.645L96.3768 321.408L72.6365 309.543V279.78Z" fill="#4F96A5"/>
<path d="M73.6364 310.044L72.6365 309.543L73.6364 310.044ZM96.3785 292.624V291.645V292.624Z" fill="#222F1A"/>
<path d="M73.6364 310.044L72.6365 309.543V279.78L96.3785 291.645V292.624L73.6364 281.256V310.044Z" fill="#255368"/>
<path d="M101.533 293.599L125.274 305.464V335.227L101.533 323.362V293.599Z" fill="#4F96A5"/>
<path d="M125.274 306.443V305.464L101.533 293.599L125.274 305.464V306.443Z" fill="#222F1A"/>
<path d="M102.532 323.863L101.533 323.362V293.599L125.274 305.464V306.443L102.533 295.075L102.532 323.863Z" fill="#255368"/>
<path d="M130.471 307.593L154.21 319.458V349.221L130.469 337.356L130.471 307.593Z" fill="#4F96A5"/>
<path d="M131.469 337.857L130.469 337.356L130.471 307.593L154.21 319.458V320.437L131.469 309.069V337.857Z" fill="#255368"/>
<path d="M72.6365 322.723L96.3785 334.588L96.3768 364.355L72.6365 352.49V322.723Z" fill="#4F96A5"/>
<path d="M73.6364 352.987L72.6365 352.49V322.723L96.3785 334.588V335.567L73.6364 324.203V352.987Z" fill="#255368"/>
<path d="M101.533 336.542L125.274 348.407V378.173L101.533 366.308V336.542" fill="#4F96A5"/>
<path d="M125.274 348.407L101.533 336.542L125.274 348.407Z" fill="#222F1A"/>
<path d="M102.532 366.809L101.533 366.308V336.542L125.274 348.407V349.385L102.533 338.021L102.532 366.809Z" fill="#255368"/>
<path d="M130.471 350.536L154.21 362.401V392.168L130.469 380.303L130.471 350.536Z" fill="#4F96A5"/>
<path d="M131.469 380.8L130.469 380.303L130.471 350.536L154.21 362.401V363.38L131.469 352.015V380.8Z" fill="#255368"/>
<path d="M400.335 93.757L380.128 103.855V129.187L400.335 119.089V93.757Z" fill="#2D344A"/>
<path d="M399.485 119.515L399.484 95.0159L380.128 104.688V103.855L400.335 93.757V119.089L399.485 119.515Z" fill="#151518"/>
<path d="M375.74 105.517L355.535 115.615V140.951L375.74 130.85V105.517" fill="#2D344A"/>
<path d="M374.891 131.275V106.776L355.535 116.448V115.615L375.74 105.517V130.85L374.891 131.275Z" fill="#151518"/>
<path d="M351.112 117.427L330.906 127.528V152.861L351.113 142.763L351.112 117.427" fill="#2D344A"/>
<path d="M350.262 143.189L351.113 142.763L350.262 143.189ZM330.906 128.362V127.528V128.362Z" fill="#2A2C36"/>
<path d="M350.262 143.189V118.686L330.906 128.362V127.528L351.112 117.427L351.113 142.763L350.262 143.185" fill="#151518"/>
<path d="M476.482 57.5759L456.277 67.6738V93.0061L476.482 82.9083V57.5759" fill="#2D344A"/>
<path d="M475.632 83.3304V58.8312L456.277 68.5068V67.6738L476.482 57.5759V82.9083L475.632 83.3304" fill="#151518"/>
<path d="M451.888 69.3362L431.683 79.434V104.766L451.888 94.6685V69.3362" fill="#2D344A"/>
<path d="M431.683 80.2671V79.434V80.2671ZM431.683 79.434L451.888 69.3362L431.683 79.434Z" fill="#2A2C36"/>
<path d="M451.038 95.0944V70.5951L431.683 80.2671V79.434L451.888 69.3362V94.6685L451.038 95.0944Z" fill="#151518"/>
<path d="M427.258 81.2458L407.053 91.3437V116.68L427.259 106.578L427.258 81.2458" fill="#2D344A"/>
<path d="M426.409 107.004V82.5048L407.053 92.1805V91.3437L427.258 81.2458L427.259 106.578L426.409 107.004" fill="#151518"/>
<path d="M203.308 189.401L203.236 219.149L177.42 222.623L177.493 192.871L203.308 189.401" fill="#80D0D7"/>
<path d="M177.491 193.667L177.493 192.871L177.491 193.667Z" fill="#346129"/>
<path d="M202.452 219.257L202.523 190.301L177.491 193.667L177.493 192.871L203.308 189.401L203.236 219.149L202.452 219.257" fill="#4A9FB7"/>
<path d="M238.651 185.358L238.577 215.11L212.761 218.581L212.834 188.833L238.651 185.358" fill="#80D0D7"/>
<path d="M237.793 215.215L237.862 186.259L212.832 189.625L212.834 188.833L238.651 185.358L238.577 215.11L237.793 215.215" fill="#4A9FB7"/>
<path d="M273.991 181.32L273.918 211.068L248.103 214.539L248.177 184.79L273.991 181.32" fill="#80D0D7"/>
<path d="M248.174 185.586L248.177 184.79L248.174 185.586ZM248.177 184.79L273.991 181.32L248.177 184.79Z" fill="#346129"/>
<path d="M273.135 211.173L273.205 182.22L248.174 185.586L248.177 184.79L273.991 181.32L273.918 211.068L273.135 211.173" fill="#4A9FB7"/>
<path d="M203.308 232.758L203.236 262.51L177.42 265.98L177.493 236.232L203.308 232.758Z" fill="#80D0D7"/>
<path d="M177.491 237.024L177.493 236.232L177.491 237.024Z" fill="#346129"/>
<path d="M202.452 262.614L202.523 233.658L177.491 237.024L177.493 236.232L203.308 232.758L203.236 262.51L202.452 262.614" fill="#4A9FB7"/>
<path d="M238.651 228.72L238.577 258.468L212.761 261.938L212.834 232.19L238.651 228.72" fill="#80D0D7"/>
<path d="M237.793 258.572L237.862 229.616L212.832 232.986L212.834 232.19L238.651 228.72L238.577 258.468L237.793 258.572" fill="#4A9FB7"/>
<path d="M273.991 224.677L273.918 254.426L248.103 257.9L248.177 228.148L273.991 224.677" fill="#80D0D7"/>
<path d="M248.174 228.944L248.177 228.148L248.174 228.944Z" fill="#346129"/>
<path d="M273.135 254.53L273.205 225.578L248.174 228.944L248.177 228.148L273.991 224.677L273.918 254.426L273.135 254.53" fill="#4A9FB7"/>
<path d="M203.308 276.119L203.236 305.867L177.42 309.338L177.493 279.59L203.308 276.119" fill="#80D0D7"/>
<path d="M177.491 280.385L177.493 279.59L177.491 280.385Z" fill="#346129"/>
<path d="M202.452 305.972L202.523 277.016L177.491 280.385L177.493 279.59L203.308 276.119L203.236 305.867L202.452 305.972" fill="#4A9FB7"/>
<path d="M238.651 272.077L238.577 301.825L212.761 305.299L212.834 275.548L238.651 272.077" fill="#80D0D7"/>
<path d="M237.793 301.93L237.862 272.977L212.832 276.343L212.834 275.548L238.651 272.077L238.577 301.825L237.793 301.93" fill="#4A9FB7"/>
<path d="M273.991 268.035L273.918 297.787L248.103 301.257L248.177 271.509L273.991 268.035" fill="#80D0D7"/>
<path d="M248.174 272.301L248.177 271.509L248.174 272.301Z" fill="#346129"/>
<path d="M273.135 297.891L273.205 268.935L248.174 272.301L248.177 271.509L273.991 268.035L273.918 297.787L273.135 297.891" fill="#4A9FB7"/>
<path d="M203.308 317.792L203.236 347.54L177.42 351.014L177.493 321.266L203.308 317.792Z" fill="#80D0D7"/>
<path d="M202.452 347.648L203.236 347.54L203.308 317.792L203.236 347.54L202.452 347.648ZM177.491 322.058L177.493 321.266L177.491 322.058Z" fill="#346129"/>
<path d="M202.452 347.648L202.523 318.692L177.491 322.058L177.493 321.266L203.308 317.792L203.236 347.54L202.452 347.648" fill="#4A9FB7"/>
<path d="M238.651 313.754L238.577 343.502L212.761 346.972L212.834 317.224L238.651 313.754" fill="#80D0D7"/>
<path d="M237.793 343.606L237.862 314.65L212.832 318.02L212.834 317.224L238.651 313.754L238.577 343.502L237.793 343.606" fill="#4A9FB7"/>
<path d="M273.991 309.711L273.918 339.459L248.103 342.934L248.177 313.182L273.991 309.711" fill="#80D0D7"/>
<path d="M248.174 313.978L248.177 313.182L248.174 313.978Z" fill="#346129"/>
<path d="M273.135 339.564L273.205 310.612L248.174 313.978L248.177 313.182L273.991 309.711L273.918 339.459L273.135 339.564" fill="#4A9FB7"/>
<path d="M203.345 361.149L203.271 390.901L177.456 394.372L177.528 364.624L203.345 361.149" fill="#80D0D7"/>
<path d="M202.486 391.006L202.556 362.05L177.528 365.419V364.624L203.345 361.149L203.271 390.901L202.486 391.006" fill="#4A9FB7"/>
<path d="M238.687 357.111L238.613 386.859L212.797 390.333L212.869 360.581L238.687 357.111" fill="#80D0D7"/>
<path d="M212.868 361.377L212.869 360.581L212.868 361.377ZM212.869 360.581L238.685 357.111L212.869 360.581Z" fill="#346129"/>
<path d="M237.827 386.964L237.897 358.011L212.868 361.377L212.869 360.581L238.687 357.111L238.613 386.859L237.827 386.964" fill="#4A9FB7"/>
<path d="M274.028 353.069L273.954 382.817L248.139 386.291L248.211 356.539L274.028 353.069" fill="#80D0D7"/>
<path d="M273.168 382.925L273.241 353.969L248.209 357.335L248.211 356.539L274.028 353.069L273.954 382.817L273.168 382.925" fill="#4A9FB7"/>
<path d="M312.677 161.031L312.271 190.981L299.372 209.69L299.778 179.736L312.677 161.031" fill="#4F96A5"/>
<path d="M311.372 192.285L312.271 190.981L312.677 161.031L312.271 190.981L311.372 192.285Z" fill="#34662B"/>
<path d="M311.372 192.285L311.755 164.247L299.752 181.652L299.779 179.736L312.677 161.031L312.27 190.981L311.372 192.285" fill="#33738C"/>
<path d="M312.869 204.194L312.461 234.144L299.56 252.849L299.968 222.899L312.869 204.194Z" fill="#4F96A5"/>
<path d="M311.563 235.448L311.945 207.411L299.943 224.812L299.968 222.899L312.869 204.194L312.461 234.144L311.563 235.448" fill="#33738C"/>
<path d="M313.059 247.357L312.651 277.307L299.752 296.012L300.16 266.062L313.059 247.357" fill="#4F96A5"/>
<path d="M311.755 278.611L312.136 250.57L300.133 267.975L300.16 266.062L313.059 247.357L312.652 277.307L311.755 278.611" fill="#33738C"/>
<path d="M313.25 290.517L312.842 320.47L299.943 339.175L300.351 309.222L313.25 290.517Z" fill="#4F96A5"/>
<path d="M311.945 321.77L312.842 320.47L313.25 290.517L312.842 320.47L311.945 321.77ZM300.324 311.138L300.351 309.222L300.326 311.138H300.324" fill="#34662B"/>
<path d="M311.945 321.77L312.326 293.733L300.326 311.138L300.351 309.222L313.25 290.517L312.842 320.47L311.945 321.77" fill="#33738C"/>
<path d="M357.066 177.547L357.126 245.161L342.101 252.815L342.043 185.201L357.066 177.547" fill="#2D344A"/>
<path d="M355.601 245.938L357.126 245.161L355.601 245.938ZM342.042 186.703V185.201V186.703Z" fill="#2A2C36"/>
<path d="M355.601 245.938L355.542 179.826L342.042 186.703V185.201L357.066 177.547L357.126 245.161L355.601 245.938" fill="#151518"/>
<path d="M384.555 164.55L384.616 232.164L369.589 239.819L369.53 172.205L384.555 164.55" fill="#2D344A"/>
<path d="M383.088 232.941L383.029 166.829L369.53 173.706V172.205L384.555 164.55L384.615 232.164L383.088 232.941" fill="#151518"/>
<path d="M412.043 151.553L412.103 219.167L397.078 226.822L397.016 159.208L412.043 151.553" fill="#2D344A"/>
<path d="M397.017 160.71L397.016 159.208L397.017 160.71Z" fill="#2A2C36"/>
<path d="M410.576 219.944L410.517 153.832L397.017 160.71L397.016 159.208L412.043 151.553L412.103 219.167L410.576 219.944" fill="#151518"/>
<path d="M439.528 138.553L439.589 206.167L424.564 213.825L424.506 146.211L439.529 138.553" fill="#2D344A"/>
<path d="M438.065 206.947L439.589 206.167L438.065 206.947ZM439.589 206.167L439.528 138.553L439.589 206.167Z" fill="#2A2C36"/>
<path d="M438.066 206.947L438.005 140.835L424.507 147.713L424.505 146.211L439.528 138.556L439.589 206.167L438.066 206.947" fill="#151518"/>
<path d="M467.018 125.556L467.078 193.17L452.052 200.825L451.991 133.211L467.018 125.556" fill="#2D344A"/>
<path d="M465.551 193.947L465.49 127.839L451.996 134.716L451.992 133.211L467.019 125.556L467.08 193.17L465.552 193.947" fill="#151518"/>
<path d="M362.261 285.929L344.664 294.723V270.646L362.259 261.852L362.261 285.929Z" fill="#FBEAD3"/>
<path d="M353.031 285.533L346.208 288.944V270.751L353.03 267.344L353.031 285.533" fill="#2D344A"/>
<path d="M360.717 281.693L353.893 285.104V266.911L360.717 263.503V281.693" fill="#2D344A"/>
<path d="M360.284 281.906V264.12L353.893 267.314V266.911L360.717 263.503V281.693L360.284 281.906Z" fill="#151518"/>
<path d="M352.6 285.746V267.964L346.208 271.158V270.751L353.03 267.344L353.031 285.533L352.6 285.746Z" fill="#151518"/>
<path d="M390.398 273.112L372.802 281.906V257.829L390.398 249.031V273.112Z" fill="#FBEAD3"/>
<path d="M381.168 272.716L374.346 276.127L374.344 257.937L381.168 254.526V272.716Z" fill="#2D344A"/>
<path d="M388.853 268.876L382.032 272.283L382.03 254.093L388.853 250.682V268.876Z" fill="#2D344A"/>
<path d="M388.422 269.088L388.853 268.876V250.682V268.876L388.422 269.088ZM382.03 254.496V254.093V254.496Z" fill="#2C303D"/>
<path d="M388.422 269.088V251.302L382.03 254.496V254.093L388.853 250.682V268.876L388.422 269.088Z" fill="#151518"/>
<path d="M380.739 272.929L381.168 272.716V254.526V272.716L380.739 272.929ZM374.344 258.341V257.937V258.341Z" fill="#2C303D"/>
<path d="M380.739 272.929V255.146L374.344 258.341V257.937L381.168 254.526V272.716L380.739 272.929Z" fill="#151518"/>
<path d="M418.536 260.294L400.938 269.088V245.011L418.534 236.217L418.536 260.294" fill="#FBEAD3"/>
<path d="M409.307 259.898L402.482 263.309V245.12L409.305 241.709L409.307 259.898Z" fill="#2D344A"/>
<path d="M416.992 256.058L410.168 259.465V241.276L416.99 237.869L416.992 256.058Z" fill="#2D344A"/>
<path d="M416.56 256.271V238.485L410.168 241.683V241.276L416.99 237.869L416.992 256.058L416.56 256.271Z" fill="#151518"/>
<path d="M408.875 260.111V242.325L402.482 245.523V245.12L409.305 241.709L409.307 259.898L408.875 260.111Z" fill="#151518"/>
<path d="M446.675 247.477L429.075 256.271V232.194L446.67 223.396L446.674 247.477" fill="#FBEAD3"/>
<path d="M437.444 247.081L430.619 250.492V232.302L437.444 228.891V247.081Z" fill="#2D344A"/>
<path d="M445.13 243.241L438.307 246.648L438.304 228.458L445.131 225.051V243.241" fill="#2D344A"/>
<path d="M444.698 243.454L445.13 243.241V225.051V243.241L444.698 243.454V243.454ZM438.303 228.862V228.458V228.862Z" fill="#2C303D"/>
<path d="M444.698 243.454V225.667L438.303 228.862V228.458L445.13 225.051V243.241L444.698 243.454" fill="#151518"/>
<path d="M437.013 247.294V229.508L430.619 232.706V232.302L437.444 228.891V247.081L437.013 247.294" fill="#151518"/>
<path d="M474.808 234.66L457.213 243.454V219.376L474.808 210.579V234.66Z" fill="#FBEAD3"/>
<path d="M465.581 234.264L458.758 237.674V219.485L465.581 216.074V234.264Z" fill="#2D344A"/>
<path d="M473.267 230.423L466.444 233.83V215.641L473.267 212.234V230.423Z" fill="#2D344A"/>
<path d="M472.835 230.636V212.85L466.444 216.044V215.641L473.267 212.234V230.423L472.835 230.636Z" fill="#151518"/>
<path d="M465.15 234.476V216.694L458.758 219.888V219.485L465.581 216.074V234.263L465.15 234.476Z" fill="#151518"/>
<path d="M339.993 102.484L337.274 101.116L337.244 91.8666L339.964 93.2377L339.993 102.484Z" fill="#495821"/>
<path d="M345.913 84.3204L343.194 82.9531L352.491 78.3058L355.209 79.6768L345.913 84.3204Z" fill="#6B8528"/>
<path d="M330.665 97.8813L327.946 96.514L327.927 90.5853L330.646 91.9526L330.665 97.8813Z" fill="#495821"/>
<path d="M330.647 91.9526L327.928 90.5853L337.223 85.938L339.942 87.3053L330.647 91.9526Z" fill="#6B8528"/>
<path d="M339.942 87.3053L337.223 85.938L337.194 76.6919L339.915 78.0592L339.944 87.3053" fill="#495821"/>
<path d="M339.913 78.0592L337.192 76.6919L343.163 73.707L345.884 75.0743L339.913 78.0592Z" fill="#6B8528"/>
<path d="M345.884 75.0743L345.913 84.3203L355.21 79.6768L355.23 85.6055L345.934 90.2528L345.964 99.4988L339.993 102.484L339.963 93.2377L330.667 97.8812L330.647 91.9525L339.942 87.3052L339.913 78.0592L345.884 75.0743Z" fill="#647E28"/>
<path d="M463.117 36.4164L460.398 35.0491L467.001 31.7504L469.719 33.1177L463.117 36.4164" fill="#495821"/>
<path d="M459.358 41.4373L456.639 40.07L456.587 23.5541L459.306 24.9214L459.358 41.4373Z" fill="#495821"/>
<path d="M459.306 24.9214L456.587 23.5541L460.355 21.6675L463.074 23.0386L459.306 24.9214Z" fill="#495821"/>
<path d="M463.074 23.0386L463.117 36.4164L469.719 33.1177L469.732 36.252L459.358 41.4373L459.306 24.9214L463.074 23.0386" fill="#647E28"/>
<path d="M453.101 44.5642L450.382 43.1969L449.087 39.5993L451.806 40.9666L453.101 44.5642Z" fill="#495821"/>
<path d="M447.585 40.2755L444.867 38.9082L448.535 37.0739L451.258 38.4412L447.585 40.2755Z" fill="#495821"/>
<path d="M451.258 38.4412L448.535 37.0739L447.49 34.0891L450.209 35.4563L451.258 38.4412Z" fill="#495821"/>
<path d="M449.363 32.6881L446.64 31.3208C446.891 32.1763 447.193 33.2559 447.491 34.089L450.209 35.4563C449.912 34.6232 449.609 33.5473 449.363 32.6881" fill="#495821"/>
<path d="M447.011 31.0668L444.293 29.6958L449.221 27.2339L451.94 28.6012L447.011 31.0668" fill="#495821"/>
<path d="M441.993 50.1193L439.27 48.752L444.293 29.6957L447.012 31.0668L441.993 50.1193" fill="#495821"/>
<path d="M447.586 40.2755L448.561 36.282C448.828 35.1911 449.07 33.8163 449.312 32.7143L449.364 32.6882C449.609 33.5475 449.912 34.6234 450.209 35.4565L451.258 38.4412L447.586 40.2755ZM451.94 28.6012L447.012 31.0631L441.993 50.1193L445.885 48.173L447.05 43.3426L451.806 40.9666L453.101 44.5642L457.144 42.5469L451.94 28.6012" fill="#647E28"/>
<path d="M434.673 53.7766L431.955 52.4093L431.912 39.0277L434.63 40.395L434.673 53.7766Z" fill="#495821"/>
<path d="M430.171 42.6253L427.452 41.2543L427.439 38.1199L430.16 39.4872L430.17 42.6253" fill="#495821"/>
<path d="M442.92 33.1102L442.933 36.2446L438.398 38.5122L438.445 51.8937L434.673 53.7766L434.63 40.395L430.171 42.6253L430.161 39.4872L442.921 33.1102" fill="#647E28"/>
<path d="M430.161 39.4873L427.44 38.12L440.202 31.7393L442.92 33.1103L430.161 39.4873Z" fill="#495821"/>
<path d="M424.45 58.8872L421.73 57.5161L421.676 41.0002L424.395 42.3675L424.45 58.8872" fill="#495821"/>
<path d="M424.396 42.3676L421.677 41.0003L425.446 39.1174L428.165 40.4847L424.396 42.3676Z" fill="#495821"/>
<path d="M428.165 40.4847L428.219 57.0006L424.45 58.8871L424.396 42.3675L428.165 40.4847Z" fill="#647E28"/>
<path d="M412.364 53.4852C411.823 53.7542 411.429 53.9261 411.107 54.012L413.827 55.383C414.148 55.2971 414.543 55.1215 415.083 54.8525L412.364 53.4852" fill="#495821"/>
<path d="M417.663 52.641L417.926 52.0769L418.098 51.7107C418.226 51.3297 418.303 50.9374 418.303 50.5452C418.3 49.8578 418.085 49.4058 417.675 49.2003L414.956 47.833C415.364 48.0385 415.581 48.4905 415.583 49.1742C415.585 49.5701 415.505 49.9624 415.377 50.3435L415.21 50.7021L414.822 51.4119L414.147 52.1815L413.788 52.5476C413.371 52.895 412.901 53.2163 412.365 53.4852L415.084 54.8525C415.622 54.5836 416.092 54.2623 416.508 53.9149L416.861 53.5562L417.543 52.7792L417.663 52.641" fill="#495821"/>
<path d="M417.177 46.0099L418.079 45.7223L418.537 45.6438L419.212 45.5504L419.614 45.5765L420.237 45.6512L417.516 44.2802L417.337 44.2354L416.894 44.2055L416.494 44.183L415.812 44.2764L415.36 44.3512L414.451 44.6425L414.011 44.7882C413.524 44.9788 413.001 45.2104 412.437 45.4943C410.146 46.6412 408.521 47.6013 407.363 48.3746L410.082 49.7419C411.24 48.9686 412.865 48.0085 415.157 46.8616C415.722 46.5814 416.243 46.3461 416.73 46.1555L417.177 46.0098" fill="#495821"/>
<path d="M410.082 49.7419L407.363 48.3746L407.417 64.6701L410.136 66.0374L410.082 49.7419" fill="#495821"/>
<path d="M415.083 54.8525C414.542 55.1215 414.148 55.297 413.827 55.383L413.811 50.504C414.083 50.2986 414.6 49.9623 415.364 49.585C417.237 48.6473 418.299 49.0247 418.304 50.5451C418.31 52.2337 417.08 53.855 415.084 54.8525H415.083ZM420.237 45.6513C419.124 45.3225 417.472 45.7073 415.157 46.8616C412.865 48.0085 411.24 48.9686 410.082 49.7419L410.136 66.0374L413.856 64.1807L413.837 58.2745C414.183 58.1512 414.626 57.9532 415.12 57.7066C417.336 56.5971 419.231 55.1103 420.509 53.2722C421.492 51.8452 422.028 50.2052 422.023 48.5876C422.017 46.97 421.3 45.9539 420.238 45.6513" fill="#647E28"/>
<path d="M394.223 67.4122L393.469 70.879L396.19 72.2501L396.943 68.7795L394.223 67.4122Z" fill="#495821"/>
<path d="M403.339 65.8918L403.383 65.7498C403.595 65.3725 403.742 64.9952 403.74 64.6216C403.738 64.1808 403.593 63.8931 403.27 63.7325L400.551 62.3615C400.875 62.5258 401.02 62.8135 401.021 63.2543C401.021 63.6241 400.875 64.0052 400.664 64.3825L400.487 64.6702L399.932 65.2828L399.636 65.563C399.281 65.8432 398.877 66.1159 398.39 66.3587C396.79 67.1582 395.235 67.4197 394.223 67.4122L396.943 68.7795C397.955 68.7907 399.509 68.5292 401.111 67.7298C401.597 67.4832 402.002 67.2142 402.356 66.9303L402.653 66.6501L403.207 66.0375L403.339 65.8918" fill="#495821"/>
<path d="M406.321 59.9183L403.602 58.551L402.889 58.3044H402.633C402.043 58.2073 401.375 58.1811 400.536 58.2932C399.925 58.3679 399.442 58.409 399.02 58.424L398.676 58.4091L397.86 58.2858L400.58 59.6531L400.875 59.754L401.397 59.7764L401.74 59.7913C402.159 59.7764 402.648 59.7352 403.255 59.6605C404.094 59.5484 404.76 59.5746 405.35 59.6717L406.321 59.9183Z" fill="#495821"/>
<path d="M404.162 50.3173C403.174 50.3696 401.793 50.6684 399.922 51.6024L402.641 52.9697C404.514 52.0357 405.895 51.7369 406.881 51.6846L404.162 50.3173Z" fill="#495821"/>
<path d="M396.77 59.0552L397.083 58.3977C397.318 57.8934 397.573 57.3891 397.928 56.896L398.189 56.5485C398.673 55.9284 399.241 55.3344 399.902 54.7778L400.234 54.5237C400.957 53.9522 401.746 53.4179 402.641 52.9696L399.922 51.6024C399.025 52.0506 398.236 52.5849 397.513 53.1564L397.183 53.4105C396.522 53.9634 395.955 54.5574 395.472 55.1775L395.207 55.5324L394.855 56.0031C394.641 56.3393 394.524 56.683 394.366 57.0267L394.05 57.6879C393.806 58.3753 393.653 59.0627 393.654 59.7165C393.661 60.9194 394.113 61.6778 394.912 62.0775L397.633 63.4448C396.832 63.0451 396.379 62.2867 396.375 61.0875C396.372 60.43 396.525 59.7426 396.77 59.0552" fill="#495821"/>
<path d="M403.255 59.6605C401.109 59.922 400.172 59.9257 400.168 58.8722C400.165 58.013 400.95 56.8848 402.577 56.0704C404.204 55.2597 405.387 55.1327 406.053 55.1215L406.881 51.6846C405.895 51.7369 404.514 52.0357 402.641 52.9697C398.723 54.9272 396.365 58.267 396.375 61.0875C396.382 63.4896 398.186 64.1061 400.949 63.6839C402.946 63.3963 403.737 63.5905 403.74 64.6216C403.743 65.7012 402.835 66.8668 401.111 67.7298C399.509 68.5292 397.955 68.7907 396.943 68.7795L396.19 72.2501C397.127 72.2949 399.002 71.8503 400.898 70.9014C405.456 68.6226 407.592 65.2006 407.582 62.4324C407.576 60.1013 406.191 59.2719 403.255 59.6605Z" fill="#647E28"/>
<path d="M389.096 72.4854C389.374 71.9998 389.584 71.4768 389.77 70.9276L390.038 70.173C390.25 69.3399 390.377 68.4769 390.376 67.5953C390.369 65.7797 389.828 64.3862 388.815 63.8782L386.096 62.5109C387.109 63.0189 387.65 64.4124 387.655 66.228C387.658 67.1059 387.528 67.9726 387.32 68.8057L387.051 69.5603C386.865 70.1057 386.654 70.6325 386.377 71.1144C386.163 71.4917 385.917 71.8391 385.651 72.1641L385.248 72.6573C384.783 73.128 384.268 73.5389 383.684 73.834C383.218 74.0657 382.797 74.1777 382.402 74.2263H382.062L381.145 74.0619L383.864 75.4329L384.321 75.5936H384.781H385.123C385.518 75.545 385.937 75.4329 386.403 75.2013C386.989 74.9062 387.501 74.4952 387.967 74.0245L388.373 73.5277L388.95 72.8216L389.096 72.4854" fill="#495821"/>
<path d="M389.266 59.0739L388.386 58.7639C387.158 58.4986 385.59 58.7639 383.71 59.7053L386.431 61.0726C388.309 60.1349 389.877 59.8659 391.107 60.1349L391.986 60.4412L389.266 59.0739Z" fill="#495821"/>
<path d="M389.266 59.0739C387.942 58.409 386.072 58.5248 383.71 59.7053C383.102 60.0079 382.52 60.359 381.967 60.7438L381.45 61.1622L380.401 62.0102L379.845 62.5968L379.031 63.4635L378.523 64.1621L377.896 65.025L377.871 65.0699L377.329 66.0598L376.925 66.8145C376.762 67.1694 376.641 67.5355 376.51 67.9016L376.228 68.645C376.107 69.0447 376.035 69.4482 375.95 69.8517L375.8 70.5166C375.704 71.1442 375.655 71.7719 375.657 72.3957C375.666 74.9136 376.498 76.7292 378.025 77.4988L380.746 78.8661C379.219 78.0965 378.386 76.2809 378.378 73.763C378.374 73.1391 378.425 72.5115 378.521 71.8839L378.654 71.2937C378.741 70.8641 378.819 70.4344 378.948 70.0123L379.231 69.2614C379.364 68.899 379.482 68.5367 379.644 68.1855L380.054 67.4197L380.59 66.4372L381.262 65.4995L381.748 64.8308L382.601 63.9267L383.12 63.3775L384.219 62.4884L384.686 62.1111C385.239 61.7263 385.821 61.3789 386.431 61.0726C388.793 59.8921 390.66 59.7762 391.985 60.4412L389.266 59.0739" fill="#495821"/>
<path d="M386.403 75.2013C383.889 76.4565 382.355 74.9398 382.343 71.7084C382.333 68.4956 383.803 65.3575 386.342 64.0874C388.928 62.7948 390.366 64.629 390.376 67.5953C390.386 70.8043 388.939 73.9311 386.403 75.2013ZM386.432 61.0726C381.528 63.5233 378.362 68.8131 378.379 73.763C378.395 78.4664 381.289 80.7265 386.216 78.2646C391.069 75.8401 394.36 70.9052 394.341 65.4883C394.328 60.9306 391.531 58.5248 386.432 61.0726" fill="#647E28"/>
<path d="M372.146 85.0264L369.427 83.6591L369.405 76.7479L372.126 78.1152L372.148 85.0264" fill="#495821"/>
<path d="M365.929 77.9471L363.21 76.5798L369.393 73.4866L372.114 74.8576L365.929 77.9471Z" fill="#495821"/>
<path d="M372.114 74.8577L369.393 73.4866L369.374 67.1395L372.093 68.5106L372.115 74.8577" fill="#495821"/>
<path d="M372.092 68.5105L369.373 67.1395L373.117 65.2679L375.838 66.6352L372.092 68.5105Z" fill="#495821"/>
<path d="M362.14 73.4829L359.419 72.1156L363.19 70.2327L365.909 71.6L362.14 73.4829Z" fill="#495821"/>
<path d="M362.194 90.0025L359.475 88.6314L359.419 72.1155L362.14 73.4828L362.194 90.0025" fill="#495821"/>
<path d="M375.838 66.6352L375.89 83.1548L372.146 85.0265L372.123 78.1153L365.938 81.2047L365.961 88.116L362.192 90.0025L362.138 73.4829L365.907 71.6001L365.926 77.9471L372.111 74.8577L372.089 68.5106L375.834 66.6352" fill="#647E28"/>
<path d="M299.466 436.549L287.797 430.583L276.064 436.582L287.733 442.548L299.466 436.549Z" fill="white"/>
<path d="M288.185 437.281L289.549 436.594L289.641 392.366L288.278 393.053L288.185 437.281Z" fill="#2A2928"/>
<path d="M286.701 392.265L286.608 436.493L288.185 437.281L288.278 393.053L286.701 392.265Z" fill="#333232"/>
<path d="M301.118 405.445L299.796 406.11L299.826 406.954L299.688 407.07L301.01 406.408L301.148 406.293L301.118 405.445Z" fill="#901B26"/>
<path d="M288.074 389.25L287.956 389.198C287.308 388.947 286.831 389.317 286.842 390.034L287.726 389.433L288.131 389.447L288.509 389.776L288.596 390.597L287.231 391.52L286.991 391.606L287.195 393.624C286.369 394.756 286.12 396.661 286.531 398.588C286.621 399.014 286.924 399.407 287.217 399.556L287.399 399.612C287.741 399.66 287.905 399.339 287.813 398.921C287.473 397.292 287.691 395.895 288.411 394.961L288.524 395.013C289.124 396.78 290.203 398.562 291.602 400.057L292.037 400.393L292.62 400.341C292.762 400.079 292.581 399.605 292.249 399.253C290.961 397.871 290.088 396.463 289.643 394.853L289.636 394.034L289.355 391.165C289.279 390.396 288.719 389.574 288.074 389.249" fill="#2A2D3A"/>
<path d="M299.11 406.21L300.432 405.545L289.373 383L288.052 383.665L299.11 406.21Z" fill="#8D9093"/>
<path d="M276.882 395.1L288.052 383.665L299.11 406.21L276.882 395.1ZM299.796 406.11L288.738 383.56L288.055 382.847L287.367 382.877L276.197 394.316L276.162 395.13L276.879 395.915L299.107 407.021L299.826 406.954L299.796 406.11" fill="#EC4A60"/>
<path d="M288.133 389.568L287.816 389.556L286.56 390.408L284.802 389.127L284.712 389.071L284.292 389.216L284.598 389.9L286.654 391.398L286.715 391.435L287.14 391.402L288.504 390.475L288.433 389.829L288.133 389.568" fill="#2A2D3A"/>
<path d="M288.82 389.743C289.173 390.165 289.422 390.703 289.474 391.215L289.49 391.379L289.822 391.731L289.542 391.918L289.662 393.109L290.83 392.467L290.86 392.444L290.938 392.336L290.943 392.325L290.958 392.257L290.961 392.227V392.171L290.956 392.119L290.951 392.078L290.929 392.007L290.921 391.977L290.882 391.887L290.875 391.876L290.742 391.682L290.736 391.673L290.719 391.651L288.82 389.742" fill="#2A2D3A"/>
<path d="M287.773 386.56L287.751 386.549C287.06 386.213 286.507 386.504 286.514 387.195C286.522 387.883 287.079 388.705 287.76 389.044L287.782 389.056C288.471 389.388 289.026 389.097 289.016 388.406C289.007 387.722 288.453 386.9 287.773 386.56Z" fill="#2A2D3A"/>
<path d="M292.035 400.394L291.602 400.058C290.203 398.563 289.124 396.781 288.524 395.014L288.409 394.962C287.691 395.896 287.473 397.293 287.813 398.922C287.903 399.34 287.741 399.662 287.399 399.613L287.217 399.557C286.924 399.408 286.621 399.015 286.531 398.589C286.12 396.662 286.369 394.756 287.195 393.625L286.991 391.607L287.231 391.521L288.596 390.598L288.509 389.777L288.139 389.455L287.726 389.433L286.842 390.034C286.831 389.317 287.308 388.947 287.956 389.198L288.074 389.25C288.719 389.575 289.279 390.397 289.355 391.167L289.636 394.036L289.643 394.854C290.088 396.464 290.961 397.872 292.249 399.255C292.581 399.606 292.761 400.08 292.62 400.342L292.035 400.394ZM284.291 389.216L284.712 389.071L284.802 389.127L286.56 390.408L287.816 389.556L288.133 389.568L288.433 389.829L288.503 390.475L287.14 391.402L286.715 391.435L286.653 391.398L284.598 389.9L284.291 389.216ZM287.752 386.549L287.774 386.56C288.451 386.9 289.006 387.722 289.016 388.406C289.026 389.097 288.471 389.388 287.782 389.056L287.76 389.045C287.077 388.705 286.523 387.883 286.514 387.195C286.508 386.504 287.06 386.213 287.752 386.549ZM290.735 391.675L290.742 391.683L290.875 391.877L290.882 391.888L290.921 391.978L290.929 392.008L290.951 392.079L290.956 392.12L290.961 392.172V392.228L290.958 392.258L290.942 392.326L290.937 392.337L290.858 392.445L290.83 392.468L289.661 393.11L289.541 391.919L289.82 391.732L289.489 391.38L289.474 391.216C289.422 390.704 289.172 390.166 288.82 389.744L290.718 391.653L290.735 391.675ZM288.052 383.665L276.882 395.1L299.11 406.21L288.052 383.665Z" fill="#E1E3E8"/>
<path d="M290.06 382.895L288.738 383.56L299.796 406.11L301.118 405.445L290.06 382.895Z" fill="#C83642"/>
<path d="M289.375 382.182L288.797 382.133L287.475 382.798L288.055 382.847L288.738 383.56L290.06 382.895L289.375 382.182" fill="#901B26"/>
<path d="M561.217 252.353L546.65 243.884L531.529 252.149L548.997 261.689L561.217 252.353" fill="#A0B22B"/>
<path d="M530.966 250.789L530.974 252.935L546.65 243.884L546.642 241.74L530.966 250.789" fill="#716D65"/>
<path d="M546.642 241.74L546.65 243.884L563.071 253.425L563.063 251.288L546.642 241.74Z" fill="#AAA193"/>
<path d="M546.889 263.195L546.894 265.329L567.613 253.367L567.607 251.231L546.889 263.195" fill="#BFBD9C"/>
<path d="M526.303 251.231V253.367L546.894 265.329L546.889 263.195L526.303 251.231Z" fill="#E5DDBF"/>
<path d="M547.386 260.337L563.063 251.288L546.642 241.74L530.966 250.789L547.386 260.337ZM567.607 251.231L546.889 263.195L526.303 251.231L547.018 239.261L567.607 251.231" fill="#F6F6E5"/>
<path d="M548.37 187.235L548.459 187.145L548.37 187.235ZM548.729 186.809L548.758 186.673L548.729 186.809ZM548.598 187.025L548.675 186.891L548.598 187.025ZM544.603 187.415L544.441 187.324V187.316L544.603 187.415ZM543.949 186.817V186.809L544.015 186.924L543.949 186.817ZM544.09 187.033L544.221 187.164L544.09 187.033ZM543.918 186.695L543.901 186.588V186.612L544.123 253.867L544.137 253.983L544.162 254.055L544.17 254.088L544.179 254.096L544.235 254.211L544.289 254.268L544.325 254.3L544.334 254.333L544.497 254.473L544.505 254.481L544.694 254.596L544.801 254.659L544.831 254.668C544.998 254.759 545.17 254.824 545.373 254.875L545.586 254.923L545.693 254.947L545.839 254.972L546.143 255.012L546.417 255.028H546.535H546.571H546.655L546.894 255.021L547.134 254.988L547.37 254.953L547.443 254.947L547.485 254.939L547.629 254.904L547.922 254.816C548.047 254.783 548.163 254.735 548.287 254.668C548.761 254.447 548.997 254.136 548.997 253.833L548.774 186.576V186.583C548.774 186.276 548.541 185.983 548.065 185.744C547.117 185.287 545.586 185.287 544.621 185.744C544.081 185.999 543.85 186.351 543.918 186.695" fill="#473021"/>
<path d="M522.997 200.391C522.997 213.873 533.914 224.788 547.398 224.788C560.863 224.788 571.789 213.873 571.789 200.391C571.789 186.924 560.863 176 547.398 176C533.914 176 522.997 186.924 522.997 200.391" fill="#849B26"/>
<path d="M569.191 189.443C565.679 191.596 560.089 193.003 553.789 193.003C543.161 193.003 534.558 189.045 534.558 184.179C534.558 180.493 539.478 177.333 546.461 176.021C546.773 176.016 547.081 176 547.398 176C556.923 176 565.182 181.475 569.191 189.443" fill="#A0B22B"/>
<path d="M523.143 200.391C523.143 193.968 525.639 188.121 529.697 183.769C529.679 192.629 531.469 206.16 542.342 208.243C558.699 211.352 567.542 201.657 563.989 211.329C562.663 214.977 561.225 218.676 559.151 221.851C555.707 223.724 551.749 224.788 547.55 224.788C534.069 224.788 523.143 213.873 523.143 200.391" fill="#7D8E26"/>
<path d="M378.217 348.353L363.65 339.884L348.529 348.149L365.997 357.689L378.217 348.353" fill="#A0B22B"/>
<path d="M347.966 346.789L347.974 348.935L363.65 339.884L363.642 337.74L347.966 346.789" fill="#716D65"/>
<path d="M363.642 337.74L363.65 339.884L380.071 349.425L380.063 347.288L363.642 337.74Z" fill="#AAA193"/>
<path d="M363.889 359.195L363.894 361.329L384.613 349.367L384.607 347.231L363.889 359.195" fill="#BFBD9C"/>
<path d="M343.303 347.231V349.367L363.894 361.329L363.889 359.195L343.303 347.231Z" fill="#E5DDBF"/>
<path d="M364.386 356.337L380.063 347.288L363.642 337.74L347.966 346.789L364.386 356.337ZM384.607 347.231L363.889 359.195L343.303 347.231L364.018 335.261L384.607 347.231" fill="#F6F6E5"/>
<path d="M365.37 283.235L365.459 283.145L365.37 283.235ZM365.729 282.809L365.758 282.673L365.729 282.809ZM365.598 283.025L365.675 282.891L365.598 283.025ZM361.603 283.415L361.441 283.324V283.316L361.603 283.415ZM360.949 282.817V282.809L361.015 282.924L360.949 282.817ZM361.09 283.033L361.221 283.164L361.09 283.033ZM360.918 282.695L360.901 282.588V282.612L361.123 349.867L361.137 349.983L361.162 350.055L361.17 350.088L361.179 350.096L361.235 350.211L361.289 350.268L361.325 350.3L361.334 350.333L361.497 350.473L361.505 350.481L361.694 350.596L361.801 350.659L361.831 350.668C361.998 350.759 362.17 350.824 362.373 350.875L362.586 350.923L362.693 350.947L362.839 350.972L363.143 351.012L363.417 351.028H363.535H363.571H363.655L363.894 351.021L364.134 350.988L364.37 350.953L364.443 350.947L364.485 350.939L364.629 350.904L364.922 350.816C365.047 350.783 365.163 350.735 365.287 350.668C365.761 350.447 365.997 350.136 365.997 349.833L365.774 282.576V282.583C365.774 282.276 365.541 281.983 365.065 281.744C364.117 281.287 362.586 281.287 361.621 281.744C361.081 281.999 360.85 282.351 360.918 282.695" fill="#473021"/>
<path d="M339.997 296.391C339.997 309.873 350.914 320.788 364.398 320.788C377.863 320.788 388.789 309.873 388.789 296.391C388.789 282.924 377.863 272 364.398 272C350.914 272 339.997 282.924 339.997 296.391" fill="#849B26"/>
<path d="M386.191 285.443C382.679 287.596 377.089 289.003 370.789 289.003C360.161 289.003 351.558 285.045 351.558 280.179C351.558 276.493 356.478 273.333 363.461 272.021C363.773 272.016 364.081 272 364.398 272C373.923 272 382.182 277.475 386.191 285.443" fill="#A0B22B"/>
<path d="M340.143 296.391C340.143 289.968 342.639 284.121 346.697 279.769C346.679 288.629 348.469 302.16 359.342 304.243C375.699 307.352 384.542 297.657 380.989 307.329C379.663 310.977 378.225 314.676 376.151 317.851C372.707 319.724 368.749 320.788 364.55 320.788C351.069 320.788 340.143 309.873 340.143 296.391" fill="#7D8E26"/>
<path d="M475.217 301.353L460.65 292.884L445.529 301.149L462.997 310.689L475.217 301.353" fill="#A0B22B"/>
<path d="M444.966 299.789L444.974 301.935L460.65 292.884L460.642 290.74L444.966 299.789" fill="#716D65"/>
<path d="M460.642 290.74L460.65 292.884L477.071 302.425L477.063 300.288L460.642 290.74Z" fill="#AAA193"/>
<path d="M460.889 312.195L460.894 314.329L481.613 302.367L481.607 300.231L460.889 312.195" fill="#BFBD9C"/>
<path d="M440.303 300.231V302.367L460.894 314.329L460.889 312.195L440.303 300.231Z" fill="#E5DDBF"/>
<path d="M461.386 309.337L477.063 300.288L460.642 290.74L444.966 299.789L461.386 309.337ZM481.607 300.231L460.889 312.195L440.303 300.231L461.018 288.261L481.607 300.231" fill="#F6F6E5"/>
<path d="M462.37 236.235L462.459 236.145L462.37 236.235ZM462.729 235.809L462.758 235.673L462.729 235.809ZM462.598 236.025L462.675 235.891L462.598 236.025ZM458.603 236.415L458.441 236.324V236.316L458.603 236.415ZM457.949 235.817V235.809L458.015 235.924L457.949 235.817ZM458.09 236.033L458.221 236.164L458.09 236.033ZM457.918 235.695L457.901 235.588V235.612L458.123 302.867L458.137 302.983L458.162 303.055L458.17 303.088L458.179 303.096L458.235 303.211L458.289 303.268L458.325 303.3L458.334 303.333L458.497 303.473L458.505 303.481L458.694 303.596L458.801 303.659L458.831 303.668C458.998 303.759 459.17 303.824 459.373 303.875L459.586 303.923L459.693 303.947L459.839 303.972L460.143 304.012L460.417 304.028H460.535H460.571H460.655L460.894 304.021L461.134 303.988L461.37 303.953L461.443 303.947L461.485 303.939L461.629 303.904L461.922 303.816C462.047 303.783 462.163 303.735 462.287 303.668C462.761 303.447 462.997 303.136 462.997 302.833L462.774 235.576V235.583C462.774 235.276 462.541 234.983 462.065 234.744C461.117 234.287 459.586 234.287 458.621 234.744C458.081 234.999 457.85 235.351 457.918 235.695" fill="#473021"/>
<path d="M436.997 249.391C436.997 262.873 447.914 273.788 461.398 273.788C474.863 273.788 485.789 262.873 485.789 249.391C485.789 235.924 474.863 225 461.398 225C447.914 225 436.997 235.924 436.997 249.391" fill="#849B26"/>
<path d="M483.191 238.443C479.679 240.596 474.089 242.003 467.789 242.003C457.161 242.003 448.558 238.045 448.558 233.179C448.558 229.493 453.478 226.333 460.461 225.021C460.773 225.016 461.081 225 461.398 225C470.923 225 479.182 230.475 483.191 238.443" fill="#A0B22B"/>
<path d="M437.143 249.391C437.143 242.968 439.639 237.121 443.697 232.769C443.679 241.629 445.469 255.16 456.342 257.243C472.699 260.352 481.542 250.657 477.989 260.329C476.663 263.977 475.225 267.676 473.151 270.851C469.707 272.724 465.749 273.788 461.55 273.788C448.069 273.788 437.143 262.873 437.143 249.391" fill="#7D8E26"/>
</svg>
