<svg width="688" height="444" viewBox="0 0 688 444" fill="none" xmlns="http://www.w3.org/2000/svg">
<path d="M241.784 298.099L467.965 149.287C469.775 148.096 472.142 147.44 474.628 147.44C477.127 147.44 479.505 148.103 481.322 149.304L500.92 162.263C502.042 163.007 503.656 163.433 505.345 163.433C507.033 163.433 508.644 163.007 509.767 162.265L539.911 142.347C540.712 141.818 541.068 141.262 541.066 140.946C541.063 140.63 540.699 140.08 539.891 139.567L329.555 5.89178C328.415 5.16748 326.78 4.75293 325.068 4.75293C323.343 4.75293 321.697 5.17304 320.549 5.90661L5.32482 207.598C4.47641 208.141 4.1696 208.687 4.1709 208.921C4.1709 209.155 4.48178 209.698 5.33377 210.232L106.724 273.86C109.837 275.814 114.868 279.044 117.942 281.062L356.461 437.607C357.578 438.342 359.182 438.762 360.861 438.762C362.561 438.762 364.184 438.332 365.313 437.582L492.549 353.103C493.355 352.567 493.714 351.992 493.713 351.658C493.712 351.324 493.348 350.751 492.538 350.223L467.778 334.082C466.654 333.349 465.042 332.929 463.355 332.929C461.65 332.929 460.022 333.357 458.889 334.102L375.034 389.274C373.225 390.463 370.86 391.119 368.376 391.119C365.875 391.119 363.496 390.456 361.679 389.252L241.77 309.857C239.603 308.424 238.363 306.279 238.366 303.973C238.369 301.667 239.615 299.526 241.784 298.099Z" fill="#B7D82A"/>
<path d="M236.12 303.968C236.116 307.212 237.764 310.165 240.641 312.07L360.55 391.464C362.705 392.892 365.485 393.678 368.376 393.678C371.248 393.678 374.012 392.901 376.157 391.489L460.013 336.318C460.802 335.799 462.052 335.488 463.355 335.488C464.644 335.488 465.88 335.793 466.663 336.303L490.24 351.674L364.183 435.371C363.398 435.892 362.156 436.203 360.861 436.203C359.583 436.203 358.357 435.899 357.581 435.39L119.063 278.843C115.97 276.814 110.921 273.573 107.807 271.619L7.87217 208.904L321.649 8.13801C322.458 7.62052 323.736 7.3117 325.069 7.3117C326.39 7.3117 327.658 7.61681 328.461 8.12688L537.503 140.98L508.641 160.052C507.862 160.566 506.63 160.873 505.345 160.873C504.06 160.873 502.826 160.565 502.047 160.05L482.45 147.091C480.295 145.665 477.518 144.881 474.628 144.881C471.754 144.881 468.989 145.659 466.843 147.071L240.661 295.882C237.78 297.778 236.124 300.725 236.12 303.968ZM242.907 300.315L469.088 151.503C470.613 150.501 472.619 149.999 474.628 149.999C476.645 150 478.665 150.506 480.195 151.517L499.793 164.478C501.32 165.487 503.332 165.992 505.345 165.992C507.356 165.992 509.367 165.488 510.893 164.48L541.038 144.561C544.091 142.544 544.066 139.29 540.984 137.332L330.649 3.6568C329.113 2.68117 327.091 2.19336 325.068 2.19336C323.032 2.19336 320.993 2.68766 319.45 3.67535L4.22528 205.367C1.14798 207.336 1.15946 210.534 4.251 212.475L105.641 276.103C108.731 278.043 113.763 281.272 116.821 283.279L355.339 439.826C356.86 440.823 358.86 441.321 360.861 441.321C362.885 441.321 364.911 440.811 366.444 439.794L493.679 355.314C496.729 353.29 496.717 349.999 493.653 348.002L468.894 331.86C467.369 330.867 465.363 330.371 463.355 330.371C461.329 330.371 459.302 330.875 457.766 331.886L373.911 387.056C372.388 388.059 370.383 388.56 368.376 388.56C366.357 388.56 364.337 388.052 362.807 387.039L242.898 307.645C239.847 305.624 239.851 302.326 242.907 300.315" fill="#A3BA29"/>
<path d="M241.93 309.541L361.839 388.936C363.61 390.107 365.931 390.753 368.376 390.753C370.805 390.753 373.113 390.115 374.874 388.957L458.729 333.785C459.909 333.009 461.595 332.564 463.355 332.564C465.096 332.564 466.766 333.002 467.937 333.765L492.698 349.906C493.532 350.45 494.032 351.105 494.033 351.656C494.036 352.208 493.541 352.868 492.71 353.418L365.475 437.898C364.298 438.679 362.616 439.127 360.861 439.127C359.127 439.127 357.466 438.689 356.3 437.924L117.782 281.378C114.711 279.362 109.68 276.133 106.569 274.181L5.17919 210.553C4.37334 210.047 3.85168 209.407 3.84973 208.923C3.8481 208.438 4.36537 207.793 5.16747 207.279L320.392 5.58853C321.585 4.82435 323.29 4.38661 325.068 4.38661C326.833 4.38661 328.525 4.81879 329.711 5.57277L540.047 139.248C540.869 139.77 541.382 140.42 541.386 140.943C541.391 141.466 540.887 142.125 540.071 142.663L509.928 162.582C508.758 163.355 507.087 163.798 505.345 163.798C503.601 163.798 501.929 163.354 500.759 162.58L481.161 149.621C479.392 148.45 477.072 147.806 474.628 147.806C472.197 147.806 469.888 148.444 468.125 149.604L241.944 298.415C239.877 299.776 238.689 301.801 238.686 303.973C238.684 306.145 239.866 308.174 241.93 309.541ZM243.869 302.215L470.051 153.404C471.22 152.635 472.888 152.193 474.628 152.193C476.378 152.193 478.055 152.638 479.229 153.415L498.826 166.374C500.592 167.543 502.907 168.185 505.345 168.185C507.78 168.185 510.094 167.544 511.859 166.377L542.003 146.458C544.073 145.09 545.252 143.067 545.236 140.906C545.22 138.746 544.012 136.745 541.922 135.416L331.586 1.74073C329.819 0.618575 327.504 0 325.068 0C322.614 0 320.285 0.625069 318.507 1.76207L3.28266 203.454C1.1883 204.794 -0.0079358 206.793 3.96268e-05 208.94C0.007364 211.087 1.21816 213.075 3.32172 214.396L104.712 278.024C107.805 279.965 112.806 283.175 115.86 285.18L354.379 441.726C356.136 442.879 358.438 443.515 360.861 443.515C363.312 443.515 365.64 442.866 367.413 441.689L494.649 357.21C496.712 355.839 497.891 353.809 497.884 351.639C497.875 349.47 496.682 347.45 494.61 346.097L469.848 329.957C468.088 328.809 465.782 328.176 463.355 328.176C460.904 328.176 458.578 328.819 456.804 329.986L372.949 385.157C371.781 385.925 370.114 386.366 368.376 386.366C366.626 386.366 364.948 385.92 363.773 385.142L243.864 305.748C243.032 305.196 242.536 304.536 242.536 303.979C242.537 303.423 243.035 302.763 243.869 302.215" fill="white"/>
<path d="M370.282 130.24L360.855 124.037L358.562 122.528L363.564 120.962L370.282 122.744V130.24ZM365.489 129.163L357.263 126.416L359.282 125.079L365.489 129.163V129.163ZM355.165 125.715L351.883 124.62L356.423 123.198L357.698 124.037L355.165 125.715ZM348.497 123.405L331.938 112.232L335.834 109.651L354.08 121.657L348.497 123.405ZM356.219 120.987L335.82 107.566L323.433 99.4166V98.9038L332.909 93.5045C332.956 93.5119 333.001 93.5156 333.047 93.5156C333.37 93.5156 333.673 93.3282 333.849 93.0222L370.282 118.006V120.492L363.763 118.762C363.691 118.744 363.618 118.734 363.545 118.734C363.459 118.734 363.373 118.747 363.289 118.773L356.219 120.987V120.987ZM330.37 111.175L319.432 103.795L322.261 101.922C322.291 101.925 322.321 101.927 322.351 101.927C322.616 101.927 322.869 101.801 323.05 101.584C323.122 101.522 323.187 101.449 323.241 101.366L334.247 108.608L330.37 111.175V111.175ZM317.868 102.74L308.522 96.4341L320.263 101.154L317.868 102.74V102.74ZM321.509 98.1498L308.948 89.8857L314.777 88.0615L321.509 90.0851V98.1498V98.1498ZM317.997 97.9161L302.803 91.8101L306.809 90.5562L317.997 97.9161Z" fill="#A0B229"/>
<path d="M504.528 146.955L484.181 133.577C484.183 133.575 484.184 133.571 484.186 133.568L504.536 146.953C504.533 146.954 504.531 146.954 504.529 146.956L504.528 146.955ZM509.96 144.849L487.209 129.89C490.139 127.563 494.521 126.083 499.418 126.083C501.324 126.083 503.151 126.308 504.845 126.718V140.274V140.276C504.845 141.111 506.097 141.789 507.641 141.789C509.187 141.789 510.438 141.111 510.438 140.276V140.274V129.044C513.489 130.995 515.389 133.748 515.389 136.8C515.389 140.007 513.288 142.885 509.96 144.849" fill="#949C27"/>
<path d="M497.57 108.872C497.476 109.463 497.429 110.067 497.432 110.67L497.445 113.605C497.468 118.934 501.291 123.248 505.966 123.221C507.182 123.214 508.356 122.92 509.452 122.348L508.525 120.044C507.719 120.465 506.853 120.682 505.955 120.687C502.505 120.706 499.685 117.525 499.669 113.592L499.655 110.657C499.655 110.212 499.689 109.765 499.758 109.33L497.57 108.872" fill="#462716"/>
<path d="M510.438 140.275V106.283H504.845V140.275C504.845 141.111 506.097 141.789 507.641 141.789C509.187 141.789 510.438 141.111 510.438 140.275" fill="#A13823"/>
<path d="M527.863 91.2611C527.863 77.5717 518.124 66.4753 506.112 66.4753C494.1 66.4753 484.363 77.5717 484.363 91.2611C484.363 104.951 494.1 116.047 506.112 116.047C518.124 116.047 527.863 104.951 527.863 91.2611Z" fill="#6BA62E"/>
<path d="M484.363 91.1999C484.363 91.1964 484.363 91.1937 484.363 91.1907C484.363 91.1935 484.363 91.1962 484.363 91.1999ZM484.363 91.1304C484.363 91.1276 484.363 91.1248 484.363 91.1211C484.363 91.1246 484.363 91.1274 484.363 91.1304ZM484.363 90.9987C484.363 90.9959 484.364 90.9931 484.364 90.9903C484.364 90.9931 484.363 90.9959 484.363 90.9987ZM484.364 90.93C484.364 90.9272 484.364 90.9245 484.364 90.9217C484.364 90.9245 484.364 90.9272 484.364 90.93ZM484.366 90.7974C484.366 90.7953 484.366 90.7925 484.366 90.79C484.366 90.7927 484.366 90.7948 484.366 90.7974ZM484.367 90.7288C484.367 90.7267 484.367 90.7253 484.367 90.7232C484.367 90.7253 484.367 90.7267 484.367 90.7288ZM484.37 90.5971C484.37 90.595 484.37 90.5922 484.37 90.5908C484.37 90.5929 484.37 90.5957 484.37 90.5971ZM484.371 90.5294C484.371 90.5273 484.372 90.5245 484.372 90.5231C484.372 90.5252 484.371 90.528 484.371 90.5294ZM484.376 90.3949C484.376 90.3942 484.376 90.3942 484.376 90.3928C484.376 90.3935 484.376 90.3935 484.376 90.3949ZM484.378 90.3281C484.378 90.3274 484.378 90.3274 484.378 90.326C484.378 90.326 484.378 90.3267 484.378 90.3281Z" fill="#556026"/>
<path d="M506.162 116.047C506.165 116.047 506.168 116.047 506.172 116.047C506.168 116.047 506.165 116.047 506.162 116.047ZM506.22 116.047C506.223 116.047 506.225 116.046 506.227 116.046C506.224 116.046 506.223 116.047 506.22 116.047ZM506.273 116.046C506.276 116.046 506.278 116.046 506.28 116.046C506.277 116.046 506.276 116.046 506.273 116.046ZM506.331 116.046C506.332 116.045 506.334 116.045 506.335 116.045C506.333 116.045 506.332 116.045 506.331 116.046Z" fill="#76521C"/>
<path d="M506.112 116.047C503.915 116.047 501.794 115.676 499.794 114.985C498.994 114.709 498.212 114.38 497.454 114.005C489.749 110.191 484.363 101.443 484.363 91.2611C484.363 91.2408 484.363 91.2203 484.363 91.1999C484.363 91.1964 484.363 91.1937 484.363 91.1907C484.363 91.1703 484.363 91.1498 484.363 91.1304C484.363 91.1276 484.363 91.1248 484.363 91.1211C484.363 91.0803 484.363 91.0395 484.363 90.9987C484.363 90.9959 484.364 90.9931 484.364 90.9903C484.364 90.9709 484.364 90.9505 484.364 90.9301C484.364 90.9273 484.364 90.9245 484.364 90.9217C484.365 90.88 484.366 90.8382 484.366 90.7974C484.366 90.7946 484.366 90.7926 484.366 90.79C484.366 90.7696 484.367 90.7492 484.367 90.7288C484.367 90.7267 484.367 90.7253 484.367 90.7232C484.368 90.6806 484.369 90.6397 484.369 90.5971C484.369 90.595 484.37 90.5922 484.37 90.5908C484.37 90.5705 484.371 90.55 484.371 90.5296C484.371 90.5275 484.371 90.5248 484.371 90.5234C484.372 90.4816 484.373 90.4371 484.374 90.3954C484.374 90.3947 484.374 90.3947 484.374 90.3933C484.375 90.3719 484.376 90.3497 484.377 90.3284C484.377 90.3277 484.377 90.3263 484.377 90.3263C484.736 79.305 491.41 70.1284 500.395 67.3462C494.864 71.8395 491.254 79.2049 491.253 87.5367C491.253 101.225 500.99 112.323 513.003 112.323C514.982 112.323 516.896 112.015 518.718 111.452C515.217 114.296 510.95 115.992 506.334 116.045C506.333 116.045 506.331 116.045 506.329 116.046C506.312 116.046 506.295 116.046 506.278 116.046C506.276 116.046 506.274 116.046 506.272 116.046C506.256 116.046 506.241 116.046 506.225 116.046C506.223 116.046 506.221 116.046 506.219 116.046C506.202 116.046 506.186 116.046 506.171 116.046C506.166 116.046 506.163 116.046 506.16 116.046C506.144 116.046 506.127 116.046 506.11 116.046" fill="#5C882D"/>
<path d="M532.173 86.6018C532.173 78.2737 526.248 71.5222 518.94 71.5222C511.631 71.5222 505.707 78.2737 505.707 86.6018C505.707 94.9308 511.631 101.682 518.94 101.682C526.248 101.682 532.173 94.9308 532.173 86.6018Z" fill="#6BA62E"/>
<path d="M503.371 91.3111C512.02 91.3111 519.031 83.3225 519.031 73.466C519.031 63.6124 512.02 55.6228 503.371 55.6228C494.723 55.6228 487.713 63.6124 487.713 73.466C487.713 83.3225 494.723 91.3111 503.371 91.3111" fill="#6BA62E"/>
<path d="M502.093 85.5844C502.093 78.6178 497.136 72.969 491.022 72.969C484.908 72.969 479.952 78.6178 479.952 85.5844C479.952 92.552 484.908 98.2008 491.022 98.2008C497.136 98.2008 502.093 92.552 502.093 85.5844Z" fill="#6BA62E"/>
<path d="M236.564 221.41C236.569 221.389 236.574 221.366 236.579 221.344L236.735 220.555L248.916 213.075L248.966 213.109L236.564 221.41V221.41ZM230.167 218.632L223.658 217.167L224.426 214.696L230.167 218.632ZM221.563 218.58L221.416 218.545L173.495 185.828L186.275 189.874C186.362 189.902 186.448 189.915 186.533 189.915C186.896 189.915 187.235 189.678 187.397 189.301L222.743 213.541L221.471 217.63C221.378 217.931 221.404 218.262 221.542 218.54C221.549 218.554 221.556 218.567 221.563 218.58L221.563 218.58ZM186.378 187.63L174.871 183.987L178.605 172.27L188.135 178.699L186.378 187.63V187.63ZM188.578 176.449L186.674 175.164L188.676 175.947L188.578 176.449Z" fill="#A0B229"/>
<path d="M601.217 239.912L517.128 295.236C516.322 295.766 515.962 296.335 515.963 296.663C515.963 296.992 516.325 297.559 517.133 298.086L541.678 314.086C542.823 314.832 544.469 315.26 546.193 315.26C547.885 315.26 549.5 314.847 550.626 314.124L682.679 229.547C683.525 229.006 683.831 228.468 683.829 228.239C683.829 228.009 683.517 227.477 682.665 226.949L658.108 211.721C655.008 209.798 649.945 206.707 646.821 204.83L588.152 169.569C587.054 168.909 585.486 168.531 583.853 168.531C582.032 168.531 580.299 168.984 579.1 169.777L548.294 190.133C547.43 190.704 547.123 191.276 547.122 191.591C547.122 191.908 547.428 192.479 548.292 193.052L601.234 228.15C603.399 229.585 604.638 231.731 604.635 234.037C604.632 236.343 603.385 238.485 601.217 239.912" fill="#B7D82A"/>
<path d="M606.881 234.041C606.886 230.798 605.239 227.844 602.363 225.938L550.56 191.594L580.227 171.991C581.069 171.434 582.458 171.09 583.854 171.09C585.115 171.09 586.33 171.367 587.105 171.833L645.774 207.094C648.889 208.965 653.94 212.049 657.034 213.968L680.094 228.268L549.526 311.894C548.737 312.399 547.492 312.701 546.193 312.701C544.869 312.701 543.597 312.388 542.794 311.865L519.463 296.656L602.34 242.128C605.221 240.233 606.876 237.284 606.881 234.041V234.041ZM600.094 237.695L516.005 293.02C512.949 295.031 512.955 298.31 516.018 300.307L540.563 316.307C542.108 317.315 544.152 317.819 546.193 317.819C548.2 317.819 550.202 317.332 551.727 316.356L683.78 231.778C686.857 229.808 686.838 226.623 683.738 224.7L659.181 209.473C656.081 207.55 650.991 204.442 647.87 202.566L589.201 167.305C587.715 166.412 585.791 165.971 583.854 165.971C581.722 165.971 579.574 166.506 577.974 167.563L547.168 187.919C544.114 189.936 544.113 193.241 547.163 195.264L600.104 230.362C603.155 232.385 603.15 235.685 600.094 237.695" fill="#A3BA29"/>
<path d="M601.073 228.467L548.13 193.367C547.298 192.815 546.801 192.151 546.801 191.591C546.802 191.031 547.3 190.367 548.133 189.816L578.939 169.461C580.186 168.637 581.976 168.165 583.853 168.165C585.537 168.165 587.159 168.558 588.302 169.246L646.971 204.506C650.096 206.384 655.16 209.476 658.261 211.4L682.818 226.628C683.797 227.235 684.148 227.873 684.15 228.236C684.15 228.598 683.81 229.243 682.837 229.866L550.783 314.443C549.611 315.196 547.938 315.626 546.194 315.626C544.415 315.626 542.711 315.181 541.519 314.404L516.973 298.403C516.153 297.868 515.643 297.201 515.642 296.664C515.641 296.127 516.149 295.459 516.968 294.92L601.056 239.595C603.123 238.235 604.311 236.209 604.314 234.037C604.317 231.865 603.136 229.834 601.073 228.467V228.467ZM599.131 235.795L515.043 291.12C512.973 292.482 511.788 294.506 511.792 296.672C511.795 298.84 512.987 300.859 515.062 302.211L539.608 318.212C541.39 319.373 543.728 320.013 546.194 320.013H546.194C548.613 320.013 550.913 319.394 552.67 318.268L684.723 233.691C686.818 232.349 688.013 230.349 688 228.206C687.987 226.063 686.769 224.083 684.658 222.773L660.101 207.546C656.988 205.615 651.904 202.51 648.767 200.626L590.098 165.366C588.394 164.341 586.176 163.777 583.853 163.777C581.281 163.777 578.85 164.448 577.008 165.665L546.202 186.021C544.138 187.385 542.953 189.415 542.951 191.588C542.951 193.761 544.132 195.792 546.194 197.16L599.137 232.258C599.968 232.811 600.465 233.472 600.464 234.029C600.463 234.587 599.965 235.247 599.131 235.795" fill="white"/>
<path d="M225.075 166.282L232.797 171.364L264.541 192.25L272.264 197.331L250.278 211.891L239.201 204.603L248.784 198.256L223.749 181.785L214.166 188.132L203.088 180.843L225.075 166.282V166.282ZM263.663 189.594L236.825 171.938C244.36 170.384 252.629 171.699 258.301 175.43C263.972 179.162 265.987 184.613 263.663 189.594ZM181.517 166.651L240.772 127.41L266.639 144.429C256.836 151.473 257.145 162.484 267.532 169.317C277.919 176.151 294.596 176.317 305.235 169.823L331.106 186.844L271.852 226.085L251.865 212.934L275.424 197.333L265.427 190.755C268.556 185.068 266.413 178.692 259.873 174.389C253.332 170.084 243.666 168.693 235.057 170.774L225.064 164.199L201.505 179.801L181.517 166.651ZM289.564 157.435C289.979 156.687 289.735 155.816 288.825 155.216C287.911 154.615 286.589 154.456 285.457 154.734L269.799 144.432C279.565 138.512 294.83 138.681 304.342 144.94C313.853 151.197 314.157 161.272 305.225 167.739L289.564 157.435V157.435ZM284.333 158.19C285.358 158.864 286.898 158.985 288.104 158.552L303.651 168.78C293.883 174.699 278.62 174.531 269.108 168.273C259.597 162.014 259.29 151.938 268.226 145.473L283.774 155.704C283.122 156.501 283.31 157.517 284.333 158.19ZM301.599 87.1285L321.586 100.277L298.027 115.88L308.02 122.455C304.895 128.145 307.034 134.519 313.577 138.823C320.117 143.126 329.784 144.519 338.39 142.436L348.387 149.014L371.947 133.412L391.933 146.561L332.679 185.802L306.808 168.78C316.61 161.738 316.306 150.729 305.919 143.896C295.532 137.063 278.851 136.894 268.212 143.388L242.345 126.369L301.599 87.1285V87.1285ZM336.626 141.275C329.087 142.826 320.822 141.512 315.151 137.782C309.479 134.05 307.46 128.596 309.788 123.619L336.626 141.275ZM323.17 101.32L334.247 108.608L324.664 114.954L349.698 131.425L359.282 125.079L370.36 132.367L348.374 146.927L301.183 115.88L323.17 101.32V101.32ZM335.834 109.651L357.698 124.037L349.691 129.34L327.828 114.954L335.834 109.651V109.651ZM237.617 203.56L215.753 189.175L223.759 183.873L245.624 198.258L237.617 203.56ZM237.623 205.647L250.288 213.979L271.859 228.171L395.09 146.561L373.52 132.37L360.855 124.037L335.82 107.566L323.159 99.2358L301.585 85.0419L178.354 166.651L199.928 180.845L212.589 189.175L237.623 205.647Z" fill="white"/>
<path d="M244.121 187.805C245.36 186.984 245.354 185.651 244.106 184.831C242.855 184.008 240.84 184.011 239.601 184.831C238.358 185.653 238.365 186.982 239.616 187.805C240.862 188.625 242.878 188.627 244.121 187.805Z" fill="white"/>
<path d="M333.85 128.381C335.093 127.559 335.082 126.229 333.836 125.408C332.585 124.585 330.572 124.585 329.329 125.408C328.091 126.229 328.095 127.559 329.345 128.381C330.591 129.202 332.611 129.202 333.85 128.381" fill="white"/>
<path d="M184.631 141.81L258.998 92.5613C273.99 82.6335 293.734 77.1646 314.593 77.1636C337.627 77.1629 360.206 83.6722 378.172 95.4919C395.662 107 405.303 121.374 405.322 135.967C405.338 149.122 397.286 161.704 382.651 171.396L308.284 220.646C293.291 230.574 273.547 236.043 252.689 236.043C229.653 236.043 207.072 229.533 189.11 217.715C171.619 206.207 161.977 191.833 161.958 177.241C161.942 164.086 169.994 151.503 184.631 141.81V141.81ZM173.26 231.194C194.26 245.01 220.997 253.042 248.547 253.811C249.982 253.851 251.435 253.871 252.865 253.871C279.658 253.871 305.128 246.775 324.584 233.89L398.951 184.64C419.92 170.754 430.729 152.409 429.388 132.987C428.095 114.27 415.535 96.1671 394.021 82.0131C373.019 68.1948 346.282 60.1625 318.735 59.3965C317.301 59.3557 315.848 59.3362 314.415 59.3362C287.625 59.3362 262.156 66.4317 242.698 79.3161L168.331 128.566C147.361 142.453 136.552 160.798 137.894 180.22C139.182 198.933 151.742 217.036 173.26 231.194" fill="#C64B2F"/>
<path d="M168.814 129.515L243.182 80.2649C262.495 67.476 287.793 60.4333 314.415 60.4333C315.839 60.4333 317.285 60.4528 318.711 60.4926C346.1 61.254 372.674 69.2343 393.54 82.9636C414.771 96.9303 427.161 114.727 428.428 133.073C429.74 152.052 419.099 170.029 398.467 183.693L324.101 232.941C304.789 245.731 279.49 252.774 252.865 252.774C251.443 252.774 249.997 252.754 248.571 252.714C221.178 251.949 194.604 243.97 173.741 230.244C152.506 216.272 140.116 198.476 138.853 180.134C137.541 161.155 148.182 143.178 168.814 129.515V129.515ZM172.779 232.144C193.916 246.049 220.815 254.133 248.524 254.907C249.966 254.948 251.427 254.968 252.865 254.968C279.825 254.968 305.467 247.819 325.067 234.839L399.434 185.589C420.742 171.479 431.72 152.766 430.348 132.901C429.029 113.813 416.298 95.4029 394.502 81.0633C373.363 67.1551 346.463 59.07 318.759 58.2993C317.317 58.2595 315.855 58.239 314.415 58.239C287.458 58.239 261.817 65.3874 242.215 78.3683L167.847 127.617C146.54 141.728 135.561 160.441 136.934 180.307C138.249 199.39 150.978 217.8 172.779 232.144" fill="white"/>
<path d="M185.115 142.759L259.482 93.51C274.329 83.6767 293.901 78.2616 314.593 78.2607V77.1636V78.2607C337.461 78.26 359.869 84.7173 377.691 96.4424C394.871 107.746 404.342 121.784 404.359 135.969C404.375 148.715 396.494 160.96 382.168 170.448L307.8 219.697C292.952 229.53 273.379 234.945 252.689 234.945C229.818 234.945 207.41 228.489 189.59 216.765C172.41 205.461 162.938 191.424 162.921 177.239C162.905 164.492 170.788 152.247 185.115 142.759V142.759ZM188.628 218.665C206.736 230.578 229.486 237.14 252.689 237.14C273.714 237.14 293.63 231.619 308.767 221.594L383.135 172.344C398.08 162.447 406.3 149.528 406.284 135.966C406.265 120.965 396.453 106.253 378.653 94.5422C360.543 82.6278 337.793 76.0655 314.593 76.0674C293.567 76.0674 273.651 81.5891 258.514 91.6134L184.147 140.862C169.202 150.76 160.98 163.68 160.997 177.242C161.014 192.242 170.828 206.953 188.628 218.665" fill="white"/>
<path d="M252.865 254.603C251.43 254.603 249.971 254.582 248.531 254.541C245.753 254.464 242.985 254.312 240.228 254.09C239.381 253.454 238.493 252.882 237.569 252.384C241.211 252.744 244.88 252.977 248.563 253.079C249.992 253.12 251.44 253.14 252.865 253.14C252.87 253.14 252.872 253.14 252.877 253.14C266.546 253.14 279.872 251.283 292.214 247.75L288.283 250.309C277.042 253.131 265.09 254.602 252.865 254.603H252.865ZM221.173 251.361C203.528 247.71 186.969 241.057 172.939 231.827L173.26 231.194L173.581 230.561C188.18 240.168 205.594 246.973 224.128 250.461C223.116 250.683 222.13 250.985 221.173 251.361V251.361ZM172.939 231.827C166.665 227.699 161.141 223.232 156.427 218.506C156.653 218.081 156.868 217.647 157.071 217.204C161.757 221.933 167.28 226.415 173.581 230.561L173.26 231.194L172.939 231.827V231.827ZM138.593 180.931C138.33 180.92 138.065 180.915 137.801 180.915C137.635 180.915 137.468 180.917 137.303 180.921C137.285 180.707 137.269 180.493 137.254 180.278C137.177 179.18 137.14 178.087 137.14 176.998C137.138 167.72 139.879 158.733 145.107 150.44C150.335 142.145 158.045 134.532 168.008 127.933L242.375 78.6843C261.956 65.7201 287.526 58.606 314.415 58.6041C315.852 58.6041 317.311 58.6245 318.75 58.6653C346.396 59.436 373.228 67.4896 394.342 81.3793C405.154 88.4934 413.736 96.61 419.79 105.335C423.737 111.022 426.609 116.973 428.313 123.067L428.113 122.934L427.113 123.592C425.466 117.66 422.667 111.839 418.783 106.242C412.856 97.6979 404.401 89.686 393.7 82.6461C372.809 68.8992 346.166 60.8892 318.719 60.1269C317.29 60.0871 315.842 60.0666 314.415 60.0666C314.412 60.0666 314.41 60.0666 314.406 60.0666C287.719 60.0666 262.353 67.1436 243.02 79.9483L168.653 129.198C158.81 135.716 151.244 143.207 146.15 151.293C141.055 159.382 138.424 168.052 138.423 176.998C138.423 178.049 138.459 179.103 138.533 180.163C138.55 180.418 138.571 180.674 138.593 180.93" fill="white"/>
<path d="M252.689 248.646C251.765 248.646 250.838 248.637 249.916 248.619C223.77 248.103 198.321 240.556 178.222 227.334L178.543 226.701L178.864 226.067C198.739 239.146 223.994 246.647 249.938 247.157C250.853 247.174 251.772 247.183 252.689 247.183C253.149 247.183 253.608 247.181 254.067 247.177C271.193 247.018 287.672 243.718 302.043 237.694L303.478 238.644C288.72 245.002 271.736 248.474 254.079 248.639C253.616 248.644 253.152 248.646 252.689 248.646V248.646ZM178.222 227.335C170.591 222.313 164.169 216.775 159.077 210.876C159.186 210.29 159.277 209.697 159.348 209.096C164.442 215.163 170.988 220.887 178.864 226.068L178.543 226.701L178.222 227.335V227.335ZM146.954 183.21C146.498 182.969 146.034 182.745 145.562 182.54C145.425 181.452 145.329 180.362 145.274 179.27C145.239 178.568 145.222 177.87 145.222 177.172C145.222 169.85 147.128 162.709 150.776 156.01C154.422 149.314 159.803 143.052 166.766 137.431C167.805 136.52 169.593 135.174 171.438 133.841C173.287 132.507 175.182 131.196 176.396 130.392L247.809 83.0993C265.9 71.1209 289.563 64.5493 314.475 64.5475C315.834 64.5475 317.207 64.567 318.568 64.605C344.291 65.3339 369.27 72.8552 389.059 85.8731C399.2 92.5458 407.204 100.131 412.796 108.266C415.737 112.545 418.011 116.98 419.57 121.511L417.735 120.296C416.267 116.515 414.277 112.794 411.785 109.168C406.323 101.219 398.448 93.7384 388.417 87.14C372.839 76.8894 353.952 70.0609 334.02 67.339L333.257 66.8271C333.208 66.5702 333.078 66.3402 332.89 66.1807C332.723 66.0397 332.521 65.9646 332.317 65.9646C332.247 65.9646 332.177 65.9729 332.108 65.9905L329.099 66.7529C325.6 66.3967 322.076 66.1667 318.536 66.0675C317.187 66.0295 315.823 66.01 314.475 66.01C314.47 66.01 314.468 66.01 314.464 66.01C289.754 66.01 266.297 72.5454 248.454 84.3642L177.041 131.656C175.848 132.446 173.958 133.753 172.125 135.076C170.293 136.398 168.505 137.748 167.544 138.596L167.541 138.598L167.522 138.614C160.663 144.147 155.405 150.281 151.866 156.782C148.329 163.283 146.506 170.142 146.506 177.172C146.506 177.843 146.521 178.513 146.556 179.186C146.624 180.53 146.756 181.872 146.954 183.21L146.954 183.21Z" fill="#D67E68"/>
<path d="M252.619 242.703C252.18 242.703 251.741 242.7 251.302 242.697C226.658 242.437 202.593 235.398 183.505 222.841L183.826 222.209L184.146 221.575C203.009 233.987 226.876 240.98 251.313 241.234C251.748 241.238 252.183 241.24 252.619 241.24C253.504 241.24 254.389 241.232 255.269 241.214C271.979 240.882 287.956 237.306 301.581 230.95L302.962 231.881C288.971 238.581 272.513 242.333 255.292 242.677C254.403 242.694 253.511 242.703 252.619 242.703V242.703ZM183.505 222.841C174.033 216.609 166.606 209.554 161.477 202.01C156.35 194.467 153.521 186.42 153.295 178.259C153.286 177.918 153.281 177.579 153.281 177.243C153.28 170.2 155.266 163.329 159.041 156.922C162.812 150.521 168.363 144.574 175.521 139.316C175.675 139.183 175.89 139.016 176.173 138.806C176.469 138.586 176.833 138.322 177.243 138.029C178.064 137.445 179.074 136.742 180.09 136.041C182.122 134.641 184.175 133.253 184.784 132.85L253.242 87.5147C269.846 76.5213 291.599 70.4922 314.534 70.4904C315.816 70.4904 317.104 70.508 318.386 70.546C319.428 70.5757 320.468 70.6174 321.509 70.6721V72.1356C320.459 72.0808 319.406 72.0382 318.353 72.0076C317.084 71.9705 315.805 71.9528 314.534 71.9528C314.531 71.9528 314.529 71.9528 314.527 71.9528C291.793 71.9528 270.242 77.9457 253.887 88.7787L185.429 134.115C184.389 134.803 178.874 138.54 176.875 140.03C176.593 140.239 176.378 140.408 176.282 140.493L176.26 140.512L176.239 140.528C169.185 145.706 163.76 151.533 160.106 157.738C156.453 163.944 154.566 170.516 154.564 177.243C154.564 177.565 154.568 177.888 154.578 178.211C154.794 186.014 157.494 193.758 162.492 201.114C167.489 208.467 174.786 215.417 184.146 221.575L183.826 222.209L183.505 222.841H183.505ZM409.841 121.508C408.569 118.317 406.879 115.171 404.787 112.092C399.791 104.739 392.494 97.79 383.134 91.6321C372.393 84.5643 360.024 79.2503 346.853 75.9376L343.412 73.6321C358.088 76.8715 371.897 82.5519 383.776 90.3662C393.247 96.5974 400.673 103.652 405.802 111.198C407.92 114.312 409.646 117.513 410.958 120.774L409.841 121.508" fill="#D67E68"/>
<path d="M252.689 236.773C229.546 236.773 206.866 230.24 188.789 218.349C179.988 212.557 173.139 206.034 168.472 199.079C163.807 192.126 161.325 184.725 161.317 177.242L161.317 177.2C161.315 170.458 163.387 163.873 167.293 157.778C171.2 151.68 176.938 146.059 184.309 141.178L258.675 91.9288C273.792 81.9212 293.636 76.4347 314.593 76.4329C316.904 76.4329 319.211 76.4978 321.509 76.6276V78.0911C319.211 77.9603 316.904 77.8954 314.593 77.8954V77.1637V77.8954C314.59 77.8954 314.589 77.8954 314.585 77.8954C293.828 77.8954 274.186 83.3467 259.321 93.1938L184.953 142.443C177.701 147.244 172.104 152.749 168.33 158.641C164.555 164.534 162.601 170.803 162.6 177.199V177.204V177.24C162.61 184.349 164.959 191.431 169.492 198.191C174.024 204.948 180.741 211.366 189.431 217.082C207.28 228.828 229.758 235.313 252.689 235.312V236.043V236.774L252.689 236.773ZM252.689 236.774V236.043V235.312C252.692 235.312 252.695 235.312 252.698 235.312C273.454 235.312 293.095 229.861 307.961 220.014L338.049 200.088L338.054 201.777L308.607 221.279C293.489 231.286 273.646 236.772 252.689 236.774H252.689ZM403.115 125.934C401.962 122.235 400.179 118.581 397.789 115.017C393.258 108.26 386.541 101.842 377.851 96.1256C375.337 94.4711 372.729 92.9195 370.042 91.4774L361.718 85.8991C367.629 88.417 373.254 91.4125 378.493 94.8587C387.293 100.65 394.142 107.174 398.809 114.128C401.214 117.714 403.039 121.418 404.243 125.191L403.115 125.934Z" fill="white"/>
<path d="M251.16 288.974L247.591 286.194C249.092 282.895 249.962 279.165 250.018 275.208L287.358 250.91C295.365 248.963 303.021 246.336 310.165 243.072L315.529 246.624L251.16 288.974Z" fill="#888828"/>
<path d="M253.512 290.805L251.16 288.974L315.529 246.624L318.087 248.319L253.512 290.805" fill="#797427"/>
<path d="M256.536 293.161L253.511 290.805L318.087 248.319L321.924 250.86L274.786 281.874C274.784 281.874 274.782 281.874 274.781 281.874C267.137 281.874 260.415 286.366 256.536 293.161" fill="#C39DD5"/>
<path d="M293.26 247.069L304.832 239.54L304.942 239.612L304.942 239.905L305.164 239.76L308.044 241.667C303.319 243.751 298.378 245.555 293.26 247.069" fill="#92302C"/>
<path d="M287.358 250.91L288.283 250.309C295.825 248.415 303.045 245.914 309.814 242.84L310.166 243.072C303.021 246.336 295.366 248.963 287.358 250.91ZM292.214 247.75L293.26 247.069C298.378 245.555 303.319 243.751 308.045 241.667L308.4 241.903C303.248 244.187 297.832 246.142 292.214 247.75" fill="#C39DD5"/>
<path d="M288.283 250.309L292.214 247.75C297.832 246.142 303.248 244.187 308.4 241.903L309.814 242.84C303.045 245.914 295.825 248.415 288.283 250.309" fill="#C39DD5"/>
<path d="M366.496 347.058L289.508 295.684L289.531 304.593L366.519 355.971L366.497 347.058" fill="#B58F47"/>
<path d="M547.159 228.196L470.171 176.821L289.508 295.684L366.497 347.058L547.159 228.196" fill="#C65237"/>
<path d="M547.16 228.196L366.497 347.059L366.519 355.971L547.182 237.106L547.16 228.196Z" fill="#FCD882"/>
<path d="M319.886 316.009L295.698 299.842C295.695 299.831 295.692 299.819 295.689 299.809L319.943 315.993C319.924 315.999 319.906 316.003 319.886 316.009" fill="#7D6637"/>
<path d="M365.891 337.375L345.561 332.185C342.658 322.387 334.526 315.334 324.948 315.334C323.226 315.334 321.55 315.562 319.943 315.993L295.689 299.809C295.106 297.492 294.234 295.316 293.122 293.331L301.278 287.943L365.891 337.375Z" fill="#893D2A"/>
<path d="M535.904 168.615L470.3 125.169L432.88 149.787L498.484 193.234L535.904 168.615Z" fill="#FEEDD0"/>
<path d="M403.626 232.172L338.021 188.725L338.079 212.158L403.685 255.605L403.626 232.172" fill="#CDB775"/>
<path d="M432.821 126.353L338.021 188.725L403.626 232.172L498.427 169.8L432.821 126.353" fill="#FEEDD0"/>
<path d="M403.685 255.605L338.079 212.158L300.66 236.777L366.266 280.224L403.685 255.605Z" fill="#FEEDD0"/>
<path d="M366.266 280.224L300.66 236.778L300.804 294.347L366.409 337.793L366.266 280.224" fill="#CDB775"/>
<path d="M366.408 337.793L403.827 313.173L456.064 278.806L455.435 258.8L472.575 267.943L498.627 250.802L536.047 226.183L535.904 168.615L498.484 193.234L498.427 169.8L403.626 232.172L403.685 255.605L366.266 280.224L366.409 337.793" fill="#FCE591"/>
<path d="M471.009 240.978H456.991V259.131L472.575 267.943L472.496 256.47L471.009 240.978" fill="#CDB775"/>
<path d="M407.937 222.82L342.331 179.374L342.348 186.075L407.954 229.522L407.937 222.82" fill="#D22E2C"/>
<path d="M428.113 122.935L342.331 179.374L407.937 222.82L493.718 166.381L428.113 122.935" fill="#F14935"/>
<path d="M493.718 166.381L407.937 222.82L407.954 229.522L493.718 172.898V166.381Z" fill="#F03F3B"/>
<path d="M338.079 205.732L300.66 230.33L304.925 233.203L342.344 208.606L338.079 205.732" fill="#F14935"/>
<path d="M342.344 208.606L304.925 233.203L304.942 239.905L342.362 215.31L342.344 208.606" fill="#EF362E"/>
<path d="M421.095 200.716L355.489 157.269L355.524 170.858L421.128 214.305L421.095 200.716" fill="#CDB775"/>
<path d="M414.719 118.299L355.489 157.269L421.095 200.716L480.325 161.746L414.719 118.299Z" fill="#FEEDD0"/>
<path d="M480.325 161.746L421.095 200.716L421.128 214.305L480.359 175.337L480.325 161.746" fill="#FCE591"/>
<path d="M443.256 186.135C443.266 186.055 443.271 186.008 443.271 186.008L436.911 181.867L451.661 172.161C452.356 171.874 453.026 171.737 453.656 171.737C455.89 171.737 457.626 173.458 458.163 176.327L443.256 186.135" fill="#E1BFC8"/>
<path d="M447.301 194.482C444.801 194.482 443.078 192.224 443.068 188.308C443.066 187.738 443.208 186.529 443.256 186.135L458.163 176.327C458.275 176.923 458.335 177.57 458.337 178.261C458.351 183.791 454.946 190.513 450.723 193.289C449.494 194.099 448.331 194.483 447.301 194.482" fill="#DFB898"/>
<path d="M413.912 260.625L416.326 259.038L423.509 254.314L424.319 253.781L424.316 252.715L424.275 235.967L424.266 232.791L421.852 234.379L414.669 239.103L413.859 239.637L413.861 240.703L413.903 257.449L413.912 260.625" fill="white"/>
<path d="M427.615 251.689L430.031 250.1L437.212 245.375L438.022 244.842L438.02 243.775L437.977 227.029L437.969 223.851L435.554 225.441L428.373 230.167L427.562 230.7L427.565 231.765L427.608 248.512L427.615 251.689" fill="white"/>
<path d="M441.456 242.854L443.871 241.265L451.051 236.54L451.861 236.006L451.859 234.941L451.817 218.195L451.809 215.018L449.394 216.607L442.213 221.331L441.403 221.865L441.405 222.931L441.448 239.677L441.456 242.854" fill="white"/>
<path d="M455.16 233.917L457.574 232.327L464.756 227.602L465.567 227.07L465.564 226.003L465.522 209.256L465.514 206.079L463.099 207.668L455.917 212.395L455.107 212.927L455.109 213.994L455.152 230.74L455.16 233.917" fill="white"/>
<path d="M467.596 225.284L470.01 223.696L477.192 218.972L478.003 218.44L478 217.372L477.957 200.625L477.949 197.448L475.534 199.037L468.353 203.762L467.543 204.297L467.545 205.362L467.587 222.107L467.596 225.284" fill="white"/>
<path d="M481.3 216.346L483.715 214.759L490.896 210.034L491.707 209.501L491.704 208.435L491.662 191.687L491.654 188.51L489.239 190.099L482.057 194.824L481.246 195.356L481.249 196.423L481.292 213.169L481.301 216.346" fill="white"/>
<path d="M373.932 320.896L376.346 319.307L383.527 314.583L384.337 314.049L384.335 312.983L384.293 296.236L384.285 293.058L381.87 294.647L374.688 299.374L373.879 299.906L373.881 300.973L373.923 317.719L373.932 320.896" fill="white"/>
<path d="M387.77 312.062L390.185 310.472L397.366 305.747L398.177 305.214L398.174 304.147L398.132 287.4L398.125 284.223L395.709 285.813L388.528 290.538L387.719 291.071L387.72 292.137L387.763 308.884L387.771 312.062" fill="white"/>
<path d="M401.475 303.123L403.89 301.534L411.071 296.81L411.882 296.276L411.879 295.21L411.838 278.464L411.83 275.286L409.415 276.875L402.232 281.601L401.422 282.134L401.425 283.2L401.467 299.945L401.475 303.123" fill="white"/>
<path d="M413.912 294.492L416.326 292.904L423.509 288.178L424.319 287.645L424.316 286.579L424.272 269.832L424.263 266.653L421.849 268.243L414.668 272.97L413.859 273.503L413.861 274.57L413.903 291.315L413.912 294.492" fill="white"/>
<path d="M481.1 251.318L483.516 249.728L490.696 245.003L491.506 244.471L491.503 243.405L491.463 226.658L491.455 223.48L489.04 225.07L481.858 229.796L481.048 230.328L481.051 231.394L481.092 248.141L481.1 251.318" fill="white"/>
<path d="M494.805 242.379L497.219 240.79L504.401 236.066L505.211 235.533L505.208 234.467L505.167 217.72L505.159 214.543L502.744 216.131L495.561 220.858L494.75 221.391L494.754 222.457L494.797 239.201L494.805 242.379" fill="white"/>
<path d="M507.24 233.748L509.655 232.16L516.837 227.435L517.648 226.902L517.645 225.836L517.603 209.088L517.594 205.91L515.179 207.5L507.999 212.225L507.189 212.758L507.191 213.825L507.233 230.571L507.24 233.748" fill="#F8E3B8"/>
<path d="M520.946 224.812L523.36 223.222L530.541 218.496L531.351 217.964L531.348 216.898L531.308 200.151L531.3 196.974L528.885 198.562L521.703 203.287L520.892 203.82L520.895 204.886L520.938 221.634L520.946 224.812" fill="#F8E3B8"/>
<path d="M423.462 231.929L414.667 237.713L414.715 256.58L423.51 250.796L423.462 231.929" fill="#23524D"/>
<path d="M422.659 233.519L422.701 250.265L415.518 254.989L415.476 238.244L422.659 233.519ZM413.912 258.171L416.326 256.584L423.509 251.86L424.319 251.326L424.316 250.26L424.274 233.515L424.266 230.337L421.852 231.926L414.669 236.65L413.859 237.183L413.861 238.249L413.904 254.995L413.912 258.171" fill="#DDA95E"/>
<path d="M437.165 222.989L428.371 228.776L428.419 247.644L437.213 241.857L437.165 222.989" fill="#23524D"/>
<path d="M436.362 224.58L436.404 241.327L429.222 246.052L429.18 229.306L436.362 224.58ZM427.615 249.235L430.031 247.646L437.212 242.921L438.022 242.388L438.019 241.321L437.977 224.574L437.969 221.397L435.554 222.986L428.373 227.713L427.562 228.246L427.565 229.312L427.608 246.058L427.615 249.235" fill="#DDA95E"/>
<path d="M451.006 214.155L442.212 219.941L442.26 238.809L451.052 233.022L451.006 214.155" fill="#23524D"/>
<path d="M450.202 215.746L450.243 232.492L443.063 237.218L443.021 220.472L450.202 215.746ZM441.456 240.401L443.871 238.811L451.051 234.086L451.861 233.553L451.859 232.487L451.817 215.742L451.809 212.564L449.394 214.153L442.213 218.877L441.403 219.411L441.406 220.477L441.447 237.223L441.456 240.401" fill="#DDA95E"/>
<path d="M464.711 205.217L455.915 211.004L455.963 229.872L464.758 224.086L464.711 205.217" fill="#23524D"/>
<path d="M463.907 206.808L463.949 223.554L456.767 228.279L456.725 211.534L463.907 206.808ZM455.16 231.462L457.574 229.873L464.756 225.148L465.567 224.615L465.564 223.549L465.522 206.802L465.514 203.624L463.099 205.214L455.917 209.94L455.107 210.473L455.109 211.54L455.152 228.285L455.16 231.462" fill="#DDA95E"/>
<path d="M477.146 196.585L468.352 202.372L468.399 221.238L477.194 215.454L477.146 196.585" fill="#23524D"/>
<path d="M476.342 198.177L476.385 214.924L469.203 219.647L469.161 202.903L476.342 198.177ZM467.596 222.83L470.01 221.241L477.192 216.518L478.003 215.985L478 214.918L477.957 198.171L477.949 194.994L475.534 196.583L468.353 201.309L467.543 201.842L467.545 202.908L467.587 219.653L467.596 222.83" fill="#DDA95E"/>
<path d="M490.851 187.647L482.055 193.433L482.104 212.301L490.898 206.516L490.851 187.647" fill="#23524D"/>
<path d="M490.047 189.238L490.089 205.985L482.908 210.711L482.864 193.964L490.047 189.238ZM481.3 213.893L483.715 212.304L490.896 207.58L491.707 207.046L491.704 205.981L491.662 189.233L491.654 186.057L489.239 187.645L482.057 192.37L481.246 192.903L481.249 193.969L481.292 210.715L481.301 213.893" fill="#DDA95E"/>
<path d="M383.481 292.196L374.687 297.983L374.735 316.851L383.528 311.065L383.481 292.196" fill="#23524D"/>
<path d="M382.678 293.787L382.719 310.534L375.539 315.26L375.496 298.513L382.678 293.787ZM373.932 318.441L376.346 316.853L383.527 312.129L384.337 311.595L384.335 310.53L384.293 293.782L384.285 290.604L381.87 292.193L374.688 296.919L373.879 297.452L373.881 298.519L373.923 315.264L373.932 318.441" fill="#DDA95E"/>
<path d="M397.321 283.361L388.527 289.148L388.574 308.016L397.367 302.229L397.321 283.361" fill="#23524D"/>
<path d="M396.518 284.952L396.558 301.699L389.378 306.424L389.336 289.678L396.518 284.952ZM387.771 309.607L390.185 308.018L397.366 303.293L398.177 302.76L398.174 301.694L398.132 284.947L398.125 281.769L395.71 283.359L388.528 288.084L387.718 288.617L387.72 289.683L387.763 306.43L387.771 309.607" fill="#DDA95E"/>
<path d="M411.025 274.423L402.23 280.21L402.279 299.077L411.073 293.292L411.025 274.423" fill="#23524D"/>
<path d="M410.222 276.015L410.264 292.762L403.082 297.486L403.039 280.741L410.222 276.015ZM401.475 300.669L403.89 299.08L411.071 294.356L411.882 293.823L411.879 292.756L411.838 276.01L411.83 272.832L409.415 274.42L402.232 279.147L401.422 279.68L401.425 280.746L401.467 297.491L401.475 300.669" fill="#DDA95E"/>
<path d="M423.46 265.791L414.667 271.579L414.715 290.447L423.51 284.661L423.46 265.791" fill="#23524D"/>
<path d="M422.657 267.383L422.701 284.13L415.519 288.855L415.476 272.109L422.657 267.383ZM413.912 292.038L416.326 290.45L423.509 285.725L424.319 285.191L424.316 284.125L424.272 267.378L424.263 264.199L421.849 265.789L414.668 270.515L413.859 271.049L413.861 272.115L413.904 288.861L413.912 292.038" fill="#DDA95E"/>
<path d="M348.374 288.538L348.329 306.97L356.791 312.538L356.837 294.106L348.374 288.538" fill="#18302C"/>
<path d="M349.012 289.802L356.194 294.528L356.152 311.274L348.972 306.548L349.012 289.802ZM357.429 313.803L357.435 311.278L357.478 294.532L357.48 293.685L356.836 293.261L349.655 288.535L347.736 287.273L347.729 289.798L347.688 306.545L347.686 307.391L348.33 307.815L355.51 312.54L357.429 313.803" fill="#C9614C"/>
<path d="M334.666 279.598V298.032L343.086 303.605L343.133 285.169L334.666 279.598" fill="#18302C"/>
<path d="M335.308 280.865L342.49 285.59L342.448 302.336L335.308 297.612L335.308 280.865ZM343.724 304.873L343.731 302.341L343.773 285.595L343.776 284.747L343.132 284.324L335.949 279.598L334.024 278.332V280.865V297.612V298.453L334.663 298.877L341.804 303.601L343.724 304.873" fill="#C9614C"/>
<path d="M322.235 270.969L322.186 289.403L330.65 294.97L330.696 276.539L322.235 270.969" fill="#18302C"/>
<path d="M322.873 272.233L330.054 276.96L330.011 293.706L322.829 288.981L322.873 272.233ZM331.288 296.234L331.295 293.709L331.337 276.964L331.339 276.116L330.696 275.694L323.515 270.967L321.596 269.703L321.59 272.229L321.546 288.976L321.543 289.824L322.187 290.247L329.369 294.972L331.288 296.234" fill="#C9614C"/>
<path d="M308.53 262.032L308.483 280.464L316.946 286.031L316.994 267.598L308.53 262.032" fill="#18302C"/>
<path d="M309.168 263.296L316.35 268.02L316.306 284.767L309.125 280.042L309.168 263.296ZM317.583 287.296L317.591 284.772L317.634 268.025L317.636 267.177L316.992 266.754L309.81 262.03L307.892 260.768L307.885 263.292L307.843 280.039L307.84 280.885L308.484 281.309L315.665 286.034L317.583 287.296" fill="#C9614C"/>
<path d="M490.651 222.618L481.856 228.405L481.903 247.273L490.697 241.486L490.651 222.618" fill="#23524D"/>
<path d="M489.848 224.209L489.888 240.955L482.707 245.681L482.665 228.935L489.848 224.209ZM481.1 248.864L483.515 247.274L490.696 242.549L491.506 242.016L491.503 240.95L491.463 224.204L491.455 221.026L489.04 222.616L481.858 227.341L481.048 227.873L481.051 228.94L481.092 245.687L481.1 248.864" fill="#DDA95E"/>
<path d="M504.355 213.68L495.559 219.467L495.608 238.333L504.401 232.548L504.355 213.68Z" fill="#23524D"/>
<path d="M503.552 215.272L503.593 232.018L496.412 236.742L496.368 219.998L503.552 215.272ZM494.805 239.925L497.219 238.336L504.401 233.612L505.211 233.079L505.208 232.012L505.167 215.266L505.159 212.088L502.744 213.677L495.561 218.403L494.75 218.937L494.754 220.003L494.797 236.747L494.805 239.925Z" fill="#DDA95E"/>
<path d="M516.79 205.048L507.997 210.834L508.043 229.703L516.839 223.917L516.79 205.048Z" fill="#23524D"/>
<path d="M515.987 206.639L516.03 223.387L508.847 228.111L508.807 211.365L515.987 206.639ZM507.24 231.294L509.655 229.706L516.837 224.981L517.648 224.448L517.645 223.382L517.603 206.634L517.594 203.456L515.179 205.045L507.999 209.771L507.189 210.304L507.191 211.37L507.233 228.117L507.24 231.294" fill="#DDA95E"/>
<path d="M530.496 196.11L521.7 201.897L521.749 220.765L530.542 214.979L530.496 196.11Z" fill="#23524D"/>
<path d="M529.692 197.702L529.732 214.449L522.553 219.174L522.509 202.427L529.692 197.702ZM520.945 222.357L523.36 220.768L530.54 216.043L531.35 215.51L531.348 214.444L531.308 197.697L531.3 194.52L528.885 196.109L521.702 200.833L520.892 201.366L520.894 202.433L520.937 219.18L520.946 222.357" fill="#DDA95E"/>
<path d="M366.282 273.522L366.266 280.224L370.531 277.351L370.548 270.649L366.282 273.522" fill="#806F46"/>
<path d="M370.548 270.649L309.223 230.33L304.959 233.203L366.282 273.522L370.548 270.649" fill="#F14935"/>
<path d="M304.925 233.203L300.66 230.33L300.678 237.03L304.942 239.905L304.925 233.203" fill="#D22E2C"/>
<path d="M304.943 239.905L366.266 280.224L366.283 273.521L364.888 272.604L361.984 270.649L361.985 270.696L304.959 233.203L304.942 239.905" fill="#C42724"/>
<path d="M399.403 246.052L361.984 270.649L366.25 273.522L403.668 248.926L399.403 246.052" fill="#F14935"/>
<path d="M403.668 248.926L366.25 273.522L366.266 280.224L403.685 255.628L403.668 248.926" fill="#EF362E"/>
<path d="M470.298 118.676L445.919 134.72L450.182 137.594L474.563 121.55L470.298 118.676" fill="#F14935"/>
<path d="M474.563 121.55L450.182 137.594L455.349 140.946L474.58 128.253L474.563 121.55" fill="#EF362E"/>
<path d="M531.584 164.744L531.566 171.446L535.831 168.571L535.847 161.87L531.584 164.744" fill="#806F46"/>
<path d="M531.584 164.744L470.259 124.424L470.243 131.127L531.566 171.446L531.584 164.744" fill="#C42724"/>
<path d="M535.847 161.87L474.524 121.55L470.058 124.277L531.584 164.744L535.847 161.87" fill="#F14935"/>
<path d="M498.484 180.777L498.468 186.465L535.886 161.87L531.623 158.996L498.484 180.777" fill="#F14935"/>
<path d="M535.886 161.87L498.468 186.466L498.484 193.168L535.904 168.571L535.886 161.87" fill="#EF362E"/>
<path d="M471.84 233.709L468.333 235.773L471.84 238.096L475.348 236.033L471.84 233.709" fill="#D8B86E"/>
<path d="M471.84 238.096L468.333 235.773L468.421 271.689L471.931 274.012L471.84 238.096" fill="#806F46"/>
<path d="M475.348 236.033L471.84 238.096L471.931 274.011L475.438 271.948L475.348 236.033" fill="#F8E3B8"/>
<path d="M457.498 275.135V259.9L468.406 265.719L468.421 271.689L470.205 272.87V272.886L457.498 275.135" fill="#A0395E"/>
<path d="M468.406 265.719L457.498 259.9V259.418L468.406 265.585V265.719Z" fill="#C5969E"/>
<path d="M468.406 265.585L457.498 259.418V249.836L468.35 242.696L468.406 265.585Z" fill="#A5788D"/>
<path d="M466.052 239.646L468.339 238.141L468.341 239.029L466.052 239.646Z" fill="#C5969E"/>
<path d="M470.205 272.87L468.421 271.689L468.406 265.719V265.585L468.35 242.696L470.128 241.526L470.205 272.87ZM468.341 239.029L468.339 238.141L470.117 236.972L470.121 238.548L468.341 239.029" fill="#734A6A"/>
<path d="M466.56 234.571L453.945 242.873L457.453 245.196L470.071 236.895L466.56 234.571" fill="#623116"/>
<path d="M453.945 242.873L441.485 251.069L444.993 253.393L457.453 245.196L453.945 242.873Z" fill="#623116"/>
<path d="M444.993 253.393L441.485 251.069L441.574 286.985L445.084 289.309L444.993 253.393" fill="#382015"/>
<path d="M456.645 246.79L445.802 253.923L445.887 287.702L456.645 280.481V246.79" fill="#23524D"/>
<path d="M455.838 279.955L446.691 286.094L446.611 254.454L455.838 248.385V279.955ZM457.453 245.196L444.993 253.393L445.084 289.309L457.453 281.007V245.196" fill="#DDA95E"/>
<path d="M442.716 251.863L439.207 253.927L442.716 256.25L446.223 254.187L442.716 251.863" fill="#D8B86E"/>
<path d="M439.295 253.927V289.843L442.716 292.166V256.25L439.295 253.927Z" fill="#DBA986"/>
<path d="M442.716 256.25V292.166L446.313 290.103V254.188L442.716 256.25" fill="#F8E3B8"/>
<path d="M470.314 231.765L453.181 235.162L460.67 239.871L477.805 236.476L470.314 231.765" fill="#F14935"/>
<path d="M453.181 235.162L435.486 254.68L442.977 259.389L460.67 239.871L453.181 235.162" fill="#D22E2C"/>
<path d="M442.977 259.389L477.805 236.476L460.67 241.098L442.977 259.389" fill="#F8E3B8"/>
<path d="M321.246 216.797L321.019 216.773L338.063 205.743V205.743L321.246 216.797" fill="#92302C"/>
<path d="M394.297 249.388L342.361 214.994L342.346 209.175L399.32 246.108L395.406 248.68L395.295 248.677L394.297 249.388L394.297 249.388ZM338.063 205.744V205.743L338.079 205.733L338.063 205.744" fill="#986F6D"/>
<path d="M392.348 250.69L329.046 224.061L342.362 215.31L342.361 214.994L394.297 249.388L393.909 249.664L392.348 250.69" fill="#BF8FB6"/>
<path d="M328.683 217.586L321.247 216.797L338.063 205.743L338.079 205.732L342.344 208.606L328.683 217.586" fill="#C1302C"/>
<path d="M329.046 224.061L328.735 223.931V217.591L328.683 217.586L342.344 208.606V209.174L342.361 214.994L342.362 215.309L329.046 224.061" fill="#B42629"/>
<path d="M392.424 250.722L392.348 250.69L393.909 249.664L392.424 250.722V250.722ZM403.668 248.926L395.406 248.68L399.319 246.108L403.668 248.926" fill="#C1302C"/>
<path d="M342.331 179.388H342.332V179.389" fill="#888828"/>
<path d="M346.914 182.408L342.331 179.388H342.332L342.343 179.381L346.913 182.408" fill="#9C2028"/>
<path d="M421 214.221L379.522 203.89L346.914 182.408L342.343 179.381L355.51 170.848L355.524 170.857V170.858L421 214.221" fill="#C1302C"/>
<path d="M421.128 214.252L421 214.221L355.524 170.858V170.858L421.128 214.238V214.253" fill="#986F6D"/>
<path d="M421.165 214.262L421.128 214.252V214.238L421.165 214.262" fill="#BD8D83"/>
<path d="M435.486 292.441V292.343L439.295 289.839V289.843L442.716 292.167V287.741V292.167L435.486 292.441" fill="#923431"/>
<path d="M435.486 292.343V254.68L439.295 257.074V289.838L435.486 292.343Z" fill="#BD8D83"/>
<path d="M442.716 292.166L439.295 289.843V257.074L442.716 259.225V287.741V292.166Z" fill="#A46678"/>
<path d="M442.716 259.225L439.295 257.074L435.486 254.68L442.716 259.194V259.225Z" fill="#9C2028"/>
<path d="M472.466 239.987L477.805 236.476L460.67 239.871L442.977 259.389L448.49 255.763L460.67 242.325L472.466 239.987" fill="#F03F3B"/>
<path d="M414.709 126.749L368.291 157.289L421.105 192.266L467.523 161.725L414.709 126.749" fill="#BDAD95"/>
<path d="M414.811 126.536L368.291 157.289L373.17 160.416L414.811 132.994V126.536" fill="#FCE591"/>
<path d="M519.222 167.147L466.368 133.719L466.398 133.654L470.243 131.115V131.127L522.125 165.239L519.222 167.147" fill="#BF8FB6"/>
<path d="M466.398 133.654L470.258 124.954L470.243 131.115L466.398 133.654Z" fill="#B42629"/>
<path d="M522.125 165.239L470.243 131.127V131.115L470.258 124.954L470.421 124.585L527.116 161.958L522.125 165.239" fill="#911C20"/>
<path d="M519.227 167.15L519.222 167.147L522.125 165.239L527.116 161.958L527.248 162.045L519.227 167.151" fill="#C1302C"/>
<path d="M459.559 166.984L459.545 166.974L463.669 164.261L459.559 166.984V166.984ZM461.459 157.709L414.811 126.816V126.536L461.459 157.709" fill="#BF8FB6"/>
<path d="M459.545 166.974L410.758 135.67L410.762 135.66L414.811 132.994V126.816L461.459 157.709L467.483 161.734L463.669 164.261L459.545 166.974" fill="#8C6985"/>
<path d="M410.762 135.66L414.81 126.536V132.994L410.762 135.66Z" fill="#BD8D83"/>
<path d="M338.022 188.95L337.717 188.75L340.252 187.256L338.021 188.725L338.022 188.95" fill="#888828"/>
<path d="M381.718 217.662L338.022 188.95L338.021 188.725L381.718 217.662" fill="#986F6D"/>
<path d="M407.699 229.492L399.478 229.333L381.718 217.662L338.021 188.725L340.252 187.256L342.348 186.021V186.075L407.804 229.423L407.699 229.492" fill="#BF8FB6"/>
<path d="M408.059 229.5L407.99 229.498L408.023 229.476L408.059 229.499L408.059 229.5ZM407.916 229.497L407.698 229.492L407.804 229.422L407.916 229.496" fill="#BD8D83"/>
<path d="M407.954 229.498L407.916 229.497L407.804 229.423L342.348 186.075V186.022L342.37 186.009L407.954 229.43V229.498" fill="#9C2028"/>
<path d="M407.99 229.498H407.954V229.43L408.023 229.477L407.99 229.498" fill="#BF2B33"/>
<path d="M445.256 183.511C445.335 183.024 445.429 182.556 445.532 182.125C446.215 179.256 447.544 176.513 449.262 174.28C451.031 171.959 453.912 169.288 456.826 169.893C456.971 169.922 457.115 169.96 457.254 170.005C457.393 170.05 457.526 170.103 457.657 170.165C457.788 170.228 457.914 170.301 458.041 170.381L458.081 170.407L457.466 170L452.255 166.265C452.128 166.186 452.003 166.115 451.87 166.051C451.741 165.991 451.607 165.936 451.469 165.891C451.33 165.845 451.186 165.807 451.039 165.777L451.04 165.779L451.039 165.778C448.237 165.244 445.707 167.582 443.935 169.787C442.086 172.088 440.652 174.958 439.934 177.977H439.932C439.853 178.308 439.784 178.634 439.721 178.961C439.735 178.887 439.745 178.835 439.719 178.976C439.68 179.182 439.697 179.091 439.715 178.998C439.645 179.373 439.585 179.771 439.539 180.183L445.256 183.511" fill="#F14935"/>
<path d="M455.26 192.474C459.482 189.697 462.887 182.975 462.873 177.445C462.859 171.928 459.433 169.702 455.21 172.48C450.995 175.253 447.591 181.974 447.604 187.492C447.62 193.021 451.047 195.246 455.26 192.474" fill="white"/>
<path d="M445.164 183.455C444.754 186.201 444.897 189.813 447.214 191.345L449.833 193.079C447.056 191.24 447.381 186.578 448.099 183.588C448.782 180.717 450.112 177.975 451.828 175.743C453.598 173.422 456.479 170.75 459.392 171.355C459.538 171.384 459.682 171.423 459.821 171.468C459.96 171.513 460.093 171.567 460.223 171.629C460.355 171.691 460.481 171.764 460.607 171.843L460.647 171.87L460.032 171.462L457.989 170.108C457.862 170.029 457.737 169.958 457.605 169.895C457.475 169.833 457.341 169.779 457.203 169.733C457.064 169.687 456.921 169.65 456.773 169.62L456.774 169.621H456.773C453.972 169.087 451.253 171.455 449.482 173.66C449.115 174.118 448.769 174.603 448.436 175.102L442.774 171.399C441.489 173.37 440.493 175.626 439.934 177.977H439.932C439.853 178.308 439.784 178.633 439.721 178.961C439.735 178.887 439.745 178.835 439.719 178.976C439.68 179.181 439.697 179.091 439.715 178.997C439.645 179.373 439.585 179.77 439.539 180.182L445.164 183.455" fill="#EF362E"/>
<path d="M226.228 326.881C217.408 326.881 210.258 322.083 210.258 316.165C210.258 310.246 217.408 305.448 226.228 305.448C226.489 305.448 226.747 305.452 227.005 305.461V323.81V323.811C227.005 324.647 228.256 325.324 229.801 325.324C231.346 325.324 232.597 324.647 232.597 323.811V323.81V306.334C234.322 306.838 235.888 307.54 237.233 308.398C238.004 309.831 239.16 311.09 240.641 312.07L241.213 312.449C241.851 313.607 242.199 314.858 242.199 316.165C242.199 322.083 235.048 326.881 226.228 326.881" fill="#949C27"/>
<path d="M241.213 312.449L240.641 312.07C239.16 311.09 238.004 309.831 237.233 308.398C238.984 309.516 240.359 310.898 241.213 312.449Z" fill="#848527"/>
<path d="M232.714 302.761C231.815 302.756 230.951 302.539 230.143 302.118L229.217 304.422C230.313 304.994 231.486 305.288 232.702 305.295C237.378 305.321 241.201 301.008 241.224 295.679L241.237 292.744C241.24 292.141 241.193 291.537 241.098 290.947L238.91 291.403C238.98 291.839 239.014 292.285 239.013 292.731L239 295.666C238.983 299.598 236.163 302.78 232.714 302.761" fill="#A13823"/>
<path d="M232.597 323.811V289.819H227.005V323.811C227.005 324.648 228.256 325.325 229.801 325.325C231.346 325.325 232.597 324.648 232.597 323.811" fill="#A13823"/>
<path d="M250.022 274.797C250.022 261.108 240.284 250.012 228.272 250.012C216.259 250.012 206.521 261.108 206.521 274.797C206.521 288.486 216.259 299.584 228.272 299.584C240.284 299.584 250.022 288.486 250.022 274.797" fill="#6BA62E"/>
<path d="M206.521 274.736C206.521 274.732 206.521 274.729 206.521 274.726C206.521 274.729 206.521 274.732 206.521 274.736ZM206.521 274.667C206.521 274.663 206.521 274.661 206.522 274.658C206.521 274.66 206.521 274.663 206.521 274.667ZM206.523 274.535C206.523 274.532 206.523 274.529 206.523 274.526C206.523 274.528 206.523 274.532 206.523 274.535ZM206.523 274.467C206.523 274.464 206.524 274.46 206.524 274.456C206.524 274.46 206.523 274.464 206.523 274.467ZM206.526 274.334C206.526 274.331 206.526 274.328 206.526 274.326C206.526 274.328 206.526 274.331 206.526 274.334ZM206.526 274.265C206.526 274.263 206.526 274.26 206.526 274.258C206.526 274.26 206.526 274.263 206.526 274.265ZM206.529 274.134C206.529 274.131 206.529 274.129 206.529 274.126C206.529 274.128 206.529 274.132 206.529 274.134ZM206.531 274.065C206.531 274.063 206.531 274.06 206.531 274.059C206.531 274.062 206.531 274.064 206.531 274.065ZM206.534 273.931C206.534 273.931 206.534 273.929 206.534 273.929C206.534 273.929 206.534 273.931 206.534 273.931ZM206.537 273.865C206.537 273.863 206.537 273.863 206.537 273.861C206.537 273.862 206.537 273.864 206.537 273.865Z" fill="#7FA329"/>
<path d="M228.321 299.584C228.325 299.584 228.328 299.584 228.331 299.584C228.328 299.584 228.325 299.584 228.321 299.584ZM228.38 299.583C228.382 299.583 228.382 299.583 228.385 299.583C228.383 299.583 228.382 299.583 228.38 299.583ZM228.433 299.583C228.435 299.583 228.437 299.583 228.438 299.583C228.437 299.583 228.435 299.583 228.433 299.583ZM228.491 299.582C228.491 299.582 228.492 299.582 228.493 299.582C228.492 299.582 228.491 299.582 228.491 299.582Z" fill="#76521C"/>
<path d="M228.272 299.584C216.259 299.584 206.521 288.486 206.521 274.797C206.521 274.777 206.521 274.756 206.521 274.736C206.521 274.732 206.521 274.729 206.521 274.726C206.521 274.707 206.521 274.687 206.521 274.667C206.521 274.664 206.521 274.661 206.522 274.658C206.522 274.617 206.522 274.575 206.523 274.535C206.523 274.533 206.523 274.528 206.523 274.526C206.523 274.507 206.523 274.486 206.523 274.467C206.523 274.464 206.523 274.461 206.523 274.457C206.523 274.416 206.524 274.375 206.525 274.334C206.525 274.331 206.525 274.329 206.525 274.326C206.525 274.306 206.526 274.285 206.526 274.266C206.526 274.264 206.526 274.26 206.526 274.258C206.526 274.216 206.528 274.175 206.528 274.134C206.529 274.132 206.529 274.128 206.529 274.126C206.529 274.106 206.529 274.087 206.531 274.065C206.531 274.063 206.531 274.062 206.531 274.059C206.531 274.017 206.533 273.974 206.534 273.932C206.534 273.931 206.534 273.93 206.534 273.929C206.534 273.908 206.536 273.887 206.536 273.865C206.536 273.864 206.536 273.862 206.536 273.862C206.895 262.841 213.57 253.666 222.555 250.883C217.024 255.377 213.413 262.742 213.413 271.074C213.413 284.762 223.15 295.86 235.162 295.86C237.141 295.86 239.056 295.552 240.878 294.989C237.377 297.832 233.109 299.53 228.492 299.582C228.492 299.582 228.49 299.582 228.49 299.582C228.472 299.583 228.455 299.583 228.438 299.583C228.436 299.583 228.433 299.583 228.432 299.583C228.417 299.583 228.4 299.583 228.384 299.583C228.382 299.583 228.382 299.583 228.379 299.583C228.363 299.584 228.347 299.584 228.33 299.584C228.327 299.584 228.324 299.584 228.32 299.584C228.304 299.584 228.287 299.584 228.271 299.584" fill="#5C882D"/>
<path d="M256.257 274.282C256.257 265.954 250.333 259.202 243.024 259.202C235.715 259.202 229.79 265.953 229.79 274.282C229.79 282.611 235.715 289.363 243.024 289.363C250.333 289.363 256.257 282.611 256.257 274.282Z" fill="#6BA62E"/>
<path d="M238.629 259.679C238.629 251.169 232.575 244.27 225.107 244.27C217.638 244.27 211.583 251.169 211.583 259.679C211.583 268.192 217.638 275.092 225.107 275.092C232.575 275.092 238.629 268.192 238.629 259.679" fill="#6BA62E"/>
<path d="M224.076 270.357C224.076 263.391 219.12 257.743 213.005 257.743C206.892 257.743 201.936 263.391 201.936 270.357C201.936 277.326 206.892 282.974 213.005 282.974C219.12 282.974 224.076 277.326 224.076 270.357Z" fill="#6BA62E"/>
<path d="M116.052 205.639C116.052 205.635 116.052 205.633 116.052 205.629C116.052 205.632 116.052 205.636 116.052 205.639ZM116.052 205.57C116.052 205.566 116.052 205.564 116.052 205.561C116.052 205.563 116.052 205.566 116.052 205.57ZM116.052 205.438C116.052 205.435 116.052 205.432 116.052 205.429C116.052 205.431 116.052 205.435 116.052 205.438ZM116.053 205.371C116.053 205.367 116.053 205.363 116.053 205.359C116.053 205.363 116.053 205.367 116.053 205.371ZM116.055 205.237C116.055 205.234 116.055 205.232 116.055 205.229C116.055 205.231 116.055 205.235 116.055 205.237ZM116.057 205.168C116.057 205.166 116.057 205.163 116.057 205.161C116.057 205.164 116.057 205.166 116.057 205.168ZM116.059 205.037C116.059 205.035 116.059 205.031 116.059 205.029C116.059 205.032 116.059 205.035 116.059 205.037ZM116.061 204.969C116.061 204.966 116.061 204.964 116.061 204.962C116.061 204.964 116.061 204.966 116.061 204.969ZM116.065 204.835C116.065 204.833 116.065 204.833 116.065 204.831C116.065 204.833 116.065 204.833 116.065 204.835ZM116.067 204.769C116.067 204.767 116.067 204.765 116.067 204.763C116.067 204.765 116.067 204.767 116.067 204.769ZM116.074 204.567V204.567C116.074 204.567 116.074 204.567 116.074 204.567Z" fill="#7FA329"/>
<path d="M137.851 230.487C137.854 230.487 137.857 230.487 137.861 230.487C137.857 230.487 137.854 230.487 137.851 230.487ZM137.91 230.487C137.912 230.486 137.912 230.486 137.915 230.486C137.913 230.486 137.912 230.487 137.91 230.487ZM137.963 230.486C137.965 230.486 137.967 230.486 137.968 230.486C137.966 230.486 137.965 230.486 137.963 230.486ZM138.021 230.486C138.021 230.486 138.023 230.485 138.023 230.485C138.023 230.485 138.021 230.486 138.021 230.486Z" fill="#76521C"/>
<path d="M253.031 306.598C253.031 306.595 253.031 306.592 253.031 306.588C253.031 306.592 253.031 306.595 253.031 306.598ZM253.031 306.529C253.031 306.525 253.031 306.523 253.031 306.52C253.031 306.523 253.031 306.525 253.031 306.529ZM253.032 306.397C253.032 306.394 253.032 306.392 253.032 306.388C253.032 306.391 253.032 306.394 253.032 306.397ZM253.032 306.329C253.032 306.326 253.032 306.322 253.032 306.318C253.032 306.322 253.032 306.326 253.032 306.329ZM253.034 306.196C253.034 306.193 253.034 306.19 253.034 306.188C253.034 306.19 253.034 306.194 253.034 306.196ZM253.035 306.127C253.036 306.125 253.036 306.122 253.036 306.121C253.036 306.122 253.036 306.126 253.035 306.127ZM253.038 305.996C253.038 305.993 253.038 305.991 253.038 305.989C253.038 305.99 253.038 305.994 253.038 305.996ZM253.04 305.928C253.04 305.926 253.04 305.923 253.04 305.922C253.04 305.924 253.04 305.925 253.04 305.928ZM253.043 305.793C253.043 305.793 253.043 305.791 253.043 305.791C253.043 305.791 253.043 305.793 253.043 305.793ZM253.045 305.727C253.045 305.726 253.045 305.725 253.045 305.724C253.045 305.725 253.045 305.726 253.045 305.727Z" fill="#556026"/>
<path d="M274.83 331.446C274.833 331.446 274.837 331.446 274.841 331.446C274.837 331.446 274.834 331.446 274.83 331.446ZM274.89 331.446C274.892 331.446 274.892 331.446 274.895 331.446C274.893 331.446 274.892 331.446 274.89 331.446ZM274.943 331.445C274.944 331.445 274.947 331.445 274.947 331.445C274.946 331.445 274.944 331.445 274.943 331.445ZM275 331.445C275 331.445 275.002 331.445 275.003 331.445C275.002 331.445 275.001 331.445 275 331.445Z" fill="#76521C"/>
<path d="M333.047 93.5155C333.001 93.5155 332.956 93.5121 332.909 93.5044L333.807 92.9934L333.849 93.0221C333.673 93.3282 333.37 93.5155 333.047 93.5155" fill="#807E28"/>
<path d="M299.121 92.642C298.901 92.5038 298.729 92.2682 298.657 91.9705C298.588 91.6849 298.625 91.3946 298.741 91.1535C298.731 91.1739 298.722 91.1952 298.713 91.2166C298.503 91.7276 298.669 92.3369 299.095 92.6235L299.121 92.642V92.642ZM300.989 91.0812L299.906 90.6463C299.8 90.6036 299.692 90.5832 299.585 90.5832C299.312 90.5832 299.05 90.7167 298.867 90.9495C298.986 90.7974 299.144 90.6806 299.33 90.6221L304.466 89.014L305.365 89.6057L300.989 91.0812V91.0812ZM307.452 88.9018L306.605 88.3444L314.516 85.8673C314.599 85.8414 314.685 85.8284 314.771 85.8284C314.853 85.8284 314.936 85.8404 315.017 85.8645L321.508 87.8158V88.4715L314.939 86.3774L307.452 88.9018" fill="#949C27"/>
<path d="M302.803 91.81L300.989 91.0811L305.365 89.6056L306.809 90.5562L302.803 91.81ZM321.509 90.0851L314.777 88.0615L308.948 89.8857L307.452 88.9017L314.939 86.3773L321.509 88.4714V90.0851" fill="#807E28"/>
<path d="M306.809 90.5562L305.365 89.6056L304.466 89.0139L306.605 88.3444L307.452 88.9017L308.948 89.8857L306.809 90.5562Z" fill="#D3B6E0"/>
<path d="M298.741 91.1525C298.743 91.1497 298.744 91.1477 298.744 91.1463C298.744 91.1484 298.742 91.1497 298.741 91.1525ZM298.747 91.1405C298.747 91.1398 298.749 91.1377 298.749 91.137C298.749 91.1377 298.747 91.1398 298.747 91.1405ZM298.861 90.9569C298.862 90.9548 298.864 90.9534 298.866 90.9513C298.864 90.9534 298.863 90.9548 298.861 90.9569Z" fill="#949C27"/>
<path d="M351.883 124.62L348.745 123.572L348.497 123.405L354.08 121.657L356.423 123.198L351.883 124.62V124.62ZM370.282 122.744L363.564 120.962L358.562 122.528L356.219 120.987L363.289 118.773C363.373 118.747 363.459 118.734 363.545 118.734C363.618 118.734 363.691 118.744 363.763 118.762L370.282 120.492V122.744Z" fill="#807E28"/>
<path d="M356.423 123.198L354.08 121.657L356.219 120.987L358.562 122.529L356.423 123.198Z" fill="#D3B6E0"/>
<path d="M348.093 125.64C348.031 125.62 347.972 125.593 347.915 125.559C347.97 125.592 348.028 125.618 348.088 125.638L348.093 125.64" fill="#949C27"/>
<path d="M321.035 391.743C312.214 391.743 305.064 386.945 305.064 381.027C305.064 375.109 312.214 370.311 321.035 370.311C321.937 370.311 322.821 370.361 323.681 370.458V389.133V389.133C323.681 389.969 324.934 390.647 326.479 390.647C328.023 390.647 329.275 389.969 329.275 389.133V389.133V371.845C333.907 373.721 337.005 377.131 337.005 381.027C337.005 386.945 329.854 391.743 321.035 391.743" fill="#949C27"/>
<path d="M329.275 389.134V355.142H323.681V389.134C323.681 389.969 324.934 390.647 326.478 390.647C328.023 390.647 329.275 389.969 329.275 389.134Z" fill="#A13823"/>
<path d="M346.699 340.119C346.699 326.43 336.96 315.334 324.949 315.334C312.937 315.334 303.199 326.43 303.199 340.119C303.199 353.809 312.937 364.905 324.949 364.905C336.96 364.905 346.699 353.809 346.699 340.119Z" fill="#6BA62E"/>
<path d="M324.998 364.906C325.001 364.906 325.005 364.906 325.009 364.906C325.004 364.906 325.001 364.906 324.998 364.906ZM325.057 364.906C325.059 364.906 325.061 364.906 325.063 364.906C325.061 364.906 325.059 364.906 325.057 364.906ZM325.11 364.905C325.112 364.905 325.114 364.905 325.116 364.905C325.114 364.905 325.112 364.905 325.11 364.905ZM325.167 364.905C325.168 364.905 325.17 364.905 325.172 364.905C325.17 364.905 325.169 364.905 325.167 364.905Z" fill="#76521C"/>
<path d="M303.199 340.058C303.199 340.055 303.199 340.053 303.199 340.049C303.199 340.052 303.199 340.055 303.199 340.058ZM303.2 339.99C303.2 339.986 303.2 339.984 303.2 339.98C303.2 339.983 303.2 339.986 303.2 339.99ZM303.2 339.857C303.2 339.854 303.2 339.851 303.2 339.849C303.2 339.851 303.2 339.855 303.2 339.857ZM303.2 339.789C303.201 339.786 303.201 339.784 303.201 339.78C303.201 339.784 303.201 339.786 303.2 339.789ZM303.203 339.656C303.203 339.654 303.203 339.651 303.203 339.65C303.203 339.652 303.203 339.653 303.203 339.656ZM303.203 339.587C303.203 339.586 303.203 339.584 303.203 339.582C303.203 339.584 303.203 339.585 303.203 339.587ZM303.207 339.455C303.207 339.453 303.207 339.452 303.207 339.45C303.207 339.452 303.207 339.453 303.207 339.455ZM303.208 339.388C303.208 339.386 303.208 339.384 303.208 339.382C303.208 339.384 303.208 339.386 303.208 339.388ZM303.211 339.252C303.211 339.253 303.211 339.252 303.211 339.252Z" fill="#556026"/>
<path d="M324.949 364.905C312.937 364.905 303.199 353.809 303.199 340.119C303.199 340.099 303.199 340.079 303.199 340.058C303.199 340.055 303.199 340.052 303.199 340.049C303.199 340.03 303.199 340.009 303.2 339.99C303.2 339.986 303.2 339.983 303.2 339.98C303.2 339.939 303.2 339.899 303.2 339.857C303.2 339.855 303.2 339.852 303.2 339.849C303.2 339.829 303.2 339.809 303.2 339.789C303.201 339.786 303.201 339.784 303.201 339.78C303.201 339.739 303.202 339.697 303.203 339.656C303.203 339.653 303.203 339.651 303.203 339.65C303.203 339.628 303.203 339.609 303.203 339.588C303.203 339.585 303.203 339.584 303.203 339.582C303.204 339.54 303.205 339.498 303.207 339.456C303.207 339.454 303.207 339.452 303.207 339.45C303.207 339.43 303.207 339.409 303.208 339.388C303.208 339.386 303.208 339.385 303.208 339.383C303.209 339.339 303.211 339.296 303.211 339.253C303.211 339.252 303.211 339.253 303.211 339.253C303.545 328.202 310.229 318.994 319.232 316.205C313.702 320.699 310.091 328.065 310.091 336.396C310.091 350.085 319.828 361.182 331.84 361.182C333.819 361.182 335.733 360.874 337.555 360.311C334.054 363.155 329.787 364.852 325.171 364.905C325.17 364.905 325.168 364.905 325.166 364.905C325.149 364.905 325.132 364.905 325.115 364.905C325.113 364.905 325.111 364.905 325.109 364.905C325.093 364.905 325.078 364.905 325.062 364.905C325.06 364.905 325.058 364.905 325.056 364.905C325.04 364.905 325.024 364.905 325.008 364.905C325.003 364.905 325 364.905 324.997 364.905C324.981 364.905 324.964 364.905 324.947 364.905" fill="#5C882D"/>
<path d="M351.652 341.798C351.652 333.469 345.726 326.718 338.418 326.718C331.109 326.718 325.185 333.469 325.185 341.798C325.185 350.127 331.109 356.879 338.418 356.879C345.726 356.879 351.652 350.127 351.652 341.798Z" fill="#6BA62E"/>
<path d="M334.666 327.927C334.666 319.417 328.611 312.517 321.142 312.517C313.674 312.517 307.619 319.417 307.619 327.927C307.619 336.439 313.674 343.338 321.142 343.338C328.611 343.338 334.666 336.439 334.666 327.927Z" fill="#6BA62E"/>
<path d="M321.395 341.529C321.395 334.562 316.439 328.915 310.325 328.915C304.211 328.915 299.255 334.562 299.255 341.529C299.255 348.498 304.211 354.145 310.325 354.145C316.439 354.145 321.395 348.498 321.395 341.529Z" fill="#6BA62E"/>
<path d="M584.759 198.701C575.939 198.701 568.788 193.903 568.788 187.985C568.788 182.066 575.939 177.268 584.759 177.268C586.348 177.268 587.882 177.424 589.331 177.715V194.628V194.63C589.331 195.465 590.582 196.143 592.127 196.143C593.672 196.143 594.923 195.465 594.923 194.63V194.628V179.719C598.47 181.685 600.73 184.657 600.73 187.985C600.73 193.903 593.579 198.701 584.759 198.701Z" fill="#949C27"/>
<path d="M582.056 163.227C581.962 163.817 581.914 164.421 581.918 165.024L581.931 167.959C581.953 173.288 585.777 177.602 590.452 177.575C591.668 177.568 592.842 177.274 593.938 176.702L593.011 174.398C592.204 174.819 591.339 175.036 590.441 175.041C586.991 175.06 584.171 171.879 584.154 167.946L584.141 165.011C584.139 164.566 584.174 164.119 584.244 163.684L582.056 163.227" fill="#462716"/>
<path d="M594.923 194.629V160.637H589.331V194.629C589.331 195.465 590.582 196.143 592.127 196.143C593.673 196.143 594.923 195.465 594.923 194.629Z" fill="#A13823"/>
<path d="M612.348 145.615C612.348 131.926 602.61 120.829 590.598 120.829C578.586 120.829 568.849 131.926 568.849 145.615C568.849 159.305 578.586 170.401 590.598 170.401C602.61 170.401 612.348 159.305 612.348 145.615Z" fill="#6BA62E"/>
<path d="M568.849 145.554C568.849 145.551 568.849 145.548 568.849 145.544C568.849 145.547 568.849 145.55 568.849 145.554ZM568.849 145.485C568.849 145.481 568.849 145.479 568.849 145.475C568.849 145.479 568.849 145.482 568.849 145.485ZM568.849 145.353C568.849 145.349 568.849 145.347 568.849 145.344C568.849 145.347 568.849 145.35 568.849 145.353ZM568.85 145.284C568.85 145.281 568.85 145.279 568.85 145.275C568.85 145.278 568.85 145.281 568.85 145.284ZM568.852 145.152C568.852 145.149 568.852 145.146 568.852 145.144C568.852 145.147 568.852 145.149 568.852 145.152ZM568.854 145.083C568.854 145.08 568.854 145.079 568.854 145.077C568.854 145.078 568.854 145.081 568.854 145.083ZM568.856 144.95C568.856 144.948 568.856 144.947 568.856 144.945C568.856 144.947 568.856 144.948 568.856 144.95ZM568.858 144.883C568.858 144.882 568.858 144.879 568.858 144.877C568.858 144.879 568.858 144.882 568.858 144.883ZM568.862 144.748V144.747C568.862 144.748 568.862 144.747 568.862 144.748ZM568.864 144.682C568.864 144.682 568.864 144.68 568.864 144.68C568.864 144.68 568.864 144.681 568.864 144.682Z" fill="#556026"/>
<path d="M590.647 170.402C590.651 170.402 590.654 170.402 590.658 170.402C590.654 170.402 590.651 170.402 590.647 170.402ZM590.706 170.402C590.709 170.401 590.71 170.401 590.713 170.401C590.71 170.401 590.708 170.401 590.706 170.402ZM590.759 170.401C590.761 170.401 590.763 170.401 590.766 170.401C590.763 170.401 590.761 170.401 590.759 170.401ZM590.817 170.401C590.817 170.401 590.82 170.4 590.821 170.4C590.819 170.4 590.819 170.4 590.817 170.401Z" fill="#76521C"/>
<path d="M590.598 170.401C588.401 170.401 586.28 170.03 584.28 169.339C583.479 169.063 582.698 168.734 581.94 168.359C581.926 168.353 581.913 168.346 581.9 168.339C580.316 167.551 578.83 166.554 577.47 165.378C572.232 160.852 568.849 153.685 568.849 145.615C568.849 145.595 568.849 145.573 568.849 145.554C568.849 145.551 568.849 145.548 568.849 145.544C568.849 145.524 568.849 145.504 568.849 145.484C568.849 145.482 568.849 145.479 568.849 145.475C568.849 145.435 568.849 145.393 568.849 145.353C568.849 145.35 568.849 145.347 568.849 145.344C568.85 145.325 568.85 145.304 568.85 145.284C568.85 145.281 568.85 145.279 568.85 145.275C568.85 145.234 568.852 145.192 568.852 145.152C568.852 145.149 568.852 145.147 568.852 145.144C568.852 145.124 568.852 145.103 568.854 145.083C568.854 145.081 568.854 145.078 568.854 145.077C568.854 145.036 568.855 144.992 568.856 144.95C568.856 144.948 568.856 144.947 568.856 144.945C568.857 144.924 568.858 144.904 568.858 144.883C568.858 144.882 568.858 144.879 568.858 144.877C568.86 144.833 568.86 144.792 568.862 144.748C568.862 144.747 568.862 144.748 568.862 144.747C568.863 144.725 568.863 144.705 568.864 144.683C568.864 144.682 568.864 144.68 568.864 144.68C569.224 133.66 575.899 124.483 584.883 121.7C579.352 126.194 575.741 133.559 575.741 141.891C575.741 155.579 585.478 166.678 597.491 166.678C599.47 166.678 601.384 166.369 603.206 165.806C599.705 168.65 595.437 170.346 590.822 170.399C590.821 170.399 590.818 170.4 590.817 170.4C590.8 170.4 590.783 170.4 590.766 170.4C590.764 170.4 590.762 170.4 590.759 170.4C590.744 170.4 590.729 170.4 590.713 170.4C590.711 170.4 590.709 170.4 590.707 170.401C590.69 170.401 590.675 170.401 590.658 170.401C590.654 170.401 590.651 170.401 590.648 170.401C590.632 170.401 590.615 170.401 590.598 170.401" fill="#5C882D"/>
<path d="M614.009 130.341C614.009 121.331 607.6 114.028 599.695 114.028C591.788 114.028 585.38 121.331 585.38 130.341C585.38 139.35 591.788 146.653 599.695 146.653C607.6 146.653 614.009 139.35 614.009 130.341Z" fill="#6BA62E"/>
<path d="M601.138 135.269C601.138 125.626 594.276 117.806 585.813 117.806C577.349 117.806 570.488 125.626 570.488 135.269C570.488 144.915 577.349 152.734 585.813 152.734C594.276 152.734 601.138 144.916 601.138 135.269Z" fill="#6BA62E"/>
<path d="M586.578 142.132C586.578 135.166 581.622 129.517 575.508 129.517C569.394 129.517 564.438 135.166 564.438 142.132C564.438 149.1 569.394 154.748 575.508 154.748C581.622 154.748 586.578 149.1 586.578 142.132Z" fill="#6BA62E"/>
<path d="M593.851 125.801C593.851 118.835 588.894 113.187 582.78 113.187C576.666 113.187 571.71 118.835 571.71 125.801C571.71 132.77 576.666 138.418 582.78 138.418C588.894 138.418 593.851 132.77 593.851 125.801Z" fill="#6BA62E"/>
<path d="M616.053 151.905C616.053 143.606 610.148 136.877 602.865 136.877C595.581 136.877 589.677 143.606 589.677 151.905C589.677 160.207 595.581 166.935 602.865 166.935C610.148 166.935 616.053 160.207 616.053 151.905Z" fill="#6BA62E"/>
<path d="M250.278 212.988C250.223 212.988 250.166 212.983 250.11 212.971C250.164 212.982 250.221 212.987 250.278 212.987C250.357 212.987 250.434 212.977 250.506 212.957C250.433 212.977 250.356 212.988 250.278 212.988ZM250.509 212.956C250.511 212.955 250.513 212.955 250.514 212.954C250.513 212.954 250.511 212.954 250.509 212.956ZM249.969 212.93L249.453 212.746L249.592 212.661C249.696 212.781 249.825 212.874 249.969 212.93V212.93ZM250.875 212.752C250.877 212.75 250.879 212.747 250.881 212.746C250.879 212.748 250.877 212.75 250.875 212.752ZM250.881 212.746C250.968 212.667 251.043 212.57 251.1 212.462C251.042 212.572 250.967 212.668 250.881 212.746ZM251.104 212.454C251.104 212.454 251.104 212.454 251.104 212.454C251.104 212.454 251.104 212.454 251.104 212.454ZM251.228 212.069C251.236 212.012 251.24 211.952 251.24 211.891V211.863C251.242 211.931 251.238 212.001 251.228 212.069" fill="#D3B6E0"/>
<path d="M188.88 174.914L179.057 170.723C179.084 170.25 178.838 169.794 178.429 169.623L189.1 173.793L188.88 174.914Z" fill="#949C27"/>
<path d="M188.135 178.699L178.605 172.27L179.001 171.027C179.033 170.926 179.051 170.824 179.057 170.723L188.879 174.914L188.676 175.947L186.674 175.164L188.578 176.449L188.135 178.699" fill="#807E28"/>
<path d="M177.321 170.002C177.495 169.732 177.768 169.569 178.058 169.556C177.768 169.569 177.495 169.732 177.321 170.002ZM178.061 169.555H178.062H178.061Z" fill="#949C27"/>
<path d="M235.022 221.961L222.193 219.073C221.931 219.014 221.704 218.836 221.563 218.58L234.628 221.691L235.022 221.961" fill="#949C27"/>
<path d="M234.628 221.691L221.563 218.58C221.556 218.567 221.549 218.553 221.542 218.54C221.404 218.262 221.378 217.931 221.471 217.63L222.743 213.541L224.426 214.696L223.658 217.167L230.167 218.632L234.628 221.691" fill="#807E28"/>
<path d="M173.495 185.828L173.354 185.784C173.096 185.701 172.879 185.501 172.756 185.228C172.633 184.958 172.615 184.639 172.707 184.352L177.192 170.278C177.224 170.177 177.268 170.085 177.321 170.002C177.284 170.061 177.25 170.125 177.223 170.192C177.016 170.702 177.181 171.309 177.606 171.595L177.83 171.747L172.864 185.397L173.495 185.828" fill="#949C27"/>
<path d="M186.534 189.915C186.448 189.915 186.362 189.902 186.276 189.875L173.495 185.828L172.864 185.397L177.83 171.747L178.605 172.27L174.871 183.987L186.378 187.63L186.362 187.717C186.271 188.177 186.45 188.652 186.804 188.896L187.397 189.302C187.235 189.678 186.896 189.915 186.533 189.915" fill="#807E28"/>
<path d="M178.429 169.623L178.409 169.615C178.306 169.575 178.2 169.555 178.096 169.555C178.084 169.555 178.074 169.555 178.062 169.555C178.074 169.555 178.085 169.555 178.097 169.555C178.206 169.555 178.317 169.577 178.425 169.621C178.426 169.621 178.428 169.622 178.428 169.623L178.429 169.623ZM178.058 169.556C178.059 169.556 178.06 169.556 178.061 169.556C178.059 169.556 178.059 169.556 178.058 169.556Z" fill="#949C27"/>
<path d="M177.83 171.747L177.606 171.595C177.181 171.309 177.016 170.702 177.223 170.192C177.25 170.125 177.284 170.061 177.321 170.002C177.495 169.732 177.769 169.569 178.058 169.556C178.059 169.556 178.06 169.556 178.061 169.555H178.062C178.073 169.555 178.084 169.555 178.095 169.555C178.2 169.555 178.305 169.575 178.409 169.615L178.428 169.623C178.838 169.794 179.083 170.25 179.056 170.723L178.317 170.407L177.829 171.747" fill="#786E27"/>
<path d="M178.605 172.27L177.83 171.747L178.317 170.407L179.057 170.723C179.051 170.824 179.033 170.926 179.001 171.027L178.605 172.27" fill="#685828"/>
<path d="M370.282 115.447L334.866 91.159L334.121 79.8354C334.51 79.8994 334.901 79.9644 335.288 80.0311L370.282 103.64V115.447" fill="#DEEE8D"/>
<path d="M335.288 80.0312C334.901 79.9644 334.51 79.8995 334.121 79.8355L334.097 79.4636C334.25 79.4878 334.404 79.5137 334.558 79.5387L335.288 80.0312Z" fill="white"/>
<path d="M334.558 79.5387C334.404 79.5137 334.251 79.4877 334.097 79.4636L334.08 79.2169L334.558 79.5387" fill="white"/>
<path d="M381.187 122.924L372.207 116.766V103.402L379.782 100.908L381.187 122.924Z" fill="#DEEE8D"/>
<path d="M323.433 98.9038V90.6638L332.8 93.4785C332.837 93.4896 332.873 93.498 332.909 93.5044L323.433 98.9038" fill="#D2DB8D"/>
<path d="M332.941 91.2528L323.433 88.3945V78.5817C326.365 78.795 329.281 79.114 332.171 79.535L332.941 91.2528" fill="#DEEE8D"/>
<path d="M331.044 77.1682C328.523 76.8298 325.984 76.5673 323.433 76.3846V72.2502C323.553 72.2577 323.672 72.266 323.79 72.2744L331.044 77.1683" fill="#E3A393"/>
<path d="M332.171 79.535C329.281 79.114 326.365 78.795 323.433 78.5817V78.2153C326.357 78.4277 329.265 78.7449 332.147 79.1641L332.171 79.535V79.535ZM331.729 77.6301C328.984 77.2443 326.215 76.9504 323.433 76.751V76.3846C325.984 76.5673 328.523 76.8298 331.044 77.1683L331.729 77.6301" fill="white"/>
<path d="M323.79 72.2743C323.672 72.266 323.553 72.2577 323.433 72.2502V72.0332L323.79 72.2743" fill="#ECBFB5"/>
<path d="M332.147 79.1641C329.265 78.7449 326.357 78.4277 323.433 78.2153V76.751C326.215 76.9504 328.984 77.2444 331.729 77.6301L332.061 77.8546L332.147 79.1641" fill="white"/>
<path d="M372.992 132.022L372.207 131.506V131.481L381.03 125.592C381.08 125.601 381.13 125.605 381.179 125.605C381.233 125.605 381.287 125.6 381.34 125.589L381.785 125.895C381.938 126 382.11 126.052 382.281 126.052C382.456 126.052 382.63 125.998 382.786 125.89C382.844 125.849 382.897 125.802 382.945 125.749L382.955 125.863L372.992 132.022" fill="#DEEE8D"/>
<path d="M372.207 131.481V123.255L380.96 125.576C380.983 125.582 381.007 125.588 381.03 125.592L372.207 131.481" fill="#D2DB8D"/>
<path d="M372.097 132.575C372.167 132.423 372.207 132.25 372.207 132.066V131.506L372.992 132.022L372.097 132.575" fill="white"/>
<path d="M376.192 122.059L372.207 121.002V119.327L376.192 122.059Z" fill="#D2DB8D"/>
<path d="M370.941 101.536L340.612 81.0735C352.57 83.6971 363.917 88.1088 373.98 94.1165L380.403 98.4196C380.398 98.4217 380.393 98.4231 380.388 98.4245L370.941 101.536" fill="#DEEE8D"/>
<path d="M360.185 84.8722C352.495 81.7394 344.344 79.4042 335.951 77.9287L333.905 76.5488L333.694 73.3372C338.147 73.9845 342.543 74.8535 346.852 75.9376L360.185 84.8722V84.8722ZM343.412 73.6321C340.178 72.918 336.903 72.3226 333.596 71.8487L333.293 67.2413C333.537 67.2728 333.778 67.3053 334.02 67.3387L343.412 73.6321Z" fill="#E3A393"/>
<path d="M373.98 94.1165C363.917 88.1088 352.57 83.6971 340.612 81.0735L339.803 80.5282C350.52 82.7966 360.757 86.4923 370.041 91.4771L373.98 94.1165ZM361.718 85.8988C353.808 82.5305 345.387 80.0181 336.696 78.4314L335.951 77.9287C344.344 79.4042 352.495 81.7394 360.185 84.8722L361.718 85.8988" fill="white"/>
<path d="M334.02 67.3387C333.778 67.3053 333.537 67.2729 333.293 67.2413L333.276 66.9789C333.273 66.9279 333.267 66.8769 333.257 66.8268L334.02 67.3387Z" fill="#ECBFB5"/>
<path d="M346.853 75.9376C342.543 74.8534 338.147 73.9844 333.694 73.3371L333.596 71.8486C336.903 72.3225 340.178 72.9179 343.412 73.632L346.853 75.9376Z" fill="#ECBFB5"/>
<path d="M370.041 91.4772C360.757 86.4924 350.52 82.7967 339.803 80.5283L336.696 78.4314C345.387 80.0182 353.808 82.5305 361.718 85.8988L370.041 91.4772Z" fill="white"/>
<path d="M333.026 92.1422L323.433 89.0854V88.3945L332.941 91.2528L332.983 91.889C332.989 91.9761 333.004 92.0605 333.026 92.1422Z" fill="#CBD08E"/>
<path d="M332.909 93.5044C332.873 93.4981 332.837 93.4896 332.8 93.4784L323.433 90.6638V89.0853L333.026 92.142C333.096 92.3915 333.244 92.6076 333.446 92.7458L333.807 92.9934L332.909 93.5044" fill="#C1C08E"/>
<path d="M381.179 125.605C381.13 125.605 381.08 125.601 381.031 125.592L381.189 125.486L381.34 125.589C381.287 125.6 381.233 125.605 381.179 125.605Z" fill="#CBD08E"/>
<path d="M381.03 125.592C381.007 125.588 380.983 125.582 380.96 125.576L372.207 123.255V121.002L376.192 122.059L381.189 125.486L381.03 125.592" fill="#C1C08E"/>
<path d="M369.649 132.838L354.968 127.936L355.61 127.511L370.196 132.26L370.312 132.336C370.316 132.354 370.32 132.372 370.325 132.391L369.649 132.838V132.838ZM352.87 127.235L348.093 125.64C348.177 125.668 348.267 125.683 348.358 125.683C348.442 125.683 348.528 125.67 348.614 125.643L349.257 125.442L353.495 126.822L352.87 127.235Z" fill="#949C27"/>
<path d="M370.196 132.26L355.61 127.51L357.263 126.416L365.489 129.163L370.196 132.26ZM353.495 126.821L349.257 125.441L351.883 124.62L355.165 125.715L353.495 126.821" fill="#807E28"/>
<path d="M371.126 133.284C371.036 133.284 370.945 133.271 370.855 133.24L369.649 132.837L370.325 132.39C370.435 132.796 370.745 133.101 371.125 133.154V133.176L371.154 133.157C371.184 133.161 371.214 133.162 371.244 133.162C371.462 133.162 371.663 133.08 371.825 132.941C371.645 133.158 371.392 133.285 371.126 133.285V133.284ZM370.312 132.336L370.196 132.26L365.489 129.163L370.282 130.763V132.066C370.282 132.159 370.292 132.25 370.312 132.336ZM354.968 127.936L352.87 127.235L353.495 126.822L355.165 125.715L357.263 126.416L355.61 127.511L354.968 127.936" fill="#D3B6E0"/>
<path d="M347.914 125.559C347.899 125.55 347.884 125.54 347.868 125.53L330.031 113.496L330.639 113.092L347.398 124.513C347.39 124.633 347.401 124.754 347.43 124.876C347.504 125.183 347.685 125.423 347.914 125.559V125.559ZM328.463 112.438L317.525 105.058L318.197 104.613L329.079 112.03L328.463 112.438ZM315.961 104.003L299.121 92.642C299.261 92.7291 299.42 92.7774 299.584 92.7774C299.669 92.7774 299.754 92.7644 299.84 92.7384L300.479 92.5381L316.641 103.553L315.961 104.003Z" fill="#949C27"/>
<path d="M347.398 124.513L330.639 113.092L331.938 112.232L348.497 123.405L348.103 123.528C347.697 123.655 347.424 124.061 347.398 124.513V124.513ZM329.079 112.03L318.197 104.613L319.432 103.795L330.37 111.175L329.079 112.03V112.03ZM316.641 103.553L300.479 92.5381L302.803 91.8101L317.997 97.9161L321.508 100.226V100.329L320.263 101.154L308.521 96.4341L317.867 102.74L316.641 103.553ZM322.351 101.927C322.321 101.927 322.29 101.925 322.26 101.922L322.439 101.804C322.449 101.804 322.46 101.804 322.471 101.804C322.688 101.804 322.889 101.723 323.05 101.584C322.869 101.801 322.616 101.927 322.351 101.927" fill="#807E28"/>
<path d="M330.031 113.496L328.463 112.438L329.079 112.03L330.37 111.175L331.938 112.232L330.639 113.092L330.031 113.496ZM317.525 105.058L315.961 104.003L316.641 103.553L317.867 102.741L319.432 103.795L318.197 104.613L317.525 105.058V105.058ZM322.26 101.922C322.184 101.913 322.107 101.895 322.031 101.864L320.263 101.154L321.509 100.329V100.708C321.509 101.301 321.922 101.784 322.439 101.804L322.26 101.922V101.922ZM321.509 100.226L317.997 97.9161L321.509 99.3277V100.226Z" fill="#D3B6E0"/>
<path d="M298.741 91.1535V91.1528V91.1535ZM298.744 91.146C298.745 91.144 298.746 91.1426 298.747 91.1405C298.746 91.1426 298.745 91.144 298.744 91.146ZM298.749 91.1368C298.782 91.0719 298.819 91.0116 298.861 90.9569C298.818 91.0125 298.781 91.0728 298.749 91.1368ZM298.866 90.9513C298.866 90.9513 298.866 90.9506 298.867 90.9492C298.867 90.9499 298.866 90.9513 298.866 90.9513Z" fill="#949C27"/>
<path d="M299.584 92.7773C299.42 92.7773 299.261 92.7291 299.121 92.6419L299.095 92.6233C298.669 92.3368 298.503 91.7275 298.713 91.2165C298.722 91.1951 298.731 91.1738 298.741 91.1534V91.1527C298.743 91.1499 298.744 91.1478 298.744 91.1464C298.745 91.1444 298.746 91.143 298.747 91.1409C298.747 91.1402 298.748 91.1381 298.749 91.1374C298.781 91.0734 298.818 91.0131 298.861 90.9575C298.862 90.9554 298.864 90.954 298.866 90.9519C298.866 90.9519 298.866 90.9512 298.867 90.9498C299.05 90.717 299.313 90.5835 299.585 90.5835C299.692 90.5835 299.8 90.6039 299.906 90.6466L300.989 91.0815L299.218 91.6788L300.479 92.5385L299.841 92.7388C299.754 92.7647 299.669 92.7778 299.584 92.7778" fill="#786E27"/>
<path d="M300.479 92.5381L299.218 91.6784L300.989 91.0812L302.803 91.8101L300.479 92.5381" fill="#685828"/>
<path d="M348.358 125.683C348.267 125.683 348.177 125.668 348.093 125.64L348.088 125.638C348.028 125.618 347.97 125.591 347.914 125.559C347.685 125.423 347.504 125.183 347.43 124.876C347.401 124.754 347.39 124.633 347.398 124.513L348.305 125.132L349.257 125.441L348.614 125.643C348.528 125.669 348.442 125.682 348.358 125.682" fill="#786E27"/>
<path d="M349.256 125.441L348.305 125.132L347.398 124.513C347.424 124.061 347.697 123.655 348.103 123.528L348.497 123.405L348.745 123.572L351.883 124.62L349.256 125.441" fill="#685828"/>
<path d="M371.125 133.176V133.154C371.134 133.156 371.144 133.156 371.154 133.157L371.125 133.176" fill="#D3B6E0"/>
<path d="M333.276 66.9789C333.256 66.6618 333.114 66.3706 332.891 66.1804C332.667 65.9913 332.38 65.9217 332.109 65.9903L322.484 68.4275C321.964 68.5592 321.637 69.1454 321.753 69.7361C321.867 70.3278 322.386 70.7006 322.901 70.5689L331.44 68.4071L332.983 91.889C333.006 92.2432 333.179 92.5632 333.446 92.7459L381.785 125.895C381.938 126 382.11 126.052 382.281 126.052C382.456 126.052 382.63 125.998 382.786 125.89C383.092 125.675 383.268 125.284 383.242 124.876L381.616 99.3991C381.594 99.0689 381.444 98.7675 381.205 98.5783C380.968 98.3892 380.667 98.3326 380.388 98.4244L370.763 101.593C370.253 101.762 369.959 102.37 370.106 102.952C370.253 103.533 370.785 103.87 371.298 103.701L379.782 100.908L381.187 122.925L334.866 91.1591L333.276 66.9789" fill="white"/>
<path d="M250.278 212.987C250.809 212.987 251.24 212.497 251.24 211.891V182.109C251.24 181.721 251.061 181.362 250.768 181.164L201.995 148.259C201.697 148.058 201.328 148.055 201.027 148.25C200.727 148.446 200.542 148.809 200.542 149.203V179.801C200.542 180.407 200.973 180.898 201.504 180.898C202.036 180.898 202.467 180.407 202.467 179.801V151.127L249.315 182.734V211.891C249.315 212.497 249.747 212.987 250.278 212.987" fill="white"/>
<path d="M202.014 149.692C202.369 149.241 202.336 148.548 201.94 148.143C201.543 147.739 200.936 147.776 200.581 148.228L192.145 158.95C192.035 159.09 191.958 159.259 191.922 159.442L186.362 187.717C186.271 188.177 186.45 188.652 186.804 188.896L235.144 222.044C235.296 222.149 235.467 222.202 235.64 222.202C235.768 222.202 235.897 222.172 236.018 222.113C236.302 221.975 236.511 221.688 236.579 221.344L242.081 193.371L250.971 182.87C251.339 182.434 251.329 181.739 250.946 181.319C250.565 180.899 249.955 180.911 249.586 181.347L240.507 192.07C240.385 192.214 240.3 192.394 240.261 192.591L234.992 219.381L188.392 187.424L193.745 160.201L202.014 149.692" fill="white"/>
<path d="M371.244 133.162C371.776 133.162 372.207 132.672 372.207 132.066V103.015C372.207 102.627 372.027 102.268 371.735 102.071L322.961 69.1657C322.665 68.9645 322.295 68.9617 321.994 69.1565C321.694 69.3522 321.509 69.7157 321.509 70.1099V100.708C321.509 101.313 321.939 101.805 322.471 101.805C323.003 101.805 323.433 101.313 323.433 100.708V72.0333L370.282 103.64V132.066C370.282 132.672 370.713 133.162 371.244 133.162" fill="white"/>
<path d="M236.735 220.555L239.002 209.026L247.191 211.94L248.916 213.075L236.735 220.555" fill="#D2DB8D"/>
<path d="M248.916 213.075L247.19 211.94L249.453 212.746L248.916 213.075" fill="white"/>
<path d="M249.315 210.399L246.472 209.386L239.795 204.994L239.972 204.092L248.784 198.255L241.998 193.791L242.081 193.371L249.315 184.825V210.399V210.399ZM239.577 206.932L239.424 206.878L239.432 206.837L239.577 206.932L239.577 206.932ZM240.445 201.688L241.635 195.634L245.624 198.258L240.445 201.688" fill="#DEEE8D"/>
<path d="M246.472 209.386L239.577 206.932L239.432 206.837L239.795 204.994L246.472 209.386V209.386ZM239.972 204.092L240.445 201.688L245.624 198.258L241.635 195.634L241.998 193.791L248.784 198.256L239.972 204.092Z" fill="white"/>
<path d="M249.315 211.258L246.472 209.386L249.315 210.399V211.258ZM244.556 210.208L239.172 208.157L239.424 206.878L239.577 206.932L244.556 210.208" fill="#CBD08E"/>
<path d="M247.191 211.94L239.002 209.025L239.172 208.157L244.556 210.208L247.191 211.94" fill="#C1C08E"/>
<path d="M249.453 212.746L247.19 211.94L244.556 210.208L239.577 206.932L246.472 209.386L249.315 211.258V211.891C249.315 212.191 249.421 212.463 249.592 212.661L249.453 212.746" fill="#ECDCF0"/>
<path d="M234.992 219.381L225.083 212.586L227.468 204.919L237.158 208.369L234.992 219.381V219.381ZM223.399 211.431L188.402 187.431C189.873 186.552 192.467 184.906 194.962 183.305L225.698 204.042L223.399 211.431" fill="#D2DB8D"/>
<path d="M237.58 206.221L227.263 202.548L197.891 182.732L200.443 181.185L212.59 189.175L237.623 205.647L237.685 205.687L237.58 206.221V206.221ZM237.617 203.56L215.753 189.175L223.759 183.873L239.889 194.485L238.177 203.189L237.617 203.56V203.56ZM240.251 192.642L223.749 181.785L214.166 188.132L203.088 180.843L225.003 166.331L248.74 182.346L244.961 186.81C245.207 186.122 244.922 185.367 244.106 184.83C243.481 184.42 242.666 184.215 241.851 184.215C241.035 184.215 240.221 184.42 239.601 184.83C238.358 185.653 238.365 186.982 239.616 187.805C240.24 188.214 241.056 188.42 241.872 188.42C242.685 188.42 243.496 188.216 244.116 187.808L240.508 192.07C240.385 192.214 240.3 192.394 240.261 192.591L240.251 192.642V192.642ZM202.467 179.164V152.778L203.702 151.96L223.439 165.275L202.467 179.164" fill="#DEEE8D"/>
<path d="M197.891 182.732L196.896 182.06C197.802 181.477 198.644 180.932 199.356 180.47L199.928 180.845L200.443 181.185L197.891 182.732" fill="#D2DB8D"/>
<path d="M237.685 205.687L237.623 205.647L212.589 189.175L200.443 181.185L199.928 180.845L199.356 180.47C199.471 180.395 199.583 180.322 199.691 180.252L201.162 180.827C201.259 180.869 201.363 180.894 201.472 180.897C201.483 180.898 201.495 180.898 201.506 180.898C201.849 180.898 202.17 180.688 202.342 180.343C202.403 180.219 202.444 180.081 202.46 179.934C202.465 179.883 202.468 179.832 202.467 179.781V179.164L223.439 165.275L225.003 166.33L203.088 180.842L214.166 188.132L223.749 181.785L240.251 192.642L239.889 194.485L223.759 183.873L215.753 189.175L237.617 203.56L238.177 203.189L237.685 205.687V205.687ZM202.467 152.777V151.127L203.702 151.96L202.467 152.777Z" fill="white"/>
<path d="M241.871 188.42C241.056 188.42 240.24 188.215 239.616 187.805C238.365 186.982 238.358 185.653 239.601 184.831C240.221 184.421 241.035 184.215 241.851 184.215C242.666 184.215 243.481 184.42 244.106 184.831C244.922 185.367 245.206 186.122 244.961 186.811L244.116 187.808C243.496 188.216 242.684 188.42 241.871 188.42" fill="white"/>
<path d="M237.337 207.459L227.803 203.829C227.925 203.285 227.665 202.714 227.192 202.523C227.085 202.481 226.977 202.46 226.87 202.46C226.569 202.46 226.28 202.624 226.098 202.903L196.712 183.447L197.891 182.732L227.263 202.548L237.58 206.221L237.337 207.459" fill="#CBD08E"/>
<path d="M237.158 208.369L227.468 204.919L227.777 203.924C227.787 203.892 227.796 203.861 227.803 203.829L237.337 207.459L237.158 208.369H237.158ZM225.698 204.042L194.962 183.305C195.621 182.882 196.273 182.463 196.896 182.06L197.891 182.732L196.712 183.447L226.098 202.903C226.042 202.988 225.996 203.085 225.963 203.191L225.698 204.042" fill="#C1C08E"/>
<path d="M201.506 180.898C201.495 180.898 201.483 180.898 201.472 180.898C201.482 180.898 201.493 180.898 201.504 180.898C201.863 180.898 202.176 180.675 202.342 180.344C202.17 180.689 201.849 180.898 201.506 180.898H201.506ZM201.162 180.827L199.691 180.252C200.009 180.045 200.296 179.86 200.542 179.699V179.801C200.542 180.269 200.8 180.669 201.162 180.827V180.827ZM202.46 179.934C202.465 179.89 202.467 179.846 202.467 179.801V179.781C202.468 179.832 202.465 179.883 202.46 179.934" fill="#ECDCF0"/>
<path d="M225.083 212.586L223.399 211.431L225.698 204.042L226.38 204.501L226.583 204.605L227.468 204.919L225.083 212.586" fill="#C1C08E"/>
<path d="M227.803 203.829L227.084 203.556L226.098 202.903C226.28 202.624 226.569 202.46 226.87 202.46C226.977 202.46 227.085 202.481 227.192 202.523C227.665 202.714 227.925 203.285 227.803 203.829" fill="#BCB88D"/>
<path d="M227.467 204.919L226.583 204.604L226.379 204.501L225.698 204.042L225.963 203.191C225.995 203.084 226.042 202.988 226.098 202.903L227.084 203.556L227.803 203.829C227.795 203.861 227.787 203.892 227.777 203.924L227.467 204.919" fill="#B4AD8F"/>
<path d="M249.592 212.661C249.421 212.462 249.315 212.191 249.315 211.891V211.258V210.399V184.825L250.284 183.681L250.131 212.33L249.592 212.661V212.661ZM248.74 182.346L225.002 166.331L223.438 165.275L203.702 151.961L202.467 151.127V152.778V179.164V179.781V179.801C202.467 179.846 202.465 179.89 202.46 179.934C202.444 180.081 202.403 180.219 202.342 180.344C202.176 180.675 201.863 180.898 201.504 180.898C201.493 180.898 201.482 180.898 201.472 180.898C201.363 180.894 201.258 180.869 201.162 180.827C200.799 180.669 200.542 180.27 200.542 179.801V179.699C201.158 179.3 201.525 179.06 201.525 179.06V150.315L202.014 149.692C202.083 149.605 202.137 149.508 202.177 149.406L249.306 181.677L248.74 182.346" fill="white"/>
<path d="M235.64 221.226L187.194 188.078C187.196 188.079 187.199 188.079 187.202 188.079C187.284 188.079 187.724 187.836 188.402 187.431L223.4 211.431L225.083 212.586L234.992 219.381L237.158 208.369L237.337 207.459L237.58 206.221L237.685 205.687L238.177 203.189L239.889 194.485L240.251 192.642L240.261 192.591C240.3 192.394 240.385 192.214 240.508 192.07L244.116 187.808L244.961 186.81L248.74 182.346L249.307 181.676L250.291 182.349L250.284 183.681L249.316 184.825L242.081 193.371L241.999 193.791L241.636 195.634L240.445 201.688L239.972 204.092L239.795 204.994L239.433 206.837L239.424 206.877L239.172 208.157L239.002 209.025L236.735 220.555L235.64 221.226L235.64 221.226ZM187.194 188.078L192.755 159.439L200.989 148.592L202.178 149.405C202.138 149.507 202.083 149.605 202.014 149.692L201.525 150.314V149.203L193.183 159.56L187.194 188.078" fill="white"/>
<path d="M188.402 187.431L188.392 187.425L189.876 179.875L194.962 183.305C192.467 184.907 189.873 186.552 188.402 187.431V187.431ZM196.896 182.061L190.319 177.624L190.508 176.663L198.051 179.611L199.356 180.47C198.644 180.932 197.801 181.477 196.896 182.061" fill="#EAEFC7"/>
<path d="M199.356 180.47L198.051 179.611L199.691 180.252C199.583 180.322 199.471 180.395 199.356 180.47Z" fill="white"/>
<path d="M200.542 178.265L197.163 176.945L191.222 173.036L193.745 160.201L196.452 156.761L200.542 154.053V178.265ZM199.893 152.388L200.542 151.564V151.958L199.893 152.388Z" fill="#F0F8C8"/>
<path d="M197.164 176.945L190.932 174.509L191.222 173.036L197.164 176.945V176.945ZM196.452 156.761L199.893 152.388L200.542 151.958V154.053L196.452 156.761" fill="white"/>
<path d="M194.962 183.305L189.876 179.874L190.319 177.624L196.896 182.06C196.273 182.463 195.621 182.882 194.962 183.305Z" fill="#E2E2C7"/>
<path d="M200.542 179.168L197.163 176.945L200.542 178.265V179.168V179.168ZM194.661 177.381L190.699 175.69L190.859 174.879L194.661 177.381Z" fill="#E7EAC7"/>
<path d="M198.051 179.611L190.508 176.663L190.699 175.69L194.661 177.381L198.051 179.611Z" fill="#E2E2C7"/>
<path d="M199.691 180.252L198.051 179.611L194.661 177.381L190.859 174.879L190.932 174.509L197.164 176.945L200.542 179.168V179.699C200.296 179.86 200.009 180.045 199.691 180.252" fill="#F7F0F9"/>
<path d="M200.542 179.699V151.564L201.525 150.314V179.06C201.525 179.06 201.158 179.299 200.542 179.699" fill="white"/>
<path d="M187.202 188.079C187.199 188.079 187.196 188.079 187.194 188.078L193.183 159.561L201.525 149.204V150.315L200.542 151.564L199.893 152.388L196.452 156.761L193.746 160.202L191.222 173.036L190.932 174.51L190.859 174.88L190.699 175.69L190.508 176.663L190.319 177.624L189.877 179.875L188.392 187.425L188.402 187.431C187.724 187.836 187.284 188.079 187.202 188.079" fill="white"/>
<path d="M331.886 75.1864L328.122 72.6472C329.333 72.7715 330.543 72.9124 331.746 73.0692L331.886 75.1864V75.1864ZM331.649 71.5844C329.642 71.3266 327.628 71.1142 325.601 70.9473L324.457 70.1747L331.44 68.4071L331.649 71.5844" fill="#F3D3CB"/>
<path d="M331.746 73.0692C330.543 72.9124 329.332 72.7715 328.121 72.6472L325.601 70.9473C327.627 71.1142 329.642 71.3266 331.649 71.5844L331.746 73.0692Z" fill="#F7E1DC"/>
<path d="M332.957 75.9088L331.886 75.1864L331.746 73.0691L331.649 71.5843L331.44 68.4071L324.457 70.1747L323.766 69.7082L332.317 67.0614L332.957 75.9088" fill="white"/>
<path d="M333.065 77.4205C333.065 77.4205 323.44 70.2907 322.959 70.2907L322.471 70.1098L323.766 69.7083L324.457 70.1747L325.601 70.9473L328.122 72.6472L331.885 75.1864L332.956 75.9089L333.065 77.4205" fill="white"/>
</svg>
